<svg width="876" height="1499" viewBox="0 0 876 1499" fill="none" xmlns="http://www.w3.org/2000/svg">
<g opacity="0.05">
<g clip-path="url(#clip0_282_2415)">
<path d="M273.966 1395.7C270.513 1399.91 267.06 1404.11 263.606 1408.32C260.859 1350.63 243.855 1293.65 214.523 1243.85C184.884 1193.52 143.083 1150.67 117.492 1098.18C91.9016 1045.69 86.5488 976.303 126.871 934.098C185.51 872.724 293.768 907.359 367.505 865.218C419.285 835.626 443.804 772.524 445.19 712.954C446.576 653.384 428.983 595.245 415.466 537.194C401.951 479.138 392.524 417.612 409.888 360.619C417.004 337.254 429.759 313.981 451.341 302.493C503.06 274.963 575.868 326.931 622.19 291.088C643.165 274.857 649.496 246.241 652.158 219.872C654.819 193.502 655.679 165.52 670.057 143.25C684.435 120.979 718.58 108.958 737.904 127.15" stroke="#159D45" stroke-width="1.33334" stroke-miterlimit="10"/>
<path d="M274.708 1397.38C271.537 1401.24 268.358 1405.09 265.173 1408.93C263.948 1351.35 248.111 1293.97 219.864 1243.48C208.035 1222.35 194.101 1202.45 180.033 1182.65C160.152 1154.65 140.014 1126.82 125.182 1095.82C101.988 1047.33 95.0331 985.222 123.451 941.995C126.061 938.031 128.972 934.223 132.195 930.597C162.177 896.856 206.335 889.613 253.072 884.018C293.238 879.211 334.937 876 369.392 856.97C403.391 838.198 426.519 805.6 438.658 768.227C445.231 748 448.489 726.508 448.845 705.451C448.959 698.881 448.837 692.327 448.518 685.793C445.917 632.732 430.319 580.764 418.045 528.81C412.02 503.304 406.796 477.149 404.279 450.969C401.037 417.246 402.383 383.474 412.338 351.244C419.333 328.592 431.649 306.004 452.526 294.768C502.552 267.848 572.935 317.424 617.907 282.646C638.274 266.895 644.57 239.255 647.348 213.798C650.127 188.337 651.182 161.353 665.243 139.883C679.299 118.416 712.371 106.823 731.193 124.316" stroke="#159D45" stroke-width="1.33334" stroke-miterlimit="10"/>
<path d="M275.453 1399.07C272.567 1402.58 269.659 1406.07 266.742 1409.56C267.036 1352.08 252.368 1294.3 225.209 1243.12C213.837 1221.72 200.344 1201.5 186.646 1181.4C167.291 1152.98 147.553 1124.74 132.877 1093.46C109.922 1044.56 102.469 982.598 129.248 938.695C131.709 934.676 134.458 930.8 137.517 927.099C165.944 892.625 208.374 883.379 254.696 876.533C294.505 870.65 336.45 867.309 371.282 848.726C405.675 830.394 429.806 798.518 442.314 761.08C449.098 740.797 452.272 719.154 452.5 697.948C452.572 691.339 452.405 684.745 452.041 678.183C449.061 624.838 433.133 572.65 420.618 520.429C414.471 494.783 409.149 468.498 406.567 442.161C403.245 408.257 404.648 374.241 414.783 341.876C421.651 319.94 433.535 298.031 453.707 287.054C502.044 260.745 570.003 307.925 613.624 274.215C633.379 258.948 639.644 232.281 642.536 207.731C645.432 183.183 646.687 157.189 660.431 136.52C674.166 115.854 706.163 104.697 724.488 121.491" stroke="#159D45" stroke-width="1.33334" stroke-miterlimit="10"/>
<path d="M276.195 1400.76C273.59 1403.92 270.957 1407.05 268.304 1410.18C270.116 1352.8 256.621 1294.62 230.545 1242.76C219.625 1221.08 206.574 1200.54 193.249 1180.15C174.415 1151.3 155.085 1122.66 140.565 1091.11C117.857 1041.79 109.908 979.975 135.044 935.404C137.355 931.329 139.947 927.384 142.839 923.606C169.71 888.399 210.408 877.145 256.317 869.048C295.767 862.092 337.959 858.621 373.163 840.485C407.949 822.588 433.085 791.438 445.962 753.934C452.956 733.6 456.05 711.804 456.149 690.452C456.184 683.805 455.97 677.175 455.559 670.58C452.203 616.948 435.941 564.543 423.189 512.06C416.921 486.269 411.501 459.859 408.853 433.361C405.449 399.271 406.911 365.017 417.226 332.515C423.961 311.29 435.418 290.069 454.884 279.343C501.527 253.648 567.064 298.429 609.333 265.787C628.481 251 634.71 225.309 637.719 201.672C640.733 178.032 642.182 153.035 655.612 133.169C669.026 113.306 699.949 102.581 717.774 118.672" stroke="#159D45" stroke-width="1.33334" stroke-miterlimit="10"/>
<path d="M276.937 1402.45C274.614 1405.25 272.256 1408.03 269.87 1410.79C273.201 1353.52 260.876 1294.94 235.885 1242.39C225.421 1220.45 212.812 1199.58 199.858 1178.89C181.55 1149.62 162.618 1120.56 148.254 1088.75C125.789 1039.01 117.346 977.343 140.838 932.099C142.998 927.963 145.431 923.956 148.155 920.102C173.471 884.162 212.441 870.904 257.934 861.556C297.032 853.525 339.466 849.924 375.047 832.234C410.228 814.774 436.362 784.348 449.612 746.78C456.816 726.39 459.83 704.446 459.798 682.943C459.791 676.256 459.53 669.59 459.077 662.96C455.346 609.041 438.754 556.421 425.758 503.669C419.367 477.738 413.849 451.198 411.136 424.543C407.647 390.271 409.166 355.776 419.666 323.137C426.264 302.621 437.298 282.089 456.061 271.618C501.01 246.534 564.124 288.919 605.042 257.346C623.583 243.039 629.775 218.327 632.902 195.599C636.037 172.869 637.681 148.865 650.79 129.799C663.887 110.737 693.732 100.443 711.055 115.838" stroke="#159D45" stroke-width="1.33334" stroke-miterlimit="10"/>
<path d="M277.679 1404.14C275.637 1406.59 273.554 1409.01 271.432 1411.41C276.285 1354.25 265.126 1295.27 241.221 1242.03C231.213 1219.81 219.041 1198.62 206.461 1177.64C188.675 1147.93 170.151 1118.48 155.94 1086.39C133.718 1036.23 124.78 974.71 146.628 928.798C148.639 924.606 150.913 920.533 153.471 916.599C177.233 879.922 214.47 864.66 259.552 854.065C298.291 844.962 340.973 841.227 376.93 823.985C412.503 806.959 439.643 777.26 453.258 739.626C460.672 719.183 463.606 697.09 463.442 675.433C463.398 668.709 463.092 662.003 462.59 655.344C458.485 601.137 441.558 548.3 428.321 495.281C421.809 469.206 416.193 442.541 413.414 415.725C409.844 381.267 411.418 346.532 422.102 313.758C428.554 293.953 439.175 274.104 457.229 263.892C500.489 239.423 561.175 279.411 600.744 248.899C618.672 235.075 624.834 211.336 628.077 189.521C631.329 167.704 633.172 144.694 645.965 126.429C658.741 108.167 687.51 98.3092 704.333 113" stroke="#159D45" stroke-width="1.33334" stroke-miterlimit="10"/>
<path d="M278.421 1405.82C276.66 1407.92 274.853 1409.98 272.998 1412.03C279.37 1354.97 269.38 1295.59 246.56 1241.67C237.008 1219.17 225.278 1197.66 213.068 1176.39C195.807 1146.25 177.687 1116.39 163.627 1084.03C141.649 1033.45 132.216 972.087 152.421 925.501C154.282 921.254 156.399 917.111 158.788 913.105C180.995 875.695 216.504 858.429 261.168 846.582C299.549 836.407 342.477 832.542 378.807 815.746C414.774 799.16 442.917 770.182 456.901 732.483C464.525 711.989 467.379 689.743 467.087 667.94C467 661.176 466.652 654.435 466.104 647.74C461.62 593.245 444.363 540.193 430.888 486.911C424.253 460.696 418.54 433.9 415.692 406.926C412.038 372.287 413.664 337.31 424.532 304.398C430.841 285.3 441.046 266.143 458.394 256.182C499.961 232.323 558.223 269.915 596.441 240.471C613.762 227.128 619.887 204.365 623.244 183.461C626.614 162.553 628.652 140.536 641.132 123.073C653.586 105.615 681.282 96.1855 697.604 110.177" stroke="#159D45" stroke-width="1.33334" stroke-miterlimit="10"/>
<path d="M279.166 1407.51C277.692 1409.25 276.153 1410.97 274.563 1412.65C282.454 1355.69 273.634 1295.91 251.903 1241.31C242.807 1218.54 231.515 1196.71 219.679 1175.14C202.94 1144.57 185.223 1114.31 171.319 1081.68C149.583 1030.68 139.558 969.422 158.22 922.207C159.923 917.897 161.888 913.694 164.114 909.612C184.769 871.47 218.541 852.199 262.795 839.102C300.822 827.851 343.993 823.856 380.7 807.507C417.058 791.356 446.207 763.105 460.56 725.34C468.394 704.79 471.169 682.395 470.745 660.442C470.62 653.64 470.223 646.858 469.63 640.135C464.77 585.356 447.18 532.084 433.465 478.535C426.712 452.177 420.897 425.254 417.982 398.123C414.249 363.299 415.92 328.083 426.98 295.034C433.132 276.645 442.934 258.174 459.579 248.472C499.452 225.224 555.291 260.42 592.158 232.045C608.871 219.182 614.961 197.394 618.434 177.403C621.922 157.404 624.158 136.385 636.317 119.722C648.45 103.064 675.072 94.0705 690.892 107.362" stroke="#159D45" stroke-width="1.33334" stroke-miterlimit="10"/>
<path d="M279.908 1409.2C278.715 1410.59 277.451 1411.95 276.129 1413.27C285.537 1356.42 277.887 1296.24 257.243 1240.94C248.599 1217.91 237.751 1195.75 226.286 1173.88C210.073 1142.89 192.76 1112.22 179.012 1079.32C157.518 1027.91 146.99 966.797 164.018 918.907C165.571 914.542 167.379 910.269 169.437 906.11C188.537 867.236 220.582 845.957 264.416 831.612C302.086 819.289 345.504 815.16 382.586 799.262C419.34 783.548 449.487 756.02 464.213 718.191C472.256 697.59 474.952 675.042 474.399 652.942C474.233 646.102 473.793 639.284 473.153 632.529C467.917 577.463 449.994 523.974 436.038 470.157C429.163 443.659 423.25 416.607 420.27 389.315C416.454 354.309 418.173 318.851 429.425 285.665C435.422 267.981 444.823 250.205 460.757 240.756C498.94 218.124 552.357 250.92 587.872 223.613C603.974 211.23 610.035 190.42 613.622 171.34C617.226 152.253 619.658 132.228 631.504 116.363C643.316 100.509 668.863 91.9474 684.183 104.535" stroke="#159D45" stroke-width="1.33334" stroke-miterlimit="10"/>
<path d="M280.65 1410.89C279.738 1411.93 278.75 1412.92 277.691 1413.88C288.618 1357.14 282.137 1296.56 262.578 1240.58C254.39 1217.27 243.981 1194.79 232.893 1172.63C217.201 1141.21 200.291 1110.14 186.699 1076.97C165.453 1025.14 154.418 964.175 169.809 915.615C171.209 911.193 172.86 906.854 174.75 902.619C192.295 863.011 222.607 839.728 266.031 824.133C303.343 810.734 347.011 806.475 384.463 791.023C421.609 775.744 452.761 748.943 467.855 711.052C476.109 690.395 478.72 667.697 478.039 645.448C477.835 638.569 477.35 631.715 476.663 624.924C471.049 569.57 452.794 515.869 438.598 461.781C431.602 435.139 425.59 407.961 422.545 380.512C418.646 345.321 420.409 309.622 431.857 276.302C437.693 259.324 446.696 242.236 461.926 233.043C498.416 211.021 549.408 241.425 583.573 215.183C599.067 203.284 605.093 183.449 608.797 165.278C612.519 147.1 615.15 128.069 626.678 113.009C638.169 97.9551 662.642 89.8257 677.461 101.714" stroke="#159D45" stroke-width="1.33334" stroke-miterlimit="10"/>
<path d="M281.391 1412.58C280.761 1413.26 280.048 1413.9 279.257 1414.5C291.706 1357.87 286.39 1296.88 267.917 1240.22C260.185 1216.64 250.218 1193.83 239.5 1171.38C224.334 1139.53 207.828 1108.05 194.388 1074.61C173.384 1022.36 161.85 961.55 175.603 912.314C176.854 907.837 178.346 903.432 180.07 899.116C196.059 858.776 224.644 833.485 267.652 816.644C304.611 802.173 348.521 797.783 386.35 782.774C423.89 767.935 456.045 741.856 471.508 703.9C479.972 683.191 482.503 660.344 481.69 637.944C481.445 631.026 480.914 624.133 480.183 617.313C474.193 561.672 455.608 507.756 441.171 453.404C434.052 426.621 427.943 399.314 424.833 371.704C420.85 336.331 422.65 300.387 434.302 266.933C439.972 250.657 448.581 234.266 463.104 225.328C497.9 203.92 546.47 231.925 579.283 206.75C594.17 195.332 600.16 176.473 603.981 159.214C607.825 141.946 610.646 123.911 621.858 109.648C633.027 95.3982 656.426 87.7011 670.748 98.8907" stroke="#159D45" stroke-width="1.33334" stroke-miterlimit="10"/>
<path d="M282.133 1414.26C281.785 1414.6 281.346 1414.88 280.823 1415.12C294.79 1358.59 290.644 1297.2 273.257 1239.85C265.981 1216 256.451 1192.87 246.108 1170.13C231.464 1137.85 215.361 1105.96 202.077 1072.25C181.316 1019.59 169.282 958.921 181.399 909.015C182.502 904.482 183.836 900.007 185.392 895.619C199.826 854.546 226.678 827.25 269.272 809.158C305.873 793.614 350.03 789.091 388.235 774.533C426.167 760.13 459.328 734.776 475.159 696.755C483.833 675.994 486.285 652.995 485.344 630.445C485.061 623.489 484.483 616.559 483.705 609.707C477.339 553.782 458.421 499.646 443.744 445.027C436.502 418.104 430.296 390.667 427.119 362.899C423.058 327.342 424.89 291.16 436.745 257.569C442.245 241.993 450.465 226.3 464.285 217.613C497.392 196.817 543.535 222.425 574.997 198.319C589.273 187.38 595.23 169.498 599.164 153.151C603.125 136.795 606.146 119.75 617.04 106.292C627.888 92.8423 650.213 85.581 664.034 96.0672" stroke="#159D45" stroke-width="1.33334" stroke-miterlimit="10"/>
<path d="M282.879 1415.95C282.815 1415.94 282.652 1415.86 282.389 1415.73C297.875 1359.31 294.899 1297.53 278.601 1239.49C271.777 1215.36 262.693 1191.91 252.719 1168.87C238.601 1136.16 222.902 1103.87 209.769 1069.89C189.251 1016.81 176.721 956.302 187.197 905.716C188.147 901.123 189.323 896.585 190.715 892.118C203.595 850.308 228.718 821.013 270.897 801.669C307.141 785.049 351.545 780.397 390.122 766.285C428.45 752.317 462.609 727.689 478.813 689.603C487.697 668.786 490.069 645.638 488.996 622.937C488.672 615.943 488.049 608.973 487.227 602.089C480.486 545.877 461.234 491.524 446.316 436.638C438.953 409.571 432.648 382.008 429.406 354.079C425.262 318.34 427.123 281.911 439.191 248.184C444.516 233.309 452.351 218.311 465.463 209.882C496.878 189.696 540.597 212.908 570.708 189.871C584.376 179.412 590.298 162.506 594.349 147.071C598.427 131.624 601.646 115.578 612.224 102.917C622.751 90.2671 644.002 83.4379 657.322 93.2244" stroke="#159D45" stroke-width="1.33334" stroke-miterlimit="10"/>
<path d="M283.62 1417.64C283.838 1417.27 283.949 1416.84 283.954 1416.35C300.959 1360.03 299.152 1297.85 283.939 1239.13C277.572 1214.73 268.925 1190.96 259.325 1167.62C245.729 1134.49 230.433 1101.79 217.46 1067.54C197.185 1014.04 184.159 953.682 192.992 902.423C193.793 897.775 194.811 893.168 196.032 888.626C207.356 846.084 230.748 814.78 272.512 794.189C308.397 776.497 353.048 771.715 392.003 758.046C430.722 744.514 465.886 720.611 482.46 682.461C491.554 661.592 493.846 638.291 492.644 615.444C492.282 608.412 491.613 601.405 490.744 594.489C483.624 537.989 464.042 483.42 448.887 428.267C441.405 401.061 435.003 373.369 431.691 345.282C427.464 309.358 429.347 272.682 441.633 238.827C446.775 224.652 454.233 210.352 466.642 202.179C496.362 182.607 537.662 203.42 566.418 181.45C579.478 171.476 585.365 155.541 589.533 141.019C593.729 126.481 597.144 111.428 607.404 99.5685C617.614 87.7232 637.786 81.3251 650.605 90.4119" stroke="#159D45" stroke-width="1.33334" stroke-miterlimit="10"/>
<path d="M284.363 1419.33C284.862 1418.61 285.247 1417.82 285.517 1416.97C304.044 1360.76 303.403 1298.17 289.276 1238.76C283.365 1214.09 275.159 1190 265.93 1166.37C252.86 1132.8 237.967 1099.7 225.146 1065.18C205.114 1011.26 191.592 951.054 198.783 899.118C199.435 894.414 200.295 889.741 201.348 885.123C211.117 841.848 232.78 808.541 274.131 786.695C309.662 767.932 354.556 763.015 393.883 749.796C432.992 736.703 469.163 713.523 486.102 675.305C495.407 654.381 497.618 630.935 496.286 607.934C495.881 600.862 495.17 593.821 494.254 586.869C486.76 530.08 466.843 475.296 451.447 419.879C443.843 392.529 437.343 364.71 433.965 336.467C429.656 300.357 431.556 263.435 444.064 229.451C449.025 215.974 456.105 202.371 467.807 194.452C495.838 175.492 534.71 193.912 562.12 173.007C574.568 163.513 580.422 148.558 584.708 134.945C589.021 121.32 592.634 107.261 602.578 96.2022C612.466 85.157 631.564 79.1948 643.883 87.5781" stroke="#159D45" stroke-width="1.33334" stroke-miterlimit="10"/>
<path d="M285.104 1421.02C285.885 1419.94 286.545 1418.8 287.083 1417.59C307.128 1361.48 307.656 1298.5 294.616 1238.4C289.16 1213.46 281.392 1189.04 272.537 1165.12C259.988 1131.12 245.499 1097.61 232.834 1062.82C213.044 1008.49 199.031 948.434 204.578 895.826C205.081 891.067 205.779 886.326 206.669 881.63C214.884 837.621 234.815 802.306 275.754 779.214C310.928 759.374 356.069 754.327 395.772 741.556C435.277 728.899 472.45 706.444 489.758 668.162C499.272 647.185 501.404 623.586 499.939 600.438C499.497 593.329 498.736 586.246 497.776 579.266C489.906 522.191 469.659 467.191 454.019 411.505C446.293 384.015 439.695 356.067 436.252 327.662C431.859 291.371 433.771 254.196 446.508 220.086C451.28 207.304 457.989 194.404 468.988 186.741C495.325 168.395 531.774 184.416 557.833 164.579C569.674 155.566 575.492 141.586 579.891 128.885C584.322 116.168 588.13 103.102 597.757 92.8452C607.324 82.6038 625.348 77.0699 637.166 84.7536" stroke="#159D45" stroke-width="1.33334" stroke-miterlimit="10"/>
<path d="M285.846 1422.7C286.909 1421.27 287.844 1419.77 288.645 1418.2C310.208 1362.2 311.906 1298.82 299.951 1238.04C294.947 1212.82 287.626 1188.08 279.14 1163.86C267.117 1129.44 253.032 1095.52 240.518 1060.47C220.976 1005.72 206.47 945.811 210.367 892.525C210.718 887.708 211.262 882.899 211.984 878.13C218.643 833.388 236.845 796.07 277.366 771.726C312.183 750.813 357.57 745.633 397.65 733.309C437.547 721.087 475.722 699.357 493.401 661.014C503.125 639.986 505.174 616.233 503.585 592.937C503.102 585.785 502.298 578.67 501.291 571.658C493.041 514.298 472.465 459.079 456.587 403.127C448.74 375.492 442.044 347.419 438.535 318.857C434.063 282.381 435.974 244.955 448.948 210.72C453.527 198.633 459.873 186.438 470.162 179.025C494.806 161.289 528.832 174.914 553.539 156.146C564.773 147.612 570.555 134.609 575.07 122.82C579.623 111.013 583.626 98.9442 592.935 89.488C602.181 80.0466 619.131 74.9487 630.447 81.9326" stroke="#159D45" stroke-width="1.33334" stroke-miterlimit="10"/>
<path d="M286.591 1424.39C287.94 1422.61 289.145 1420.75 290.214 1418.82C313.296 1362.93 316.163 1299.14 305.297 1237.68C300.751 1212.19 293.867 1187.12 285.755 1162.61C274.257 1127.76 260.572 1093.44 248.215 1058.11C228.915 1002.94 213.918 943.186 216.169 889.223C216.372 884.347 216.753 879.475 217.312 874.626C222.42 829.152 238.886 789.828 278.996 764.234C313.459 742.247 359.089 736.939 399.541 725.061C439.833 713.276 479.01 692.271 497.059 653.863C506.993 632.779 508.962 608.878 507.241 585.43C506.72 578.24 505.867 571.085 504.816 564.041C496.191 506.394 475.281 450.958 459.162 394.742C451.192 366.968 444.399 338.764 440.825 310.041C436.269 273.384 438.173 235.7 451.391 201.343C455.774 189.95 461.757 178.456 471.342 171.302C494.297 154.177 525.895 165.406 549.251 147.706C559.873 139.656 565.624 127.625 570.256 116.749C574.926 105.854 579.124 94.7787 588.121 86.1209C597.045 77.4833 612.92 72.8175 623.737 79.098" stroke="#159D45" stroke-width="1.33334" stroke-miterlimit="10"/>
<path d="M287.333 1426.08C288.963 1423.95 290.443 1421.73 291.776 1419.44C316.38 1363.66 320.414 1299.47 310.633 1237.31C306.542 1211.56 300.1 1186.16 292.359 1161.36C281.383 1126.07 268.105 1091.35 255.904 1055.75C236.846 1000.17 221.469 940.565 221.962 885.927C222.027 880.998 222.24 876.053 222.627 871.131C226.179 824.924 240.917 783.593 280.612 756.752C314.717 733.692 360.594 728.251 401.423 716.82C442.106 705.473 482.289 685.192 500.707 646.718C510.851 625.582 512.74 601.528 510.89 577.934C510.328 570.705 509.432 563.515 508.334 556.438C499.334 498.504 478.09 442.851 461.731 386.369C453.643 358.451 446.747 330.12 443.107 301.24C438.469 264.397 440.354 226.454 453.831 191.982C458.018 181.278 463.637 170.493 472.514 163.594C493.775 147.083 522.954 155.917 544.956 139.28C554.97 131.711 560.684 120.66 565.435 110.692C570.222 100.707 574.619 90.6252 583.294 82.7711C591.898 74.9337 606.699 70.6999 617.017 76.2854" stroke="#159D45" stroke-width="1.33334" stroke-miterlimit="10"/>
<path d="M288.076 1427.76C289.987 1425.28 291.743 1422.71 293.343 1420.06C319.465 1364.38 324.668 1299.79 315.973 1236.95C312.338 1210.92 306.334 1185.2 298.966 1160.11C288.515 1124.4 275.637 1089.27 263.591 1053.4C244.777 997.396 228.905 937.94 227.759 882.63C227.672 877.641 227.729 872.635 227.949 867.632C229.947 820.689 242.952 777.357 282.233 749.265C315.98 725.132 362.104 719.558 403.31 708.574C444.388 697.664 485.573 678.107 504.36 639.568C514.711 618.376 516.522 594.177 514.542 570.429C513.942 563.162 513 555.936 511.854 548.826C502.479 490.605 480.901 434.736 464.305 377.987C456.095 349.928 449.102 321.469 445.397 292.428C440.675 255.403 442.527 217.191 456.277 182.609C460.26 172.596 465.525 162.514 473.698 155.871C493.266 139.971 520.022 146.408 540.672 130.84C550.079 123.751 555.758 113.676 560.626 104.617C565.531 95.5403 570.126 86.4569 578.485 79.4001C586.767 72.3628 600.494 68.5649 610.312 73.4469" stroke="#159D45" stroke-width="1.33334" stroke-miterlimit="10"/>
<path d="M288.817 1429.45C291.01 1426.62 293.039 1423.69 294.908 1420.68C322.549 1365.1 328.921 1300.11 321.312 1236.59C318.132 1210.29 312.57 1184.25 305.576 1158.86C295.648 1122.71 283.177 1087.18 271.283 1051.04C252.712 994.622 236.346 935.314 233.555 879.335C233.319 874.29 233.214 869.217 233.27 864.139C233.713 816.463 244.99 771.127 283.856 741.784C317.249 716.576 363.616 710.871 405.194 700.337C446.663 689.862 488.85 671.031 508.01 632.428C518.57 611.183 520.303 586.832 518.193 562.938C517.552 555.632 516.564 548.365 515.376 541.225C505.621 482.718 483.713 426.63 466.876 369.614C458.544 341.411 451.453 312.826 447.682 283.628C442.878 246.417 444.678 207.936 458.72 173.248C462.496 163.923 467.407 154.552 474.874 148.163C492.752 132.879 517.081 136.916 536.384 122.417C545.182 115.812 550.83 106.709 555.807 98.5613C560.829 90.397 565.62 82.3031 573.665 76.0522C581.626 69.8186 594.282 66.4538 603.596 70.6314" stroke="#159D45" stroke-width="1.33334" stroke-miterlimit="10"/>
<path d="M289.56 1431.14C292.034 1427.95 294.338 1424.67 296.471 1421.29C325.63 1365.82 333.172 1300.43 326.653 1236.22C323.926 1209.65 318.804 1183.29 312.185 1157.6C302.782 1121.03 290.711 1085.09 278.973 1048.68C260.645 991.843 243.784 932.682 239.35 876.03C238.964 870.93 238.702 865.787 238.592 860.632C237.479 812.223 247.024 764.879 285.475 734.289C318.51 708.009 365.124 702.174 407.079 692.083C448.944 682.045 492.134 663.935 511.661 625.27C522.432 603.97 524.085 579.47 521.843 555.425C521.164 548.081 520.13 540.778 518.894 533.605C508.764 474.812 486.526 418.508 469.444 361.227C460.99 332.884 453.801 304.169 449.964 274.813C445.08 237.422 446.808 198.655 461.159 163.874C464.723 155.238 469.287 146.573 476.049 140.443C492.234 125.769 514.14 127.41 532.092 113.979C540.279 107.854 545.894 99.728 550.989 92.4924C556.128 85.237 561.117 78.141 568.843 72.6864C576.486 67.254 588.064 64.3202 596.877 67.8018" stroke="#159D45" stroke-width="1.33334" stroke-miterlimit="10"/>
<path d="M290.305 1432.83C293.064 1429.29 295.64 1425.65 298.041 1421.91C328.723 1366.54 337.43 1300.75 331.996 1235.86C329.726 1209.01 325.046 1182.33 318.796 1156.35C309.915 1119.35 298.251 1083 286.665 1046.32C268.58 989.069 251.224 930.056 245.146 872.735C244.611 867.58 244.188 862.37 243.913 857.139C241.245 807.997 249.061 758.65 287.098 726.809C319.776 699.453 366.636 693.487 408.967 683.844C451.223 674.244 495.42 656.857 515.317 618.127C526.297 596.775 527.87 572.122 525.497 547.927C524.776 540.544 523.701 533.202 522.421 525.997C511.916 466.916 489.344 410.396 472.025 352.848C463.449 324.362 456.163 295.521 452.26 266.004C447.294 228.428 448.924 189.368 463.612 154.504C466.963 146.553 471.18 138.602 477.236 132.723C491.728 118.659 511.211 117.904 527.812 105.539C535.392 99.8938 540.972 92.7432 546.183 86.4202C551.44 80.0736 556.625 73.9708 564.036 69.3221C571.357 64.6934 581.862 62.1918 590.173 64.97" stroke="#159D45" stroke-width="1.33334" stroke-miterlimit="10"/>
<path d="M291.046 1434.51C294.087 1430.62 296.938 1426.63 299.603 1422.53C331.803 1367.27 341.679 1301.08 337.331 1235.5C335.516 1208.38 331.274 1181.37 325.399 1155.09C317.044 1117.67 305.78 1080.92 294.349 1043.96C276.51 986.298 258.656 927.427 250.938 869.435C250.252 864.219 249.674 858.944 249.227 853.64C245.004 803.765 251.089 752.409 288.713 719.322C321.034 690.893 368.141 684.794 410.844 675.601C453.496 666.438 498.694 649.776 518.956 610.979C530.146 589.575 531.636 564.769 529.138 540.428C528.379 533.007 527.254 525.628 525.931 518.392C515.047 459.023 492.145 402.287 474.585 344.472C465.887 315.845 458.502 286.874 454.534 257.201C449.484 219.442 450.989 180.074 466.043 145.14C469.176 137.873 473.052 130.636 478.404 125.013C491.206 111.564 508.261 108.413 523.512 97.1116C530.485 91.9474 536.027 85.7762 541.356 80.362C546.734 74.9289 552.114 69.8193 559.209 65.9679C566.21 62.1393 575.639 60.0736 583.451 62.1483" stroke="#159D45" stroke-width="1.33334" stroke-miterlimit="10"/>
<path d="M291.788 1436.2C295.112 1431.96 298.236 1427.6 301.168 1423.15C334.886 1367.99 345.934 1301.4 342.671 1235.13C341.312 1207.74 337.512 1180.41 332.007 1153.84C324.173 1115.99 313.317 1078.83 302.042 1041.61C284.446 983.523 266.097 924.8 256.735 866.139C255.9 860.867 255.163 855.526 254.55 850.142C248.771 799.534 253.128 746.175 290.335 711.832C322.302 682.332 369.651 676.102 412.732 667.352C455.775 658.624 501.975 642.687 522.609 603.83C534.01 582.371 535.419 557.419 532.79 532.924C531.989 525.464 530.821 518.05 529.451 510.781C518.192 451.124 494.956 394.172 477.156 336.09C468.339 307.32 460.853 278.222 456.816 248.387C451.684 210.443 453.02 170.746 468.482 135.766C471.394 129.178 474.935 122.658 479.577 117.288C490.686 104.45 505.321 98.9033 519.217 88.6694C525.578 83.9884 531.089 78.7901 536.535 74.2884C542.031 69.7641 547.605 65.6516 554.383 62.6012C561.062 59.5764 569.418 57.9391 576.728 59.3178" stroke="#159D45" stroke-width="1.33334" stroke-miterlimit="10"/>
<path d="M292.529 1437.89C296.134 1433.3 299.534 1428.58 302.73 1423.77C337.967 1368.72 350.183 1301.72 348.006 1234.77C347.1 1207.11 343.741 1179.45 338.609 1152.59C331.302 1114.31 320.845 1076.74 309.725 1039.25C292.373 980.751 273.529 922.176 262.524 862.842C261.539 857.515 260.641 852.107 259.864 846.647C252.53 795.306 255.154 739.942 291.951 704.349C323.56 673.773 371.156 667.413 414.613 659.111C458.052 650.819 505.254 635.608 526.257 596.685C537.867 575.174 539.197 550.069 536.439 525.428C535.601 517.93 534.384 510.475 532.969 503.175C521.334 443.235 497.765 386.062 479.724 327.716C470.785 298.806 463.201 269.578 459.098 239.586C453.882 201.46 454.994 161.405 470.921 126.404C473.609 120.495 476.814 114.695 480.749 109.58C490.164 97.3555 502.377 89.4096 514.922 80.244C520.675 76.0435 526.15 71.8209 531.709 68.2307C537.323 64.6153 543.096 61.4969 549.557 59.2476C555.915 57.0229 563.196 55.8214 570.006 56.4967" stroke="#159D45" stroke-width="1.33334" stroke-miterlimit="10"/>
<path d="M293.276 1439.58C355.441 1360.46 362.593 1250.45 345.224 1151.34C327.852 1052.23 289.077 958.009 268.328 859.544C256.515 803.501 253.335 737.619 293.579 696.865C324.83 665.216 372.673 658.723 416.503 650.87C460.333 643.014 508.54 628.528 529.912 589.541C545.327 561.42 542.764 527.023 536.492 495.568C518.528 405.486 473.967 321.764 461.39 230.779C456.095 192.468 456.907 152.022 473.37 117.036C489.833 82.0508 524.57 53.8226 563.303 53.6757" stroke="#159D45" stroke-width="1.33334" stroke-miterlimit="10"/>
<path d="M286.205 1436.06C346.627 1356.13 356.226 1246.91 343.129 1150.08C330.979 1061.14 302.093 977.561 284.088 888.892C282.504 881.088 280.999 873.245 279.592 865.36C273.96 833.681 270.79 798.692 276.216 766.8C280.286 742.868 289.233 720.703 305.78 702.986C318.361 689.511 333.709 680.309 350.393 673.493C373.408 664.055 398.965 659.153 423.216 653.812C465.048 644.622 511.065 629.056 531.358 589.92C544.395 564.772 543.746 534.834 539.131 506.36C538.565 502.871 537.94 499.407 537.276 495.971C525.992 437.788 504.413 381.998 488.582 325.963C479.912 295.218 472.895 264.507 469.712 232.945C465.893 195.442 467.961 155.88 485.023 121.496C502.088 87.1139 536.671 59.1517 574.985 58.0437" stroke="#159D45" stroke-width="1.33334" stroke-miterlimit="10"/>
<path d="M279.133 1432.54C337.813 1351.8 349.86 1243.36 341.032 1148.83C332.698 1062.04 308.973 981.845 294.477 894.421C293.2 886.727 291.989 878.978 290.855 871.178C286.334 839.814 283.925 805.044 289.422 773.154C293.537 749.266 302.153 727.053 317.981 709.109C330.013 695.459 344.651 685.909 360.555 678.659C382.494 668.595 406.839 662.884 429.929 656.756C469.759 646.227 513.591 629.581 532.802 590.301C545.146 565.06 544.381 535.21 539.865 506.767C539.314 503.282 538.705 499.818 538.057 496.383C527.092 438.189 506.628 382.129 492.97 326.605C485.505 296.121 479.941 266.019 478.033 235.119C475.693 198.425 479.011 159.75 496.672 125.968C514.337 92.1844 548.773 64.4901 586.665 62.4283" stroke="#159D45" stroke-width="1.33334" stroke-miterlimit="10"/>
<path d="M272.063 1429.01C329.002 1347.46 343.495 1239.82 338.942 1147.57C334.427 1062.93 315.861 986.119 304.875 899.948C303.908 892.364 302.987 884.712 302.128 876.993C298.72 845.95 297.071 811.389 302.637 779.511C306.796 755.666 315.085 733.406 330.191 715.234C341.675 701.406 355.602 691.508 370.725 683.826C391.586 673.132 414.726 666.618 436.655 659.702C474.483 647.836 516.127 630.112 534.256 590.684C545.905 565.346 545.023 535.593 540.609 507.173C540.069 503.691 539.477 500.227 538.848 496.793C528.205 438.589 508.847 382.262 497.369 327.241C491.109 297.022 486.997 267.526 486.36 237.287C485.5 201.398 490.069 163.61 508.333 130.432C526.601 97.2508 560.881 69.8224 598.354 66.7995" stroke="#159D45" stroke-width="1.33334" stroke-miterlimit="10"/>
<path d="M264.991 1425.49C320.188 1343.13 337.368 1236.28 336.844 1146.32C336.366 1063.83 322.741 990.4 315.268 905.478C314.611 898.005 313.981 890.446 313.395 882.812C311.098 852.084 310.211 817.738 315.847 785.867C320.05 762.065 328.013 739.755 342.395 721.358C353.33 707.357 366.565 697.146 380.891 688.993C400.698 677.719 422.604 670.35 443.371 662.647C479.202 649.443 518.656 630.638 535.704 591.066C546.655 565.634 545.658 535.97 541.348 507.578C540.819 504.099 540.243 500.635 539.633 497.202C529.309 438.987 511.065 382.394 501.763 327.877C496.707 297.922 494.048 269.032 494.685 239.459C495.301 204.377 501.128 167.475 519.986 134.901C538.854 102.319 572.983 75.1613 610.035 71.1809" stroke="#159D45" stroke-width="1.33334" stroke-miterlimit="10"/>
<path d="M257.921 1421.97C311.376 1338.79 331.056 1232.74 334.754 1145.06C338.143 1064.73 329.628 994.676 325.662 911.004C325.312 903.64 324.976 896.176 324.664 888.626C323.478 858.213 323.349 824.082 329.058 792.221C333.305 768.467 340.938 746.105 354.601 727.481C364.988 713.302 377.517 702.752 391.057 694.158C409.795 682.265 430.483 674.082 450.089 665.591C483.918 651.048 521.185 631.167 537.153 591.447C547.411 565.919 546.297 536.347 542.088 507.982C541.571 504.506 541.013 501.047 540.42 497.61C530.415 439.385 513.286 382.522 506.158 328.512C502.31 298.822 501.172 270.54 503.012 241.627C505.194 207.356 512.185 171.338 531.643 139.363C551.114 107.384 585.088 80.4919 621.724 75.5512" stroke="#159D45" stroke-width="1.33334" stroke-miterlimit="10"/>
<path d="M250.85 1418.44C302.562 1334.46 324.739 1229.22 332.658 1143.81C339.905 1065.65 336.509 998.956 336.054 916.537C336.014 909.283 335.969 901.916 335.93 894.447C335.855 864.35 336.488 830.433 342.266 798.583C346.557 774.873 353.863 752.463 366.805 733.608C376.642 719.254 388.465 708.361 401.222 699.328C418.89 686.815 438.365 677.814 456.805 668.538C488.636 652.658 523.714 631.696 538.601 591.832C548.165 566.21 546.934 536.731 542.827 508.389C542.324 504.917 541.778 501.457 541.206 498.022C531.519 439.785 515.503 382.656 510.551 329.153C507.907 299.729 508.233 272.06 511.336 243.801C515.009 210.342 523.24 175.204 543.296 143.835C563.37 112.459 597.189 85.8332 633.406 79.9314" stroke="#159D45" stroke-width="1.33334" stroke-miterlimit="10"/>
<path d="M243.779 1414.92C293.748 1330.13 318.415 1225.7 330.566 1142.56C341.672 1066.57 343.395 1003.23 346.449 922.063C346.715 914.919 346.964 907.646 347.195 900.261C348.23 870.48 349.626 836.778 355.474 804.934C359.81 781.268 366.788 758.811 379.008 739.727C388.297 725.196 399.415 713.96 411.386 704.49C427.985 691.353 446.221 681.508 463.521 671.474C493.314 654.199 526.241 632.217 540.045 592.205C548.911 566.485 547.567 537.1 543.561 508.784C543.07 505.315 542.54 501.856 541.988 498.418C532.619 440.174 517.714 382.775 514.941 329.776C513.503 300.612 515.292 273.556 519.654 245.96C524.816 213.315 534.288 179.054 554.947 148.288C575.621 117.51 609.289 91.1516 645.085 84.296" stroke="#159D45" stroke-width="1.33334" stroke-miterlimit="10"/>
<path d="M236.708 1411.4C284.936 1325.79 312.085 1222.19 328.47 1141.3C343.424 1067.49 350.276 1007.51 356.841 927.592C357.418 920.559 357.958 913.379 358.462 906.079C360.611 876.618 362.765 843.129 368.683 811.292C373.063 787.67 379.714 765.166 391.211 745.854C399.952 731.145 410.367 719.566 421.551 709.659C437.08 695.899 454.095 685.239 470.237 674.421C498.022 655.802 528.773 632.747 541.492 592.59C549.665 566.773 548.205 537.48 544.298 509.195C543.818 505.729 543.308 502.271 542.772 498.834C533.721 440.579 519.931 382.91 519.333 330.418C519.099 301.519 522.351 275.075 527.978 248.134C534.629 216.305 545.342 182.925 566.6 152.761C587.877 122.586 621.39 96.4931 656.77 88.6773" stroke="#159D45" stroke-width="1.33334" stroke-miterlimit="10"/>
<path d="M229.637 1407.88C276.123 1321.46 306.652 1218.91 326.378 1140.05C344.348 1068.2 357.162 1011.79 367.235 933.119C368.122 926.195 368.941 919.11 369.73 911.894C372.932 882.741 375.906 849.474 381.894 817.644C386.319 794.065 392.64 771.509 403.417 751.974C411.61 737.091 421.317 725.164 431.718 714.822C446.18 700.435 461.971 688.966 476.956 677.362C502.731 657.403 531.302 633.273 542.943 592.968C550.421 567.059 548.844 537.858 545.039 509.596C544.574 506.134 544.075 502.679 543.559 499.239C534.831 440.974 522.151 383.038 523.728 331.053C524.702 302.42 529.623 276.643 536.305 250.302C544.188 219.22 556.403 186.786 578.256 157.223C600.133 127.647 633.498 101.825 668.455 93.0473" stroke="#159D45" stroke-width="1.33334" stroke-miterlimit="10"/>
<path d="M222.567 1404.35C267.31 1317.12 299.4 1215.16 324.283 1138.79C346.911 1069.34 364.044 1016.07 377.628 938.648C378.822 931.834 379.93 924.846 380.999 917.708C385.308 888.869 389.044 855.818 395.105 823.999C399.573 800.467 405.568 777.861 415.623 758.097C423.267 743.037 432.271 730.763 441.884 719.987C455.278 704.973 469.846 692.697 483.673 680.306C507.442 659.011 533.832 633.799 544.388 593.348C551.172 567.342 549.479 538.234 545.771 509.998C545.317 506.539 544.834 503.084 544.338 499.646C535.929 441.37 524.363 383.167 528.115 331.686C530.294 303.317 536.457 278.099 544.624 252.468C554.243 222.266 567.452 190.647 589.908 161.687C612.387 132.714 645.598 107.159 680.137 97.4244" stroke="#159D45" stroke-width="1.33334" stroke-miterlimit="10"/>
<path d="M215.495 1400.83C258.496 1312.79 293.04 1211.66 322.191 1137.53C348.643 1070.27 370.93 1020.35 388.023 944.173C389.527 937.47 390.926 930.575 392.267 923.522C397.687 894.999 402.185 862.162 408.316 830.354C412.827 806.866 418.496 784.212 427.829 764.216C434.924 748.982 443.223 736.357 452.051 725.149C464.375 709.503 477.721 696.427 490.391 683.246C512.15 660.614 536.362 634.324 545.838 593.726C551.924 567.625 550.119 538.607 546.512 510.398C546.069 506.942 545.606 503.488 545.126 500.05C537.035 441.763 526.58 383.29 532.511 332.317C535.895 304.209 543.512 279.608 552.947 254.634C564.047 225.25 578.506 194.505 601.56 166.148C624.643 137.778 657.699 112.488 691.818 101.793" stroke="#159D45" stroke-width="1.33334" stroke-miterlimit="10"/>
<path d="M208.428 1397.31C249.686 1308.46 286.676 1208.15 320.098 1136.28C350.365 1071.2 377.814 1024.63 398.418 949.709C400.233 943.116 401.922 936.314 403.537 929.345C410.065 901.133 415.328 868.516 421.529 836.714C426.085 813.27 431.426 790.569 440.037 770.345C446.583 754.933 454.175 741.961 462.22 730.321C473.469 714.042 485.597 700.167 497.111 686.196C516.863 662.232 538.894 634.855 547.289 594.113C552.682 567.916 550.759 538.994 547.254 510.808C546.824 507.351 546.375 503.901 545.915 500.465C538.142 442.167 528.697 383.412 536.908 332.957C541.442 305.107 550.568 281.128 561.276 256.808C573.857 228.24 589.565 198.37 613.218 170.619C636.901 142.847 669.806 117.825 703.505 106.172" stroke="#159D45" stroke-width="1.33334" stroke-miterlimit="10"/>
<path d="M201.357 1393.79C240.871 1304.12 280.302 1204.64 318.008 1135.03C352.083 1072.12 384.702 1028.9 408.812 955.234C410.933 948.75 412.918 942.043 414.806 935.159C422.445 907.262 428.47 874.86 434.739 843.069C439.34 819.668 444.351 796.915 452.242 776.468C458.24 760.882 465.123 747.553 472.386 735.486C482.561 718.575 493.476 703.898 503.828 689.139C521.578 663.841 541.422 635.383 548.739 594.494C553.437 568.203 551.398 539.371 547.994 511.212C547.578 507.759 547.142 504.308 546.702 500.869C539.248 442.56 530.919 383.532 541.303 333.591C547.042 306.002 557.619 282.637 569.602 258.975C583.657 231.222 600.622 202.233 624.874 175.083C649.159 147.915 681.909 123.158 715.191 110.549" stroke="#159D45" stroke-width="1.33334" stroke-miterlimit="10"/>
<path d="M194.286 1390.27C232.057 1299.79 273.913 1201.12 315.911 1133.77C353.783 1073.04 391.582 1033.19 419.206 960.764C421.637 954.392 423.911 947.782 426.073 940.978C434.828 913.394 441.61 881.209 447.95 849.425C452.595 826.068 457.279 803.268 464.447 782.593C469.893 766.827 476.071 753.148 482.552 740.653C491.654 723.105 501.353 707.634 510.546 692.084C526.292 665.455 543.952 635.91 550.184 594.875C554.185 568.487 552.034 539.748 548.73 511.616C548.325 508.166 547.908 504.72 547.485 501.277C540.349 442.962 533.133 383.655 545.694 334.226C552.638 306.898 564.662 284.149 577.924 261.147C593.453 234.205 611.678 206.097 636.529 179.55C661.418 152.981 694.013 128.494 726.875 114.923" stroke="#159D45" stroke-width="1.33334" stroke-miterlimit="10"/>
<path d="M187.214 1386.75C223.243 1295.46 267.521 1197.6 313.819 1132.52C355.482 1073.95 398.468 1037.46 429.602 966.294C432.344 960.028 434.912 953.516 437.344 946.797C447.209 919.528 454.753 887.562 461.163 855.784C465.851 832.475 470.209 809.624 476.654 788.72C481.551 772.781 487.016 758.748 492.717 745.823C500.741 727.637 509.229 711.373 517.262 695.032C531.003 667.075 546.479 636.442 551.631 595.26C554.938 568.779 552.671 540.129 549.467 512.027C549.074 508.58 548.672 505.135 548.269 501.693C541.455 443.367 535.45 383.82 550.086 334.868C558.291 307.82 571.706 285.668 586.244 263.32C603.248 237.189 622.729 209.963 648.178 184.021C673.666 158.054 706.11 133.835 738.552 119.306" stroke="#159D45" stroke-width="1.33334" stroke-miterlimit="10"/>
<path d="M180.145 1383.22C214.431 1291.12 261.121 1194.07 311.724 1131.26C357.171 1074.86 405.35 1041.74 439.993 971.819C443.041 965.662 445.904 959.245 448.605 952.609C459.585 925.657 467.883 893.903 474.366 862.137C479.098 838.871 483.126 815.972 488.854 794.838C493.202 778.721 497.953 764.334 502.877 750.983C509.819 732.162 517.104 715.103 523.977 697.971C535.722 668.686 549.006 636.963 553.078 595.637C555.691 569.059 553.306 540.505 550.204 512.426C549.826 508.983 549.436 505.537 549.053 502.097C542.558 443.76 537.667 383.944 554.478 335.498C563.888 308.711 578.747 287.17 594.569 265.483C613.038 240.165 633.783 213.821 659.832 188.478C685.924 163.111 718.215 139.161 750.238 123.672" stroke="#159D45" stroke-width="1.33334" stroke-miterlimit="10"/>
<path d="M173.073 1379.7C205.617 1286.79 254.714 1190.53 309.632 1130.01C358.862 1075.76 412.235 1046.02 450.389 977.35C453.748 971.304 456.902 964.98 459.876 958.428C471.972 931.789 481.027 900.253 487.58 868.493C492.357 845.271 496.057 822.325 501.062 800.963C504.863 784.668 508.901 769.928 513.047 756.15C518.905 736.69 524.989 718.841 530.698 700.916C540.443 670.301 551.539 637.493 554.531 596.02C556.449 569.349 553.949 540.884 550.948 512.832C550.58 509.392 550.21 505.947 549.843 502.507C543.666 444.159 539.889 384.077 558.876 336.138C569.494 309.616 585.794 288.683 602.897 267.66C622.838 243.148 644.842 217.69 671.493 192.954C698.183 168.188 730.325 144.502 761.927 128.055" stroke="#159D45" stroke-width="1.33334" stroke-miterlimit="10"/>
<path d="M166.002 1376.18C196.805 1282.45 248.305 1186.98 307.536 1128.75C360.543 1076.65 419.117 1050.3 460.779 982.875C464.449 976.939 467.907 970.716 471.14 964.241C484.404 937.945 494.164 906.596 500.786 874.847C505.607 851.669 508.982 828.672 513.263 807.085C516.515 790.616 519.836 775.522 523.209 761.315C527.981 741.219 532.87 722.577 537.411 703.859C545.161 671.912 554.064 638.018 555.972 596.399C557.193 569.63 554.58 541.259 551.68 513.234C551.323 509.797 550.969 506.352 550.622 502.913C544.764 444.555 542.1 384.206 563.263 336.771C575.085 310.514 592.831 290.184 611.216 269.825C632.621 246.118 655.89 221.551 683.141 197.413C710.435 173.251 742.422 149.831 773.603 132.426" stroke="#159D45" stroke-width="1.33334" stroke-miterlimit="10"/>
<path d="M158.931 1372.66C187.991 1278.12 241.895 1183.42 305.444 1127.5C362.226 1077.53 426.003 1054.58 471.176 988.406C475.152 982.58 478.904 976.455 482.412 970.061C496.786 944.08 507.308 912.946 514.001 881.204C518.865 858.073 521.913 835.025 525.472 813.21C528.176 796.563 530.779 781.119 533.379 766.483C537.065 745.75 540.755 726.315 544.132 706.805C549.89 673.529 556.598 638.545 557.425 596.782C557.952 569.916 555.222 541.642 552.423 513.64C552.082 510.206 551.739 506.765 551.413 503.32C545.873 444.95 544.321 384.331 567.662 337.403C580.689 311.411 599.876 291.685 619.547 271.991C642.421 249.089 666.953 225.408 694.801 201.876C722.699 178.313 754.53 155.163 785.296 136.798" stroke="#159D45" stroke-width="1.33334" stroke-miterlimit="10"/>
<path d="M151.86 1369.13C179.178 1273.79 235.482 1179.86 303.348 1126.25C363.907 1078.41 432.88 1058.86 481.566 993.934C485.852 988.219 489.895 982.187 493.675 975.878C509.16 950.216 520.445 919.293 527.207 887.562C532.115 864.474 534.833 841.378 537.673 819.336C539.827 802.515 541.71 786.715 543.54 771.651C546.138 750.282 548.671 730.053 550.845 709.752C554.674 675.149 559.125 639.078 558.869 597.166C558.702 570.207 555.856 542.021 553.158 514.046C552.828 510.616 552.505 507.176 552.198 503.732C546.978 445.351 546.539 384.466 572.055 338.046C586.287 312.314 606.917 293.191 627.867 274.169C652.206 252.068 678.007 229.279 706.451 206.348C734.947 183.387 766.628 160.504 796.974 141.178" stroke="#159D45" stroke-width="1.33334" stroke-miterlimit="10"/>
<path d="M144.79 1365.61C170.366 1269.45 229.074 1176.28 301.258 1124.99C365.596 1079.27 439.767 1063.13 491.964 999.46C496.557 993.854 500.894 987.917 504.948 981.693C521.543 956.347 533.59 925.642 540.421 893.917C545.374 870.873 547.764 847.73 549.883 825.456C551.489 808.458 552.653 792.311 553.712 776.814C555.219 754.812 556.555 733.781 557.567 712.692C559.394 676.752 561.66 639.6 560.323 597.544C559.459 570.488 556.5 542.395 553.903 514.447C553.584 511.02 553.277 507.58 552.99 504.137C548.091 445.747 548.763 384.595 576.455 338.677C591.895 313.211 613.964 294.686 636.198 276.333C662.003 255.033 689.068 233.139 718.115 210.811C747.215 188.45 778.741 165.832 808.669 145.554" stroke="#159D45" stroke-width="1.33334" stroke-miterlimit="10"/>
<path d="M137.719 1362.09C161.553 1265.12 222.665 1172.7 299.161 1123.74C367.275 1080.14 446.649 1067.41 502.352 1004.99C507.255 999.498 511.882 993.657 516.211 987.514C533.916 962.484 546.721 931.993 553.627 900.275C558.624 877.276 560.688 854.081 562.084 831.583C563.141 814.41 563.584 797.908 563.873 781.984C564.285 759.351 564.432 737.517 564.28 715.64C564.105 678.361 564.184 640.132 561.764 597.928C560.205 570.779 557.129 542.779 554.633 514.857C554.325 511.433 554.038 507.994 553.767 504.552C549.186 446.154 550.97 384.728 580.84 339.318C597.484 314.117 620.996 296.191 644.516 278.507C671.786 258.004 700.116 237.005 729.762 215.279C759.465 193.521 790.84 171.17 820.345 149.93" stroke="#159D45" stroke-width="1.33334" stroke-miterlimit="10"/>
<path d="M130.651 1358.57C152.742 1260.79 216.262 1169.11 297.072 1122.48C368.969 1081 453.537 1071.69 512.753 1010.52C517.966 1005.14 522.884 999.389 527.486 993.33C546.306 968.616 559.87 938.34 566.844 906.632C571.886 883.676 573.623 860.435 574.295 837.708C574.804 820.358 574.492 803.511 574.046 787.152C573.323 763.89 572.318 741.251 571.004 718.586C568.832 679.97 566.72 640.66 563.219 598.312C560.967 571.065 557.775 543.158 555.379 515.264C555.087 511.843 554.81 508.407 554.56 504.963C550.298 446.554 553.195 384.861 585.241 339.955C603.09 315.019 628.02 297.65 652.848 280.681C681.557 260.927 711.179 240.87 741.423 219.75C771.725 198.594 802.949 176.511 832.034 154.309" stroke="#159D45" stroke-width="1.33334" stroke-miterlimit="10"/>
<path d="M123.58 1355.04C143.93 1256.45 209.801 1165.41 294.977 1121.23C370.607 1081.75 460.419 1075.97 523.143 1016.05C528.662 1010.77 533.874 1005.13 538.75 999.148C558.681 974.749 573.006 944.687 580.051 912.987C585.136 890.078 586.543 866.785 586.497 843.831C586.457 826.307 585.435 809.108 584.208 792.317C582.406 768.425 580.192 744.982 577.718 721.529C573.543 681.578 569.245 641.188 564.665 598.693C561.718 571.353 558.41 543.535 556.115 515.667C555.834 512.25 555.573 508.814 555.343 505.37C551.399 446.951 555.41 384.992 589.631 340.593C608.685 315.917 635.068 299.158 661.166 282.85C691.351 263.904 722.227 244.736 753.071 224.214C783.977 203.657 815.045 181.843 843.713 158.685" stroke="#159D45" stroke-width="1.33334" stroke-miterlimit="10"/>
<path d="M116.509 1351.52C135.116 1252.12 203.435 1161.86 292.884 1119.98C372.33 1082.65 467.304 1080.25 533.54 1021.58C539.37 1016.42 544.872 1010.86 550.018 1004.96C571.059 980.883 586.148 951.032 593.262 919.342C598.391 896.477 599.471 873.136 598.702 849.954C598.114 832.252 596.377 814.707 594.375 797.483C591.492 772.965 588.075 748.715 584.436 724.47C578.263 683.182 571.776 641.71 566.115 599.07C562.47 571.633 559.049 543.912 556.856 516.067C556.587 512.649 556.345 509.219 556.131 505.772C552.506 447.341 557.632 385.113 594.028 341.221C614.29 316.81 642.122 300.656 669.495 285.011C701.16 266.87 733.29 248.589 764.732 228.673C796.237 208.718 827.154 187.172 855.403 163.052" stroke="#159D45" stroke-width="1.33334" stroke-miterlimit="10"/>
<path d="M109.439 1348C126.303 1247.78 197.069 1158.32 290.79 1118.72C374.051 1083.54 474.187 1084.53 543.934 1027.11C575.17 1001.39 597.53 965.128 606.472 925.697C615.6 885.449 610.965 843.429 604.541 802.649C589.494 707.113 564.844 612.903 557.596 516.471C552.991 455.175 557.572 387.801 598.423 341.855C619.889 317.709 649.174 302.162 677.821 287.178C744.176 252.478 811.488 217.526 867.087 167.425" stroke="#159D45" stroke-width="1.33334" stroke-miterlimit="10"/>
</g>
</g>
<defs>
<clipPath id="clip0_282_2415">
<rect width="1409" height="531" fill="white" transform="translate(0 1361.62) rotate(-75.0989)"/>
</clipPath>
</defs>
</svg>
