<svg width="531" height="125" viewBox="0 0 531 125" fill="none" xmlns="http://www.w3.org/2000/svg">
<g opacity="0.05" clip-path="url(#clip0_168_10479)">
<path d="M273.966 667.117C270.513 671.324 267.06 675.53 263.606 679.74C260.859 622.05 243.856 565.073 214.523 515.265C184.884 464.94 143.083 422.085 117.492 369.599C91.9021 317.109 86.5493 247.721 126.872 205.516C185.51 144.142 293.768 178.777 367.505 136.636C419.285 107.044 443.805 43.9422 445.191 -15.6279C446.576 -75.198 428.983 -133.337 415.467 -191.389C401.951 -249.444 392.524 -310.97 409.888 -367.963C417.005 -391.328 429.759 -414.601 451.342 -426.089C503.061 -453.619 575.868 -401.651 622.19 -437.494C643.165 -453.725 649.497 -482.341 652.158 -508.71C654.819 -535.08 655.68 -563.062 670.058 -585.332C684.436 -607.603 718.58 -619.624 737.904 -601.432" stroke="white" stroke-width="1.33334" stroke-miterlimit="10"/>
<path d="M274.708 668.803C271.537 672.657 268.358 676.51 265.173 680.353C263.948 622.768 248.111 565.388 219.864 514.895C208.035 493.767 194.101 473.866 180.033 454.065C160.152 426.073 140.014 398.239 125.182 367.234C101.988 318.745 95.0332 256.64 123.452 213.413C126.061 209.449 128.972 205.641 132.195 202.015C162.177 168.274 206.335 161.031 253.072 155.436C293.238 150.629 334.937 147.418 369.392 128.388C403.391 109.616 426.519 77.018 438.658 39.6454C445.231 19.418 448.489 -2.07451 448.845 -23.1306C448.959 -29.7012 448.837 -36.255 448.518 -42.7893C445.917 -95.8499 430.319 -147.819 418.045 -199.772C412.02 -225.278 406.796 -251.433 404.28 -277.613C401.037 -311.336 402.383 -345.108 412.338 -377.338C419.333 -399.99 431.65 -422.578 452.526 -433.814C502.552 -460.734 572.935 -411.158 617.907 -445.936C638.274 -461.687 644.57 -489.327 647.348 -514.784C650.127 -540.245 651.182 -567.229 665.243 -588.699C679.299 -610.166 712.371 -621.759 731.193 -604.266" stroke="white" stroke-width="1.33334" stroke-miterlimit="10"/>
<path d="M275.453 670.493C272.567 673.996 269.659 677.49 266.742 680.974C267.036 623.494 252.368 565.715 225.209 514.539C213.837 493.138 200.344 472.915 186.647 452.818C167.291 424.399 147.553 396.157 132.877 364.883C109.922 315.974 102.469 254.016 129.248 210.113C131.709 206.094 134.458 202.218 137.517 198.517C165.944 164.043 208.374 154.797 254.696 147.951C294.505 142.068 336.45 138.727 371.282 120.144C405.675 101.812 429.806 69.9357 442.314 32.4977C449.098 12.2147 452.272 -9.42779 452.5 -30.6337C452.572 -37.2432 452.405 -43.8369 452.041 -50.399C449.061 -103.744 433.133 -155.932 420.618 -208.153C414.471 -233.799 409.15 -260.084 406.567 -286.421C403.245 -320.325 404.648 -354.341 414.783 -386.706C421.651 -408.642 433.535 -430.551 453.708 -441.528C502.044 -467.837 570.003 -420.657 613.624 -454.367C633.38 -469.634 639.644 -496.301 642.537 -520.851C645.432 -545.399 646.687 -571.393 660.431 -592.062C674.166 -612.728 706.163 -623.885 724.488 -607.091" stroke="white" stroke-width="1.33334" stroke-miterlimit="10"/>
<path d="M276.195 672.182C273.59 675.334 270.957 678.47 268.304 681.593C270.116 624.219 256.621 566.041 230.545 514.176C219.625 492.501 206.574 471.957 193.25 451.568C174.415 422.721 155.085 394.073 140.565 362.529C117.857 313.204 109.908 251.393 135.044 206.822C137.355 202.747 139.948 198.802 142.839 195.024C169.711 159.817 210.409 148.563 256.317 140.466C295.767 133.51 337.959 130.039 373.164 111.903C407.949 94.0055 433.086 62.8557 445.962 25.3524C452.956 5.01754 456.05 -16.7777 456.149 -38.1296C456.184 -44.7771 455.97 -51.4071 455.559 -58.0017C452.204 -111.634 435.942 -164.039 423.19 -216.522C416.921 -242.313 411.501 -268.723 408.853 -295.221C405.449 -329.311 406.911 -363.565 417.226 -396.067C423.961 -417.292 435.419 -438.513 454.885 -449.239C501.527 -474.934 567.064 -430.153 609.334 -462.795C628.482 -477.582 634.711 -503.273 637.72 -526.91C640.733 -550.55 642.182 -575.547 655.613 -595.413C669.026 -615.276 699.949 -626.001 717.774 -609.91" stroke="white" stroke-width="1.33334" stroke-miterlimit="10"/>
<path d="M276.938 673.867C274.614 676.667 272.256 679.446 269.871 682.209C273.202 624.939 260.877 566.359 235.886 513.81C225.421 491.865 212.812 470.996 199.858 450.311C181.55 421.034 162.619 391.981 148.255 360.168C125.79 310.424 117.346 248.761 140.839 203.517C142.998 199.382 145.431 195.374 148.155 191.52C173.471 155.58 212.441 142.322 257.935 132.974C297.032 124.943 339.466 121.342 375.047 103.653C410.228 86.1917 436.363 55.7662 449.612 18.1986C456.817 -2.19196 459.831 -24.1362 459.798 -45.6388C459.791 -52.3253 459.531 -58.9915 459.077 -65.6214C455.347 -119.541 438.755 -172.161 425.758 -224.913C419.367 -250.844 413.85 -277.383 411.136 -304.039C407.648 -338.31 409.167 -372.806 419.666 -405.445C426.264 -425.961 437.298 -446.493 456.061 -456.964C501.011 -482.048 564.124 -439.663 605.042 -471.236C623.583 -485.543 629.775 -510.255 632.902 -532.983C636.037 -555.713 637.681 -579.716 650.791 -598.783C663.888 -617.845 693.732 -628.138 711.055 -612.744" stroke="white" stroke-width="1.33334" stroke-miterlimit="10"/>
<path d="M277.678 675.556C275.636 678.003 273.553 680.425 271.431 682.827C276.285 625.664 265.125 566.684 241.221 513.446C231.212 491.228 219.041 470.037 206.461 449.056C188.674 419.351 170.151 389.893 155.939 357.805C133.718 307.644 124.78 246.128 146.628 200.216C148.638 196.024 150.913 191.951 153.47 188.017C177.232 151.34 214.47 136.078 259.552 125.483C298.291 116.38 340.972 112.645 376.93 95.4028C412.502 78.3771 439.643 48.6778 453.258 11.0439C460.672 -9.39855 463.605 -31.4918 463.442 -53.1488C463.397 -59.8733 463.092 -66.5794 462.59 -73.2382C458.484 -127.445 441.558 -180.282 428.321 -233.301C421.809 -259.376 416.193 -286.041 413.414 -312.857C409.843 -347.315 411.418 -382.05 422.101 -414.825C428.554 -434.629 439.175 -454.478 457.229 -464.69C500.489 -489.159 561.175 -449.171 600.744 -479.683C618.672 -493.507 624.833 -517.246 628.077 -539.061C631.329 -560.878 633.172 -583.888 645.965 -602.153C658.74 -620.415 687.51 -630.273 704.333 -615.582" stroke="white" stroke-width="1.33334" stroke-miterlimit="10"/>
<path d="M278.421 677.241C276.661 679.337 274.853 681.401 272.998 683.444C279.37 626.385 269.38 567.007 246.56 513.085C237.009 490.593 225.278 469.08 213.068 447.807C195.808 417.672 177.687 387.811 163.628 355.452C141.649 304.873 132.216 243.505 152.421 196.919C154.282 192.672 156.4 188.529 158.789 184.522C180.995 147.113 216.504 129.847 261.168 118C299.549 107.825 342.477 103.96 378.807 87.1638C414.774 70.5781 442.917 41.6004 456.901 3.90114C464.525 -16.5932 467.379 -38.8392 467.087 -60.6422C467.001 -67.4057 466.653 -74.1471 466.104 -80.8421C461.62 -135.337 444.364 -188.389 430.889 -241.671C424.254 -267.886 418.54 -294.682 415.692 -321.656C412.038 -356.295 413.665 -391.272 424.533 -424.184C430.841 -443.282 441.046 -462.439 458.394 -472.4C499.961 -496.259 558.224 -458.667 596.441 -488.111C613.762 -501.454 619.888 -524.217 623.244 -545.121C626.614 -566.029 628.652 -588.046 641.132 -605.509C653.586 -622.967 681.282 -632.396 697.604 -618.405" stroke="white" stroke-width="1.33334" stroke-miterlimit="10"/>
<path d="M279.166 678.931C277.692 680.673 276.153 682.385 274.564 684.064C282.454 627.11 273.634 567.329 251.903 512.724C242.807 489.962 231.515 468.123 219.679 446.555C202.94 415.992 185.223 385.724 171.32 353.096C149.583 302.102 139.559 240.84 158.221 193.625C159.923 189.315 161.889 185.112 164.114 181.03C184.769 142.888 218.541 123.617 262.795 110.52C300.823 99.2692 343.993 95.2736 380.7 78.9247C417.059 62.7743 446.207 34.5228 460.56 -3.24173C468.394 -23.7917 471.169 -46.1866 470.745 -68.1403C470.621 -74.9419 470.223 -81.7242 469.631 -88.447C464.77 -143.226 447.181 -196.498 433.465 -250.048C426.712 -276.405 420.897 -303.328 417.982 -330.459C414.25 -365.283 415.92 -400.499 426.98 -433.548C433.132 -451.937 442.935 -470.408 459.579 -480.11C499.452 -503.358 555.291 -468.162 592.158 -496.537C608.872 -509.4 614.961 -531.188 618.435 -551.179C621.922 -571.179 624.158 -592.197 636.317 -608.86C648.45 -625.518 675.072 -634.512 690.892 -621.22" stroke="white" stroke-width="1.33334" stroke-miterlimit="10"/>
<path d="M279.908 680.62C278.715 682.009 277.451 683.364 276.129 684.683C285.537 627.838 277.887 567.655 257.243 512.361C248.599 489.325 237.752 467.166 226.287 445.302C210.074 414.308 192.76 383.637 179.012 350.739C157.519 299.327 146.991 238.214 164.018 190.325C165.571 185.96 167.38 181.687 169.437 177.528C188.537 138.653 220.582 117.375 264.416 103.03C302.086 90.7066 345.504 86.5773 382.587 70.6794C419.341 54.9653 449.488 27.438 464.213 -10.3909C472.257 -30.9927 474.952 -53.5404 474.399 -75.6401C474.233 -82.4806 473.794 -89.2982 473.153 -96.0535C467.918 -151.12 449.994 -204.608 436.038 -258.425C429.163 -284.923 423.25 -311.975 420.271 -339.268C416.454 -374.273 418.173 -409.732 429.426 -442.917C435.422 -460.602 444.824 -478.377 460.757 -487.826C498.94 -510.459 552.357 -477.662 587.872 -504.969C603.975 -517.352 610.036 -538.163 613.622 -557.242C617.227 -576.329 619.658 -596.355 631.505 -612.219C643.316 -628.073 668.864 -636.635 684.184 -624.047" stroke="white" stroke-width="1.33334" stroke-miterlimit="10"/>
<path d="M280.65 682.305C279.738 683.343 278.749 684.34 277.691 685.299C288.618 628.559 282.137 567.976 262.578 511.998C254.389 488.693 243.98 466.208 232.892 444.053C217.201 412.632 200.291 381.553 186.699 348.385C165.452 296.557 154.417 235.592 169.809 187.032C171.209 182.611 172.859 178.272 174.75 174.036C192.294 134.429 222.607 111.146 266.03 95.551C303.343 82.1513 347.011 77.8932 384.463 62.4405C421.608 47.1616 452.761 20.3606 467.854 -17.5299C476.109 -38.1874 478.72 -60.885 478.039 -83.1344C477.835 -90.0129 477.349 -96.8668 476.663 -103.658C471.048 -159.013 452.794 -212.713 438.598 -266.801C431.601 -293.444 425.59 -320.621 422.544 -348.071C418.646 -383.262 420.408 -418.96 431.856 -452.281C437.693 -469.258 446.696 -486.346 461.926 -495.539C498.416 -517.561 549.408 -487.157 583.573 -513.4C599.067 -525.298 605.092 -545.133 608.797 -563.304C612.519 -581.482 615.15 -600.513 626.678 -615.573C638.168 -630.627 662.642 -638.757 677.461 -626.868" stroke="white" stroke-width="1.33334" stroke-miterlimit="10"/>
<path d="M281.391 683.994C280.761 684.68 280.048 685.32 279.257 685.919C291.706 629.285 286.39 568.302 267.917 511.636C260.185 488.057 250.218 465.251 239.5 442.8C224.335 410.948 207.828 379.466 194.388 346.028C173.384 293.782 161.85 232.967 175.603 183.732C176.854 179.255 178.346 174.85 180.07 170.534C196.059 130.194 224.644 104.903 267.652 88.0613C304.611 73.5902 348.521 69.2012 386.35 54.1919C423.89 39.3531 456.046 13.2736 471.508 -24.6822C479.972 -45.3916 482.503 -68.2382 481.69 -90.6384C481.445 -97.5558 480.914 -104.45 480.183 -111.269C474.193 -166.911 455.608 -220.827 441.171 -275.178C434.052 -301.961 427.944 -329.268 424.833 -356.879C420.85 -392.251 422.651 -428.195 434.302 -461.649C439.972 -477.925 448.581 -494.316 463.104 -503.254C497.9 -524.663 546.47 -496.658 579.284 -521.832C594.17 -533.25 600.16 -552.109 603.981 -569.368C607.825 -586.636 610.646 -604.671 621.858 -618.934C633.027 -633.184 656.426 -640.881 670.748 -629.692" stroke="white" stroke-width="1.33334" stroke-miterlimit="10"/>
<path d="M282.133 685.68C281.784 686.014 281.346 686.296 280.822 686.536C294.79 630.006 290.644 568.621 273.257 511.271C265.981 487.418 256.451 464.29 246.108 441.543C231.463 409.264 215.361 377.375 202.076 343.667C181.316 291.003 169.282 230.339 181.399 180.433C182.501 175.9 183.836 171.425 185.391 167.037C199.825 125.963 226.678 98.6684 269.272 80.5756C305.872 65.032 350.03 60.5094 388.235 45.9511C426.166 31.5475 459.327 6.19432 475.159 -31.8268C483.833 -52.5881 486.284 -75.5874 485.344 -98.1374C485.06 -105.093 484.483 -112.023 483.705 -118.875C477.339 -174.8 458.421 -228.936 443.743 -283.555C436.501 -310.478 430.296 -337.915 427.119 -365.683C423.058 -401.24 424.889 -437.422 436.745 -471.013C442.244 -486.589 450.464 -502.282 464.285 -510.969C497.392 -531.765 543.534 -506.157 574.997 -530.263C589.272 -541.202 595.23 -559.084 599.164 -575.431C603.125 -591.787 606.146 -608.832 617.04 -622.29C627.888 -635.74 650.212 -643.001 664.034 -632.515" stroke="white" stroke-width="1.33334" stroke-miterlimit="10"/>
<path d="M282.878 687.37C282.815 687.353 282.651 687.278 282.389 687.152C297.875 630.728 294.898 568.944 278.601 510.906C271.777 486.783 262.693 463.33 252.719 440.291C238.601 407.582 222.901 375.29 209.769 341.311C189.25 288.233 176.721 227.72 187.196 177.134C188.147 172.541 189.322 168.003 190.715 163.536C203.595 121.726 228.717 92.4309 270.897 73.0871C307.14 56.4674 351.545 51.8149 390.122 37.7028C428.449 23.7354 462.608 -0.893425 478.813 -38.9789C487.697 -59.7959 490.068 -82.9442 488.996 -105.645C488.671 -112.639 488.048 -119.609 487.227 -126.493C480.486 -182.705 461.234 -237.058 446.316 -291.945C438.952 -319.011 432.648 -346.574 429.406 -374.503C425.261 -410.242 427.123 -446.671 439.19 -480.398C444.516 -495.273 452.351 -510.271 465.463 -518.7C496.877 -538.886 540.596 -515.674 570.707 -538.712C584.376 -549.17 590.297 -566.076 594.348 -581.511C598.427 -596.958 601.646 -613.004 612.224 -625.665C622.751 -638.315 644.001 -645.144 657.322 -635.358" stroke="white" stroke-width="1.33334" stroke-miterlimit="10"/>
<path d="M283.62 689.059C283.838 688.69 283.949 688.257 283.954 687.771C300.959 631.452 299.151 569.27 283.939 510.548C277.572 486.151 268.925 462.376 259.325 439.041C245.729 405.905 230.433 373.205 217.46 338.958C197.185 285.462 184.159 225.1 192.992 173.841C193.793 169.193 194.811 164.586 196.032 160.044C207.356 117.501 230.747 86.1983 272.511 65.6073C308.397 47.9152 353.048 43.1328 392.003 29.4642C430.721 15.9321 465.886 -7.97059 482.46 -46.1214C491.553 -66.9902 493.846 -90.2912 492.644 -113.138C492.282 -120.17 491.612 -127.177 490.743 -134.093C483.624 -190.593 464.041 -245.162 448.887 -300.315C441.404 -327.521 435.003 -355.213 431.691 -383.3C427.464 -419.224 429.347 -455.9 441.632 -489.755C446.775 -503.93 454.233 -518.23 466.642 -526.403C496.362 -545.975 537.662 -525.162 566.418 -547.132C579.478 -557.106 585.365 -573.041 589.533 -587.563C593.729 -602.101 597.143 -617.154 607.404 -629.014C617.613 -640.859 637.786 -647.257 650.605 -638.17" stroke="white" stroke-width="1.33334" stroke-miterlimit="10"/>
<path d="M284.363 690.744C284.862 690.023 285.248 689.236 285.518 688.387C304.044 632.174 303.403 569.587 289.276 510.181C283.365 485.511 275.159 461.414 265.931 437.784C252.86 404.217 237.968 371.114 225.146 336.596C205.114 282.682 191.593 222.471 198.783 170.536C199.435 165.832 200.295 161.159 201.348 156.541C211.118 113.266 232.78 79.9588 274.131 58.1131C309.662 39.3495 354.556 34.4325 393.883 21.2138C432.993 8.12069 469.164 -15.0594 486.103 -53.2765C495.407 -74.201 497.618 -97.6473 496.286 -120.648C495.882 -127.72 495.17 -134.761 494.255 -141.714C486.76 -198.502 466.844 -253.286 451.447 -308.703C443.843 -336.053 437.343 -363.872 433.966 -392.115C429.656 -428.225 431.556 -465.147 444.064 -499.131C449.025 -512.608 456.106 -526.211 467.807 -534.13C495.838 -553.09 534.71 -534.67 562.12 -555.575C574.569 -565.069 580.422 -580.024 584.708 -593.637C589.021 -607.262 592.634 -621.321 602.578 -632.38C612.467 -643.425 631.564 -649.387 643.883 -641.004" stroke="white" stroke-width="1.33334" stroke-miterlimit="10"/>
<path d="M285.104 692.433C285.885 691.36 286.545 690.216 287.082 689.007C307.128 632.898 307.656 569.913 294.615 509.819C289.159 484.879 281.392 460.456 272.536 436.534C259.987 402.539 245.499 369.03 232.833 334.242C213.044 279.91 199.031 219.852 204.578 167.244C205.081 162.484 205.779 157.744 206.669 153.047C214.883 109.039 234.814 73.7235 275.753 50.6316C310.928 30.7918 356.068 25.7449 395.771 12.9734C435.276 0.316545 472.449 -22.1382 489.757 -60.4207C499.271 -81.3971 501.403 -104.996 499.938 -128.144C499.496 -135.254 498.735 -142.336 497.776 -149.316C489.906 -206.391 469.659 -261.392 454.018 -317.077C446.292 -344.567 439.695 -372.515 436.252 -400.92C431.859 -437.212 433.77 -474.386 446.508 -508.496C451.279 -521.278 457.989 -534.178 468.987 -541.841C495.325 -560.187 531.774 -544.166 557.832 -564.003C569.674 -573.017 575.492 -586.996 579.89 -599.697C584.321 -612.414 588.13 -625.48 597.757 -635.737C607.323 -645.978 625.348 -651.512 637.166 -643.829" stroke="white" stroke-width="1.33334" stroke-miterlimit="10"/>
<path d="M285.846 694.118C286.909 692.69 287.843 691.191 288.645 689.622C310.208 633.622 311.906 570.234 299.95 509.455C294.947 484.241 287.626 459.495 279.14 435.28C267.117 400.855 253.031 366.942 240.518 331.884C220.975 277.135 206.47 217.229 210.367 163.943C210.718 159.126 211.262 154.317 211.984 149.548C218.643 104.806 236.845 67.4875 277.366 43.1436C312.182 22.2314 357.57 17.0509 397.65 4.72657C437.547 -7.49499 475.721 -29.2246 493.401 -67.5676C503.125 -88.5959 505.174 -112.349 503.584 -135.645C503.102 -142.797 502.298 -149.912 501.29 -156.924C493.041 -214.284 472.465 -269.504 456.587 -325.455C448.739 -353.09 442.044 -381.163 438.535 -409.725C434.063 -446.201 435.974 -483.627 448.948 -517.862C453.527 -529.949 459.873 -542.144 470.161 -549.557C494.806 -567.293 528.831 -553.668 553.538 -572.436C564.773 -580.97 570.554 -593.973 575.07 -605.762C579.623 -617.569 583.625 -629.638 592.935 -639.094C602.181 -648.535 619.13 -653.633 630.447 -646.649" stroke="white" stroke-width="1.33334" stroke-miterlimit="10"/>
<path d="M286.591 695.808C287.94 694.029 289.145 692.172 290.214 690.243C313.296 634.348 316.163 570.562 305.297 509.095C300.751 483.608 293.866 458.539 285.755 434.029C274.257 399.177 260.572 364.856 248.215 329.525C228.914 274.361 213.918 214.604 216.169 160.641C216.372 155.765 216.753 150.893 217.312 146.044C222.419 100.57 238.886 61.2461 278.996 35.6522C313.459 13.6648 359.089 8.35717 399.541 -3.52099C439.833 -15.3063 479.01 -36.3106 497.059 -74.7189C506.993 -95.8029 508.961 -119.704 507.24 -143.152C506.72 -150.342 505.867 -157.497 504.816 -164.541C496.191 -222.188 475.281 -277.624 459.162 -333.84C451.192 -361.614 444.399 -389.818 440.825 -418.541C436.269 -455.198 438.173 -492.882 451.391 -527.239C455.774 -538.632 461.757 -550.126 471.341 -557.28C494.296 -574.405 525.895 -563.176 549.251 -580.876C559.873 -588.926 565.624 -600.957 570.256 -611.833C574.925 -622.728 579.123 -633.803 588.121 -642.461C597.045 -651.099 612.92 -655.765 623.737 -649.484" stroke="white" stroke-width="1.33334" stroke-miterlimit="10"/>
<path d="M287.333 697.497C288.962 695.367 290.443 693.152 291.776 690.862C316.379 635.073 320.413 570.883 310.633 508.733C306.541 482.975 300.099 457.582 292.358 432.775C281.383 397.492 268.105 362.769 255.903 327.168C236.846 271.587 221.469 211.983 221.962 157.345C222.026 152.416 222.239 147.471 222.626 142.549C226.178 96.342 240.917 55.0107 280.612 28.1695C314.717 5.1097 360.593 -0.331498 401.423 -11.7625C442.105 -23.1088 482.289 -43.3905 500.706 -81.8642C510.85 -103 512.74 -127.054 510.89 -150.648C510.328 -157.877 509.432 -165.067 508.334 -172.144C499.334 -230.078 478.09 -285.731 461.73 -342.214C453.642 -370.131 446.747 -398.462 443.107 -427.342C438.469 -464.185 440.353 -502.128 453.83 -536.6C458.017 -547.304 463.636 -558.089 472.513 -564.988C493.775 -581.499 522.953 -572.665 544.955 -589.302C554.97 -596.871 560.684 -607.922 565.434 -617.89C570.221 -627.875 574.618 -637.957 583.294 -645.811C591.897 -653.648 606.698 -657.882 617.017 -652.297" stroke="white" stroke-width="1.33334" stroke-miterlimit="10"/>
<path d="M288.076 699.182C289.987 696.699 291.743 694.127 293.343 691.478C319.465 635.794 324.668 571.205 315.973 508.37C312.338 482.339 306.334 456.623 298.966 431.525C288.516 395.816 275.637 360.684 263.592 324.813C244.778 268.814 228.906 209.358 227.759 154.048C227.672 149.059 227.729 144.053 227.95 139.05C229.947 92.1069 242.953 48.7748 282.233 20.6826C315.98 -3.44963 362.104 -9.02446 403.31 -20.0083C444.388 -30.9183 485.573 -50.4748 504.36 -89.0138C514.711 -110.206 516.523 -134.405 514.542 -158.153C513.942 -165.42 513 -172.647 511.855 -179.756C502.48 -237.977 480.902 -293.846 464.305 -350.595C456.095 -378.654 449.102 -407.114 445.397 -436.154C440.675 -473.179 442.527 -511.391 456.277 -545.973C460.26 -555.986 465.525 -566.068 473.698 -572.711C493.266 -588.611 520.022 -582.174 540.672 -597.742C550.08 -604.831 555.758 -614.906 560.626 -623.965C565.531 -633.042 570.126 -642.125 578.485 -649.182C586.768 -656.219 600.494 -660.017 610.312 -655.135" stroke="white" stroke-width="1.33334" stroke-miterlimit="10"/>
<path d="M288.817 700.871C291.01 698.036 293.039 695.111 294.908 692.098C322.549 636.519 328.921 571.531 321.312 508.008C318.132 481.708 312.57 455.666 305.576 430.273C295.648 394.132 283.177 358.599 271.283 322.457C252.712 266.04 236.346 206.732 233.555 150.753C233.319 145.708 233.214 140.635 233.27 135.557C233.713 87.8805 244.99 42.5449 283.856 13.2018C317.249 -12.0056 363.616 -17.7114 405.194 -28.2452C446.663 -38.72 488.85 -57.5511 508.01 -96.1545C518.57 -117.399 520.303 -141.75 518.193 -165.644C517.552 -172.95 516.564 -180.217 515.376 -187.357C505.621 -245.864 483.713 -301.952 466.876 -358.968C458.544 -387.171 451.453 -415.756 447.682 -444.954C442.878 -482.165 444.678 -520.646 458.72 -555.334C462.496 -564.659 467.407 -574.03 474.874 -580.419C492.752 -595.703 517.081 -591.666 536.384 -606.165C545.182 -612.77 550.83 -621.873 555.807 -630.021C560.829 -638.185 565.62 -646.279 573.665 -652.53C581.626 -658.763 594.282 -662.128 603.596 -657.951" stroke="white" stroke-width="1.33334" stroke-miterlimit="10"/>
<path d="M289.559 702.556C292.034 699.37 294.338 696.086 296.471 692.713C325.63 637.239 333.172 571.849 326.652 507.642C323.925 481.067 318.804 454.705 312.185 429.016C302.782 392.449 290.711 356.507 278.973 320.096C260.645 263.261 243.783 204.1 239.349 147.448C238.964 142.348 238.702 137.205 238.591 132.051C237.478 83.6416 247.024 36.2976 285.474 5.70726C318.51 -20.5726 365.123 -26.4082 407.078 -36.4986C448.943 -46.537 492.133 -64.6468 511.661 -103.312C522.432 -124.612 524.084 -149.112 521.843 -173.157C521.164 -180.501 520.13 -187.804 518.894 -194.977C508.764 -253.77 486.526 -310.074 469.444 -367.355C460.989 -395.698 453.801 -424.413 449.964 -453.768C445.08 -491.16 446.808 -529.926 461.158 -564.708C464.723 -573.344 469.287 -582.009 476.049 -588.139C492.234 -602.813 514.139 -601.172 532.091 -614.602C540.279 -620.728 545.894 -628.854 550.988 -636.089C556.128 -643.345 561.117 -650.441 568.842 -655.895C576.486 -661.328 588.064 -664.262 596.876 -660.78" stroke="white" stroke-width="1.33334" stroke-miterlimit="10"/>
<path d="M290.305 704.247C293.064 700.709 295.64 697.067 298.041 693.331C328.723 637.963 337.43 572.172 331.996 507.278C329.726 480.429 325.046 453.746 318.796 427.765C309.915 390.769 298.251 354.422 286.665 317.74C268.58 260.487 251.224 201.474 245.146 144.153C244.611 138.997 244.188 133.787 243.913 128.557C241.245 79.4152 249.061 30.0677 287.098 -1.77367C319.776 -29.1297 366.636 -35.0952 408.967 -44.7384C451.223 -54.3379 495.42 -71.725 515.317 -110.455C526.297 -131.807 527.87 -156.46 525.497 -180.656C524.776 -188.039 523.701 -195.38 522.421 -202.585C511.916 -261.666 489.344 -318.186 472.025 -375.734C463.449 -404.22 456.163 -433.062 452.26 -462.578C447.294 -500.155 448.924 -539.215 463.612 -574.078C466.963 -582.029 471.18 -589.981 477.236 -595.859C491.728 -609.923 511.211 -610.678 527.812 -623.044C535.392 -628.689 540.972 -635.839 546.183 -642.162C551.44 -648.509 556.625 -654.611 564.036 -659.26C571.357 -663.889 581.862 -666.39 590.173 -663.612" stroke="white" stroke-width="1.33334" stroke-miterlimit="10"/>
<path d="M291.046 705.932C294.087 702.043 296.938 698.043 299.603 693.946C331.803 638.683 341.68 572.494 337.331 506.915C335.516 479.797 331.274 452.787 325.399 426.511C317.044 389.085 305.78 352.334 294.349 315.382C276.51 257.716 258.656 198.845 250.938 140.853C250.252 135.637 249.674 130.362 249.227 125.058C245.004 75.183 251.089 23.8273 288.714 -9.26026C321.034 -37.6887 368.141 -43.7878 410.844 -52.9811C453.496 -62.1443 498.694 -78.8063 518.956 -117.603C530.146 -139.007 531.636 -163.813 529.138 -188.154C528.379 -195.575 527.254 -202.954 525.931 -210.19C515.047 -269.559 492.145 -326.295 474.585 -384.11C465.887 -412.737 458.503 -441.708 454.534 -471.381C449.484 -509.14 450.989 -548.508 466.043 -583.442C469.176 -590.709 473.052 -597.946 478.404 -603.569C491.206 -617.018 508.261 -620.169 523.512 -631.47C530.485 -636.635 536.027 -642.806 541.356 -648.22C546.734 -653.653 552.114 -658.763 559.209 -662.614C566.21 -666.443 575.639 -668.508 583.451 -666.434" stroke="white" stroke-width="1.33334" stroke-miterlimit="10"/>
<path d="M291.788 707.621C295.111 703.376 298.236 699.022 301.168 694.566C334.886 639.411 345.934 572.816 342.671 506.552C341.312 479.161 337.511 451.83 332.006 425.257C324.173 387.404 313.316 350.246 302.041 313.025C284.446 254.941 266.097 196.218 256.735 137.557C255.9 132.285 255.163 126.944 254.55 121.56C248.771 70.9522 253.127 17.5929 290.335 -16.7503C322.301 -46.2503 369.651 -52.4802 412.732 -61.23C455.775 -69.958 501.975 -85.8947 522.609 -124.752C534.01 -146.211 535.418 -171.163 532.789 -195.658C531.989 -203.118 530.821 -210.532 529.45 -217.801C518.191 -277.458 494.956 -334.41 477.155 -392.492C468.339 -421.262 460.853 -450.36 456.815 -480.195C451.683 -518.139 453.019 -557.836 468.482 -592.816C471.394 -599.404 474.935 -605.924 479.577 -611.294C490.685 -624.132 505.321 -629.679 519.217 -639.913C525.578 -644.594 531.089 -649.792 536.535 -654.294C542.03 -658.818 547.604 -662.93 554.382 -665.981C561.062 -669.006 569.418 -670.643 576.727 -669.264" stroke="white" stroke-width="1.33334" stroke-miterlimit="10"/>
<path d="M292.529 709.31C296.134 704.713 299.534 700.002 302.73 695.185C337.966 640.136 350.183 573.141 348.006 506.19C347.1 478.524 343.741 450.871 338.609 424.008C331.301 385.724 320.844 348.162 309.725 310.671C292.372 252.169 273.529 193.593 262.523 134.26C261.539 128.933 260.64 123.524 259.863 118.065C252.53 66.7239 255.154 11.3601 291.95 -24.2331C323.56 -54.8092 371.156 -61.169 414.613 -69.4716C458.052 -77.7634 505.253 -92.9748 526.256 -131.897C537.867 -153.409 539.196 -178.513 536.438 -203.154C535.6 -210.652 534.383 -218.107 532.969 -225.408C521.334 -285.348 497.765 -342.52 479.723 -400.866C470.785 -429.776 463.201 -459.004 459.098 -488.996C453.882 -527.122 454.994 -567.178 470.921 -602.178C473.608 -608.088 476.814 -613.887 480.749 -619.003C490.164 -631.227 502.376 -639.173 514.921 -648.338C520.675 -652.539 526.15 -656.761 531.709 -660.352C537.322 -663.967 543.095 -667.085 549.556 -669.335C555.915 -671.559 563.196 -672.761 570.005 -672.086" stroke="white" stroke-width="1.33334" stroke-miterlimit="10"/>
<path d="M293.276 710.996C355.441 631.878 362.593 521.865 345.224 422.756C327.852 323.646 289.077 229.427 268.328 130.962C256.515 74.9194 253.334 9.03686 293.579 -31.7175C324.83 -63.366 372.673 -69.8594 416.502 -77.7121C460.333 -85.5685 508.54 -100.054 529.912 -139.042C545.327 -167.162 542.764 -201.559 536.492 -233.014C518.527 -323.096 473.967 -406.818 461.389 -497.804C456.095 -536.114 456.907 -576.56 473.37 -611.546C489.833 -646.531 524.57 -674.759 563.303 -674.906" stroke="white" stroke-width="1.33334" stroke-miterlimit="10"/>
<path d="M286.205 707.475C346.628 627.546 356.227 518.324 343.129 421.5C330.979 332.559 302.093 248.979 284.088 160.31C282.504 152.506 280.999 144.663 279.592 136.779C273.96 105.099 270.79 70.1103 276.216 38.2183C280.287 14.2858 289.233 -7.87848 305.78 -25.5954C318.362 -39.071 333.71 -48.2725 350.393 -55.0886C373.409 -64.5272 398.965 -69.4287 423.216 -74.7694C465.048 -83.9594 511.065 -99.5259 531.358 -138.661C544.395 -163.809 543.746 -193.748 539.131 -222.222C538.565 -225.711 537.94 -229.175 537.276 -232.611C525.993 -290.794 504.413 -346.583 488.582 -402.618C479.912 -433.363 472.895 -464.075 469.713 -495.637C465.894 -533.14 467.961 -572.702 485.023 -607.085C502.088 -641.468 536.671 -669.43 574.985 -670.538" stroke="white" stroke-width="1.33334" stroke-miterlimit="10"/>
<path d="M279.133 703.954C337.813 623.215 349.861 514.779 341.032 420.248C332.698 333.455 308.973 253.263 294.477 165.839C293.2 158.145 291.989 150.396 290.856 142.596C286.334 111.232 283.926 76.4617 289.422 44.5727C293.537 20.6839 302.153 -1.52859 317.982 -19.4727C330.014 -33.1223 344.651 -42.6724 360.555 -49.9232C382.494 -59.9873 406.84 -65.6978 429.93 -71.8261C469.759 -82.3544 513.591 -99.0011 532.803 -138.281C545.146 -163.522 544.381 -193.372 539.866 -221.814C539.314 -225.299 538.706 -228.764 538.057 -232.199C527.092 -290.393 506.628 -346.452 492.971 -401.977C485.506 -432.461 479.941 -462.563 478.033 -493.463C475.693 -530.157 479.011 -568.832 496.672 -602.613C514.338 -636.397 548.773 -664.092 586.665 -666.153" stroke="white" stroke-width="1.33334" stroke-miterlimit="10"/>
<path d="M272.063 700.429C329.003 618.876 343.496 511.235 338.942 418.99C334.427 334.35 315.861 257.537 304.876 171.366C303.909 163.782 302.988 156.13 302.128 148.411C298.72 117.368 297.071 82.8074 302.637 50.9288C306.796 27.0836 315.085 4.82401 330.191 -13.3483C341.675 -27.1756 355.602 -37.0743 370.725 -44.7561C391.586 -55.4503 414.726 -61.964 436.655 -68.8799C474.483 -80.7465 516.128 -98.4698 534.256 -137.898C545.906 -163.236 545.023 -192.989 540.61 -221.409C540.07 -224.891 539.477 -228.355 538.848 -231.789C528.206 -289.993 508.848 -346.32 497.37 -401.341C491.109 -431.56 486.997 -461.056 486.36 -491.295C485.501 -527.184 490.069 -564.972 508.333 -598.15C526.601 -631.331 560.882 -658.76 598.354 -661.783" stroke="white" stroke-width="1.33334" stroke-miterlimit="10"/>
<path d="M264.991 696.909C320.188 614.545 337.367 507.694 336.844 417.739C336.365 335.245 322.741 261.817 315.267 176.896C314.611 169.423 313.98 161.864 313.395 154.23C311.097 123.502 310.21 89.1562 315.846 57.2843C320.05 33.4828 328.013 11.1723 342.395 -7.22437C353.33 -21.2258 366.565 -31.4364 380.89 -39.5897C400.698 -50.8631 422.603 -58.2319 443.371 -65.9354C479.201 -79.1393 518.656 -97.9439 535.704 -137.516C546.655 -162.948 545.657 -192.613 541.348 -221.005C540.819 -224.484 540.242 -227.948 539.633 -231.38C529.309 -289.595 511.065 -346.188 501.763 -400.705C496.707 -430.66 494.048 -459.55 494.685 -489.123C495.3 -524.205 501.128 -561.107 519.986 -593.681C538.854 -626.263 572.983 -653.421 610.035 -657.401" stroke="white" stroke-width="1.33334" stroke-miterlimit="10"/>
<path d="M257.922 693.384C311.376 610.209 331.056 504.16 334.755 416.48C338.143 336.152 329.628 266.094 325.663 182.422C325.313 175.058 324.977 167.594 324.664 160.044C323.478 129.631 323.349 95.4997 329.058 63.6392C333.305 39.8852 340.938 17.5228 354.601 -1.10103C364.988 -15.2802 377.518 -25.8299 391.058 -34.4237C409.795 -46.3169 430.483 -54.5003 450.09 -62.9914C483.918 -77.5336 521.186 -97.4147 537.154 -137.135C547.412 -162.663 546.297 -192.235 542.089 -220.6C541.571 -224.076 541.013 -227.535 540.421 -230.972C530.416 -289.197 513.286 -346.06 506.159 -400.07C502.311 -429.76 501.173 -458.042 503.012 -486.955C505.194 -521.226 512.185 -557.244 531.643 -589.219C551.114 -621.198 585.088 -648.09 621.725 -653.031" stroke="white" stroke-width="1.33334" stroke-miterlimit="10"/>
<path d="M250.85 689.862C302.562 605.877 324.739 500.64 332.658 415.228C339.905 337.068 336.509 270.374 336.054 187.955C336.014 180.701 335.969 173.334 335.93 165.865C335.855 135.768 336.488 101.851 342.266 70.0012C346.557 46.2909 353.863 23.8813 366.805 5.02555C376.642 -9.32766 388.465 -20.2212 401.222 -29.2545C418.89 -41.7674 438.365 -50.7682 456.805 -60.0441C488.636 -75.9237 523.714 -96.8861 538.601 -136.75C548.165 -162.372 546.934 -191.851 542.827 -220.193C542.324 -223.665 541.778 -227.125 541.206 -230.56C531.519 -288.797 515.503 -345.926 510.551 -399.429C507.907 -428.853 508.233 -456.522 511.336 -484.781C515.009 -518.24 523.24 -553.378 543.296 -584.747C563.37 -616.123 597.189 -642.749 633.406 -648.651" stroke="white" stroke-width="1.33334" stroke-miterlimit="10"/>
<path d="M243.778 686.342C293.748 601.546 318.414 497.123 330.566 413.974C341.671 337.985 343.395 274.652 346.448 193.481C346.715 186.337 346.964 179.064 347.194 171.679C348.23 141.898 349.625 108.195 355.474 76.3522C359.809 52.6856 366.788 30.2289 379.007 11.1449C388.297 -3.38603 399.415 -14.6225 411.386 -24.0925C427.984 -37.2289 446.221 -47.0736 463.521 -57.1079C493.313 -74.3833 526.24 -96.3646 540.045 -136.377C548.911 -162.097 547.567 -191.482 543.561 -219.798C543.069 -223.267 542.539 -226.726 541.987 -230.164C532.618 -288.408 517.714 -345.808 514.941 -398.806C513.502 -427.97 515.291 -455.026 519.653 -482.623C524.815 -515.267 534.288 -549.528 554.947 -580.294C575.621 -611.072 609.289 -637.43 645.084 -644.286" stroke="white" stroke-width="1.33334" stroke-miterlimit="10"/>
<path d="M236.708 682.817C284.936 597.207 312.085 493.603 328.47 412.718C343.423 338.906 350.275 278.931 356.841 199.01C357.418 191.977 357.957 184.797 358.461 177.497C360.61 148.036 362.764 114.547 368.682 82.7105C373.062 59.0876 379.714 36.5837 391.211 17.2716C399.952 2.56287 410.366 -9.01647 421.55 -18.9232C437.08 -32.683 454.095 -43.3435 470.237 -54.1606C498.021 -72.78 528.772 -95.8348 541.492 -135.992C549.664 -161.809 548.204 -191.102 544.298 -219.387C543.818 -222.853 543.307 -226.311 542.771 -229.748C533.721 -288.003 519.931 -345.673 519.333 -398.164C519.099 -427.063 522.351 -453.507 527.977 -480.448C534.629 -512.277 545.342 -545.657 566.599 -575.821C587.876 -605.996 621.39 -632.089 656.769 -639.905" stroke="white" stroke-width="1.33334" stroke-miterlimit="10"/>
<path d="M229.637 679.297C276.123 592.876 306.652 490.327 326.379 411.463C344.349 339.623 357.162 283.209 367.236 204.537C368.123 197.613 368.941 190.528 369.731 183.312C372.933 154.159 375.906 120.892 381.895 89.0623C386.319 65.4831 392.641 42.9273 403.418 23.3918C411.61 8.50904 421.317 -3.41787 431.718 -13.7604C446.18 -28.1473 461.972 -39.616 476.956 -51.2197C502.731 -71.1794 531.303 -95.3088 542.943 -135.614C550.421 -161.524 548.844 -190.724 545.04 -218.986C544.574 -222.448 544.075 -225.903 543.56 -229.343C534.831 -287.608 522.152 -345.544 523.729 -397.529C524.702 -426.163 529.623 -451.939 536.305 -478.28C544.188 -509.362 556.404 -541.796 578.257 -571.359C600.133 -600.936 633.499 -626.757 668.455 -635.535" stroke="white" stroke-width="1.33334" stroke-miterlimit="10"/>
<path d="M222.566 675.772C267.31 588.54 299.4 486.583 324.283 410.208C346.911 340.759 364.044 287.485 377.628 210.066C378.822 203.252 379.93 196.264 380.999 189.126C385.308 160.287 389.044 127.236 395.105 95.4174C399.572 71.8856 405.568 49.279 415.622 29.5153C423.267 14.4548 432.271 2.18122 441.884 -8.5943C455.278 -23.6085 469.846 -35.8853 483.673 -48.2755C507.442 -69.5708 533.832 -94.7832 544.388 -135.233C551.172 -161.24 549.479 -190.347 545.771 -218.583C545.317 -222.043 544.834 -225.498 544.338 -228.936C535.928 -287.212 524.362 -345.414 528.115 -396.896C530.293 -425.265 536.457 -450.483 544.623 -476.114C554.243 -506.315 567.452 -537.935 589.908 -566.894C612.387 -595.868 645.598 -621.423 680.137 -631.157" stroke="white" stroke-width="1.33334" stroke-miterlimit="10"/>
<path d="M215.495 672.25C258.496 584.208 293.04 483.075 322.191 408.953C348.642 341.686 370.929 291.766 388.022 215.592C389.526 208.888 390.925 201.994 392.267 194.94C397.687 166.417 402.185 133.58 408.315 101.772C412.827 78.2839 418.496 55.6301 427.829 35.6345C434.924 20.4 443.222 7.77511 452.051 -3.43242C464.374 -19.0785 477.721 -32.155 490.391 -45.3356C512.15 -67.9674 536.361 -94.2582 545.838 -134.856C551.924 -160.956 550.119 -189.974 546.512 -218.183C546.069 -221.64 545.605 -225.093 545.125 -228.531C537.034 -286.818 526.579 -345.291 532.511 -396.265C535.894 -424.373 543.511 -448.973 552.946 -473.947C564.046 -503.332 578.505 -534.077 601.56 -562.434C624.642 -590.804 657.698 -616.094 691.818 -626.789" stroke="white" stroke-width="1.33334" stroke-miterlimit="10"/>
<path d="M208.428 668.731C249.686 579.878 286.676 479.571 320.098 407.702C350.365 342.615 377.814 296.047 398.418 221.126C400.233 214.534 401.923 207.732 403.537 200.763C410.065 172.551 415.328 139.934 421.529 108.132C426.085 84.6878 431.426 61.9869 440.037 41.7631C446.584 26.3508 454.175 13.3783 462.22 1.73875C473.469 -14.5402 485.597 -28.4155 497.111 -42.3864C516.863 -66.35 538.894 -93.7276 547.29 -134.469C552.682 -160.667 550.759 -189.588 547.254 -217.774C546.824 -221.231 546.375 -224.681 545.915 -228.118C538.142 -286.415 528.697 -345.17 536.908 -395.625C541.442 -423.475 550.568 -447.454 561.276 -471.774C573.857 -500.342 589.566 -530.212 613.218 -557.964C636.901 -585.735 669.806 -610.758 703.505 -622.411" stroke="white" stroke-width="1.33334" stroke-miterlimit="10"/>
<path d="M201.357 665.206C240.871 575.538 280.302 476.056 318.008 406.444C352.083 343.535 384.702 300.321 408.812 226.652C410.933 220.169 412.918 213.462 414.806 206.577C422.445 178.681 428.47 146.278 434.739 114.487C439.34 91.0864 444.351 68.3336 452.242 47.8864C458.24 32.3 465.123 18.9715 472.386 6.90462C482.561 -10.0072 493.476 -24.684 503.828 -39.4425C521.578 -64.7407 541.422 -93.1986 548.739 -134.088C553.437 -160.378 551.398 -189.211 547.994 -217.37C547.578 -220.823 547.142 -224.274 546.702 -227.713C539.248 -286.022 530.919 -345.05 541.303 -394.991C547.042 -422.579 557.619 -445.945 569.602 -469.607C583.657 -497.36 600.622 -526.349 624.874 -553.498C649.159 -580.667 681.909 -605.423 715.191 -618.033" stroke="white" stroke-width="1.33334" stroke-miterlimit="10"/>
<path d="M194.286 661.686C232.057 571.207 273.913 472.542 315.911 405.192C353.783 344.459 391.582 304.605 419.205 232.182C421.637 225.809 423.911 219.2 426.073 212.396C434.828 184.812 441.61 152.627 447.95 120.843C452.594 97.4859 457.279 74.6859 464.447 54.0106C469.893 38.2454 476.071 24.5656 482.552 12.0714C491.654 -5.477 501.353 -20.9479 510.546 -36.4977C526.291 -63.1267 543.952 -92.6723 550.184 -133.707C554.185 -160.095 552.033 -188.834 548.73 -216.966C548.325 -220.416 547.907 -223.862 547.485 -227.305C540.349 -285.621 533.132 -344.927 545.694 -394.356C552.638 -421.684 564.662 -444.433 577.924 -467.436C593.453 -494.377 611.678 -522.485 636.529 -549.032C661.418 -575.601 694.012 -600.088 726.875 -613.659" stroke="white" stroke-width="1.33334" stroke-miterlimit="10"/>
<path d="M187.215 658.164C223.244 566.875 267.521 469.018 313.819 403.937C355.482 345.373 398.468 308.882 429.602 237.712C432.345 231.446 434.913 224.934 437.344 218.215C447.21 190.946 454.753 158.98 461.163 127.202C465.851 103.893 470.209 81.0417 476.655 60.1382C481.552 44.199 487.016 30.1659 492.717 17.2407C500.742 -0.945372 509.229 -17.2092 517.262 -33.5503C531.003 -61.5065 546.48 -92.1399 551.632 -133.322C554.938 -159.803 552.671 -188.453 549.468 -216.555C549.074 -220.002 548.672 -223.447 548.269 -226.889C541.455 -285.215 535.45 -344.762 550.087 -393.714C558.291 -420.762 571.707 -442.914 586.245 -465.262C603.249 -491.393 622.73 -518.619 648.179 -544.561C673.666 -570.528 706.11 -594.748 738.552 -609.276" stroke="white" stroke-width="1.33334" stroke-miterlimit="10"/>
<path d="M180.145 654.639C214.431 562.539 261.121 465.484 311.724 402.681C357.171 346.277 405.35 313.158 439.993 243.237C443.042 237.08 445.904 230.663 448.605 224.027C459.585 197.075 467.883 165.321 474.366 133.555C479.098 110.289 483.126 87.3901 488.854 66.2557C493.202 50.1388 497.954 35.7523 502.877 22.4008C509.819 3.57984 517.104 -13.4788 523.977 -30.6112C535.722 -59.8963 549.006 -91.6193 553.078 -132.945C555.691 -159.523 553.306 -188.077 550.204 -216.156C549.826 -219.599 549.436 -223.045 549.053 -226.485C542.558 -284.822 537.667 -344.638 554.479 -393.084C563.888 -419.871 578.747 -441.412 594.569 -463.099C613.038 -488.417 633.783 -514.761 659.832 -540.104C685.924 -565.472 718.215 -589.421 750.238 -604.91" stroke="white" stroke-width="1.33334" stroke-miterlimit="10"/>
<path d="M173.073 651.119C205.617 558.208 254.714 461.945 309.632 401.427C358.862 347.178 412.235 317.439 450.389 248.768C453.749 242.722 456.902 236.398 459.876 229.846C471.972 203.207 481.027 171.671 487.58 139.911C492.357 116.689 496.057 93.7431 501.062 72.3806C504.863 56.0859 508.901 41.3461 513.047 27.5683C518.905 8.10778 524.989 -9.74097 530.698 -27.6657C540.443 -58.2806 551.539 -91.0887 554.531 -132.562C556.449 -159.233 553.949 -187.698 550.948 -215.75C550.581 -219.19 550.21 -222.635 549.843 -226.075C543.666 -284.423 539.89 -344.505 558.876 -392.444C569.494 -418.966 585.794 -439.899 602.897 -460.922C622.838 -485.434 644.842 -510.892 671.493 -535.628C698.184 -560.394 730.325 -584.08 761.927 -600.527" stroke="white" stroke-width="1.33334" stroke-miterlimit="10"/>
<path d="M166.002 647.594C196.804 553.868 248.304 458.396 307.536 400.171C360.542 348.067 419.117 321.715 460.779 254.292C464.448 248.357 467.907 242.134 471.14 235.659C484.403 209.363 494.164 178.014 500.786 146.265C505.607 123.087 508.981 100.09 513.263 78.5025C516.514 62.0338 519.836 46.9397 523.208 32.7329C527.981 12.6365 532.869 -6.00501 537.41 -24.723C545.16 -56.6705 554.064 -90.5646 555.971 -132.183C557.192 -158.952 554.58 -187.323 551.679 -215.348C551.323 -218.786 550.969 -222.23 550.621 -225.669C544.763 -284.028 542.1 -344.376 563.262 -391.812C575.084 -418.069 592.83 -438.398 611.215 -458.757C632.621 -482.464 655.89 -507.031 683.141 -531.169C710.434 -555.332 742.421 -578.752 773.603 -596.156" stroke="white" stroke-width="1.33334" stroke-miterlimit="10"/>
<path d="M158.932 644.073C187.992 549.538 241.895 454.84 305.445 398.917C362.227 348.951 426.004 325.993 471.177 259.824C475.153 253.998 478.904 247.872 482.412 241.479C496.786 215.498 507.309 184.364 514.001 152.622C518.866 129.491 521.914 106.443 525.473 84.6277C528.176 67.9812 530.779 52.5365 533.379 37.9007C537.066 17.1684 540.755 -2.26696 544.132 -21.7773C549.89 -55.0526 556.598 -90.0374 557.425 -131.8C557.952 -158.666 555.222 -186.941 552.423 -214.942C552.082 -218.376 551.739 -221.817 551.413 -225.262C545.874 -283.632 544.322 -344.251 567.662 -391.179C580.689 -417.171 599.877 -436.898 619.547 -456.591C642.421 -479.493 666.953 -503.174 694.802 -526.706C722.699 -550.269 754.53 -573.419 785.296 -591.784" stroke="white" stroke-width="1.33334" stroke-miterlimit="10"/>
<path d="M151.86 640.552C179.178 545.206 235.483 451.275 303.348 397.665C363.907 349.828 432.88 330.276 481.566 265.352C485.852 259.636 489.895 253.605 493.676 247.296C509.16 221.634 520.445 190.711 527.207 158.979C532.116 135.892 534.833 112.796 537.673 90.7536C539.827 73.9331 541.71 58.1331 543.541 43.0691C546.138 21.7 548.672 1.47066 550.845 -18.8307C554.674 -53.4329 559.126 -89.5047 558.869 -131.416C558.702 -158.375 555.856 -186.561 553.158 -214.536C552.828 -217.966 552.505 -221.406 552.199 -224.85C546.978 -283.231 546.539 -344.116 572.055 -390.537C586.287 -416.268 606.917 -435.392 627.867 -454.414C652.206 -476.514 678.007 -499.303 706.451 -522.234C734.948 -545.195 766.628 -568.078 796.974 -587.404" stroke="white" stroke-width="1.33334" stroke-miterlimit="10"/>
<path d="M144.79 637.027C170.365 540.87 229.073 447.699 301.257 396.406C365.595 350.692 439.767 334.549 491.964 270.879C496.557 265.272 500.894 259.335 504.948 253.111C521.543 227.765 533.589 197.06 540.421 165.335C545.374 142.292 547.764 119.148 549.883 96.8741C551.489 79.8758 552.653 63.729 553.711 48.2323C555.218 26.23 556.555 5.19941 557.567 -15.8895C559.394 -51.8301 561.66 -88.9821 560.323 -131.037C559.458 -158.094 556.5 -186.186 553.903 -214.135C553.584 -217.562 553.276 -221.002 552.99 -224.445C548.091 -282.835 548.763 -343.987 576.454 -389.905C591.895 -415.371 613.963 -433.895 636.198 -452.249C662.003 -473.549 689.068 -495.443 718.115 -517.77C747.215 -540.132 778.741 -562.749 808.669 -583.028" stroke="white" stroke-width="1.33334" stroke-miterlimit="10"/>
<path d="M137.719 633.507C161.553 536.535 222.666 444.119 299.161 395.155C367.276 351.559 446.649 338.83 502.353 276.411C507.256 270.916 511.883 265.075 516.211 258.932C533.917 233.902 546.722 203.411 553.627 171.693C558.625 148.694 560.689 125.499 562.084 103.001C563.141 85.8284 563.584 69.3263 563.873 53.4016C564.285 30.7689 564.433 8.93532 564.28 -12.9422C564.106 -50.221 564.184 -88.4497 561.764 -130.654C560.205 -157.803 557.13 -185.803 554.633 -213.725C554.326 -217.149 554.038 -220.588 553.767 -224.03C549.186 -282.428 550.97 -343.854 580.84 -389.264C597.485 -414.465 620.996 -432.391 644.516 -450.075C671.787 -470.578 700.116 -491.577 729.762 -513.303C759.465 -535.061 790.84 -557.412 820.345 -578.652" stroke="white" stroke-width="1.33334" stroke-miterlimit="10"/>
<path d="M130.651 629.987C152.742 532.205 216.262 440.533 297.072 393.901C368.969 352.416 453.537 343.111 512.753 281.939C517.966 276.554 522.884 270.807 527.486 264.748C546.306 240.034 559.87 209.757 566.844 178.05C571.886 155.094 573.623 131.853 574.296 109.126C574.804 91.776 574.492 74.9293 574.046 58.5695C573.323 35.3077 572.318 12.6688 571.004 -9.99627C568.832 -48.6124 566.72 -87.9223 563.219 -130.27C560.967 -157.517 557.775 -185.424 555.379 -213.318C555.087 -216.739 554.81 -220.175 554.56 -223.619C550.298 -282.028 553.195 -343.721 585.241 -388.627C603.09 -413.564 628.02 -430.932 652.848 -447.902C681.557 -467.655 711.179 -487.712 741.423 -508.832C771.725 -529.988 802.949 -552.071 832.034 -574.273" stroke="white" stroke-width="1.33334" stroke-miterlimit="10"/>
<path d="M123.581 626.462C143.93 527.87 209.801 436.824 294.977 392.646C370.607 353.167 460.419 347.388 523.143 287.468C528.663 282.192 533.874 276.544 538.75 270.566C558.681 246.167 573.006 216.105 580.051 184.405C585.136 161.496 586.543 138.203 586.497 115.249C586.457 97.7248 585.435 80.5258 584.208 63.735C582.406 39.843 580.192 16.4 577.718 -7.05268C573.543 -47.0034 569.245 -87.3936 564.665 -129.889C561.718 -157.229 558.41 -185.047 556.116 -212.915C555.834 -216.332 555.573 -219.768 555.343 -223.211C551.399 -281.631 555.41 -343.59 589.631 -387.989C608.685 -412.665 635.068 -429.424 661.166 -445.732C691.351 -464.677 722.227 -483.846 753.071 -504.368C783.977 -524.925 815.045 -546.738 843.713 -569.897" stroke="white" stroke-width="1.33334" stroke-miterlimit="10"/>
<path d="M116.51 622.941C135.116 523.538 203.435 433.279 292.885 391.395C372.331 354.064 467.305 351.669 533.54 292.998C539.37 287.833 544.873 282.278 550.018 276.38C571.06 252.301 586.148 222.45 593.262 190.76C598.391 167.895 599.471 144.554 598.703 121.372C598.114 103.67 596.377 86.1252 594.375 68.9007C591.493 44.3822 588.075 20.1323 584.436 -4.11274C578.264 -45.4007 571.776 -86.8722 566.115 -129.512C562.471 -156.949 559.05 -184.67 556.857 -212.515C556.587 -215.933 556.345 -219.364 556.132 -222.811C552.507 -281.241 557.633 -343.469 594.028 -387.362C614.291 -411.772 642.122 -427.926 669.495 -443.572C701.16 -461.713 733.29 -479.993 764.733 -499.909C796.237 -519.864 827.154 -541.411 855.403 -565.53" stroke="white" stroke-width="1.33334" stroke-miterlimit="10"/>
<path d="M109.439 619.416C126.303 519.202 197.069 429.734 290.789 390.135C374.051 354.956 474.186 355.945 543.933 298.524C575.169 272.806 597.53 236.546 606.472 197.114C615.599 156.866 610.964 114.847 604.54 74.0663C589.494 -21.4693 564.843 -115.68 557.596 -212.111C552.991 -273.407 557.572 -340.782 598.422 -386.727C619.889 -410.873 649.174 -426.421 677.821 -441.404C744.175 -476.104 811.488 -511.056 867.087 -561.157" stroke="white" stroke-width="1.33334" stroke-miterlimit="10"/>
</g>
<defs>
<clipPath id="clip0_168_10479">
<rect width="1409" height="531" fill="white" transform="translate(0 633.035) rotate(-75.0989)"/>
</clipPath>
</defs>
</svg>
