<svg width="1366" height="2536" viewBox="0 0 1366 2536" fill="none" xmlns="http://www.w3.org/2000/svg">
<g clip-path="url(#clip0_168_10368)">
<path d="M1291.87 -84.92C1300.95 -92.2051 1310.03 -99.4903 1319.11 -106.783C1299.46 15.1725 1309.97 141.905 1349.43 259.056C1389.3 377.422 1457.91 485.505 1488.36 606.615C1518.81 727.732 1499.47 875.316 1396.51 945.917C1246.78 1048.58 1035.48 928.475 862.62 984.243C741.235 1023.4 662.146 1144.69 633.026 1268.76C603.905 1392.84 615.13 1522.26 617.863 1649.71C620.593 1777.16 613.238 1910.08 551.814 2021.74C526.637 2067.51 489.701 2110.61 439.479 2125.16C319.13 2160.03 189.641 2019.24 76.927 2073.88C25.8881 2098.63 0.041725 2155.74 -17.1345 2209.76C-34.3107 2263.78 -48.4277 2321.97 -88.3194 2362.26C-128.211 2402.55 -204.957 2412.69 -237.387 2366.11" stroke="#159D45" stroke-opacity="0.05" stroke-width="1.33334" stroke-miterlimit="10"/>
<path d="M1291.06 -88.7745C1299.39 -95.447 1307.74 -102.112 1316.1 -108.755C1293.31 12.3091 1301.2 139.373 1338.08 257.479C1353.54 306.903 1373.94 354.685 1394.66 402.317C1423.95 469.65 1453.84 536.765 1471.23 608.181C1498.42 719.872 1485.64 852.918 1407.14 930.893C1399.94 938.043 1392.17 944.732 1383.83 950.903C1306.23 1008.34 1210.63 1004.07 1110.37 995.227C1024.2 987.622 935.52 976.001 855.039 1000.68C775.626 1025.01 712.878 1083.07 671.025 1155.95C648.365 1195.39 632.088 1238.95 622.074 1282.86C618.943 1296.56 616.314 1310.33 614.106 1324.15C596.192 1436.35 605.96 1551.98 608.777 1666.12C610.157 1722.15 609.578 1779.2 603.32 1835.1C595.261 1907.11 577.579 1977.2 542.559 2040.28C517.95 2084.61 482.233 2126.47 433.599 2140.81C317.061 2175.15 191.594 2040.43 82.1737 2093.44C32.6174 2117.45 7.27546 2172.53 -9.74355 2224.59C-26.7663 2276.66 -40.851 2332.67 -79.7265 2371.42C-118.591 2410.17 -192.903 2419.89 -224.592 2375" stroke="#159D45" stroke-opacity="0.05" stroke-width="1.33334" stroke-miterlimit="10"/>
<path d="M1290.24 -92.6389C1297.83 -98.7024 1305.45 -104.736 1313.09 -110.744C1287.17 9.43221 1292.43 136.817 1326.74 255.875C1341.12 305.67 1360.46 353.93 1380.27 402.019C1408.27 470.014 1437.14 537.807 1454.09 609.719C1480.6 722.182 1468.92 855.14 1393.56 935.25C1386.64 942.581 1379.18 949.482 1371.15 955.883C1296.49 1015.53 1203.63 1016.22 1103.67 1010.18C1017.78 1004.98 928.528 993.526 847.456 1017.1C767.411 1040.34 702.882 1096.45 660.228 1169.3C637.103 1208.77 620.935 1252.67 611.124 1296.96C608.063 1310.76 605.511 1324.63 603.384 1338.53C586.139 1451.49 596.5 1567.73 599.702 1682.53C601.277 1738.91 600.844 1796.27 594.656 1852.53C586.684 1924.95 568.775 1995.53 533.319 2058.81C509.291 2101.7 474.777 2142.33 427.731 2156.44C314.998 2190.24 193.547 2061.6 87.425 2112.97C39.3624 2136.23 14.5138 2189.29 -2.34439 2239.4C-19.2099 2289.51 -33.2771 2343.36 -71.1365 2380.58C-108.977 2417.79 -180.847 2427.07 -211.804 2383.86" stroke="#159D45" stroke-opacity="0.05" stroke-width="1.33334" stroke-miterlimit="10"/>
<path d="M1289.43 -96.5C1296.27 -101.951 1303.16 -107.357 1310.09 -112.726C1281.04 6.56232 1283.68 134.264 1315.42 254.288C1328.73 304.458 1347 353.197 1365.91 401.732C1392.62 470.393 1420.46 538.856 1436.97 611.264C1462.77 724.491 1452.2 857.358 1379.98 939.591C1373.35 947.104 1366.19 954.22 1358.48 960.855C1286.74 1022.72 1196.62 1028.38 1096.99 1025.13C1011.37 1022.34 921.545 1011.05 839.89 1033.52C759.217 1055.68 692.903 1109.82 649.448 1182.65C625.861 1222.14 609.792 1266.4 600.186 1311.04C597.188 1324.94 594.717 1338.91 592.674 1352.89C576.089 1466.62 587.053 1583.46 590.637 1698.92C592.403 1755.65 592.121 1813.32 585.997 1869.94C578.116 1942.79 559.978 2013.84 524.085 2077.33C500.648 2118.79 467.331 2158.17 421.873 2172.06C312.955 2205.32 195.518 2082.77 92.6933 2132.5C46.1133 2155.02 21.7692 2206.06 5.0682 2254.21C-11.6438 2302.36 -25.6787 2354.04 -62.5293 2389.71C-99.343 2425.39 -168.775 2434.23 -198.995 2392.72" stroke="#159D45" stroke-opacity="0.05" stroke-width="1.33334" stroke-miterlimit="10"/>
<path d="M1288.62 -100.354C1294.72 -105.192 1300.88 -109.971 1307.08 -114.705C1274.91 3.69611 1274.91 131.726 1304.08 252.705C1316.32 303.239 1333.52 352.464 1351.52 401.456C1376.95 470.786 1403.78 539.92 1419.83 612.824C1444.95 726.819 1435.48 859.594 1366.4 943.958C1360.06 951.664 1353.21 958.981 1345.81 965.849C1277.01 1029.94 1189.62 1040.55 1090.3 1040.1C1004.95 1039.71 914.564 1028.59 832.317 1049.96C751.009 1071.03 682.925 1123.22 638.661 1196.02C614.61 1235.53 598.643 1280.13 589.246 1325.15C586.318 1339.15 583.928 1353.22 581.959 1367.29C566.031 1481.79 577.592 1599.22 581.569 1715.35C583.53 1772.43 583.394 1830.41 577.34 1887.39C569.554 1960.66 551.192 2032.19 514.853 2095.89C492.014 2135.92 459.885 2174.04 416.012 2187.71C310.905 2220.44 197.485 2103.97 97.9588 2152.05C52.8614 2173.84 29.0254 2222.84 12.4779 2269.03C-4.08805 2315.23 -18.0943 2364.75 -53.9214 2398.89C-89.719 2433.02 -156.706 2441.44 -186.181 2401.6" stroke="#159D45" stroke-opacity="0.05" stroke-width="1.33334" stroke-miterlimit="10"/>
<path d="M1287.82 -104.215C1293.17 -108.44 1298.59 -112.592 1304.09 -116.688C1268.77 0.822219 1266.16 129.176 1292.75 251.117C1303.92 302.024 1320.06 351.73 1337.15 401.176C1361.3 471.172 1387.1 540.976 1402.71 614.387C1427.13 729.15 1418.76 861.834 1352.83 948.321C1346.78 956.209 1340.23 963.734 1333.14 970.843C1267.27 1037.16 1182.63 1052.72 1083.62 1055.07C998.546 1057.08 907.583 1046.13 824.745 1066.4C742.809 1086.39 672.94 1136.61 627.883 1209.39C603.37 1248.92 587.505 1293.87 578.314 1339.27C575.448 1353.36 573.135 1367.53 571.255 1381.69C555.986 1496.95 568.15 1614.98 572.513 1731.78C574.664 1789.22 574.679 1847.5 568.691 1904.85C560.995 1978.54 542.411 2050.55 505.628 2114.44C483.406 2153.06 452.444 2189.93 410.166 2203.36C308.867 2235.55 199.472 2125.16 103.236 2171.62C59.6323 2192.67 36.2895 2239.64 19.8992 2283.88C3.4905 2328.11 -10.4946 2375.46 -45.3056 2408.06C-80.0797 2440.67 -144.625 2448.64 -173.363 2410.5" stroke="#159D45" stroke-opacity="0.05" stroke-width="1.33334" stroke-miterlimit="10"/>
<path d="M1287 -108.069C1291.61 -111.682 1296.3 -115.206 1301.08 -118.667C1262.63 -2.04447 1257.4 126.63 1281.42 249.527C1291.51 300.804 1306.59 350.99 1322.78 400.885C1345.63 471.55 1370.41 542.021 1385.59 615.932C1409.32 731.462 1402.05 864.056 1339.26 952.673C1333.49 960.743 1327.24 968.483 1320.48 975.819C1257.54 1044.35 1175.63 1064.87 1076.95 1070.02C992.148 1074.44 900.612 1063.64 817.19 1082.82C734.623 1101.71 662.972 1149.98 617.114 1222.74C592.14 1262.28 576.374 1307.59 567.388 1353.35C564.592 1367.54 562.353 1381.81 560.553 1396.06C545.951 1512.09 558.711 1630.72 563.456 1748.17C565.802 1805.95 565.964 1864.55 560.051 1922.26C552.451 1996.37 533.651 2068.86 496.42 2132.97C474.812 2170.16 445.024 2205.77 404.335 2218.99C306.847 2250.64 201.468 2146.34 108.531 2191.15C66.4096 2211.46 43.5712 2256.41 27.3455 2298.69C11.0903 2340.97 -2.86627 2386.15 -36.6685 2417.21C-70.4154 2448.27 -132.527 2455.83 -160.524 2419.37" stroke="#159D45" stroke-opacity="0.05" stroke-width="1.33334" stroke-miterlimit="10"/>
<path d="M1286.19 -111.933C1290.04 -114.93 1294.01 -117.837 1298.08 -120.652C1256.5 -4.91747 1248.64 124.085 1270.08 247.933C1279.1 299.575 1293.12 350.25 1308.39 400.598C1329.97 471.929 1353.72 543.074 1368.45 617.481C1391.49 733.772 1385.51 866.404 1325.67 957.018C1320.21 965.289 1314.25 973.222 1307.79 980.787C1247.78 1051.53 1168.62 1077.01 1070.25 1084.96C985.716 1091.78 893.615 1081.16 809.602 1099.23C726.406 1117.04 652.972 1163.35 606.312 1236.08C580.873 1275.65 565.209 1321.3 556.433 1367.43C553.699 1381.73 551.545 1396.1 549.826 1410.43C535.885 1527.22 549.246 1646.45 554.377 1764.57C556.906 1822.7 557.226 1881.61 551.382 1939.68C543.866 2014.21 524.868 2087.18 487.176 2151.49C466.207 2187.27 437.563 2221.62 398.462 2234.61C304.786 2265.73 203.424 2167.5 113.785 2210.67C73.1461 2230.24 50.8123 2273.17 34.7438 2313.48C18.642 2353.81 4.71043 2396.82 -28.0683 2426.34C-60.7916 2455.87 -120.461 2462.99 -147.718 2428.21" stroke="#159D45" stroke-opacity="0.05" stroke-width="1.33334" stroke-miterlimit="10"/>
<path d="M1285.38 -115.795C1288.49 -118.179 1291.73 -120.459 1295.08 -122.638C1250.37 -7.79886 1239.88 121.531 1258.75 246.342C1266.7 298.359 1279.64 349.509 1294.01 400.314C1314.3 472.315 1337.03 544.127 1351.32 619.029C1373.67 736.088 1368.8 868.629 1312.09 961.373C1306.91 969.826 1301.25 977.974 1295.11 985.774C1238.03 1058.74 1161.6 1089.18 1063.56 1099.92C979.303 1109.15 886.626 1098.69 802.026 1115.66C718.195 1132.38 642.99 1176.74 595.522 1249.44C569.621 1289.02 554.056 1335.03 545.486 1381.52C542.822 1395.91 540.741 1410.38 539.107 1424.8C525.825 1542.35 539.789 1662.19 545.305 1780.97C548.029 1839.45 548.496 1898.67 542.718 1957.11C535.296 2032.05 516.09 2105.51 477.935 2170.02C457.602 2204.4 430.103 2237.47 392.601 2250.23C302.733 2280.81 205.385 2188.67 119.043 2230.21C79.8942 2249.04 58.05 2289.93 42.1461 2328.29C26.2015 2366.65 12.2985 2407.5 -19.4752 2435.49C-51.1713 2463.48 -108.403 2470.16 -134.922 2437.07" stroke="#159D45" stroke-opacity="0.05" stroke-width="1.33334" stroke-miterlimit="10"/>
<path d="M1284.57 -119.649C1286.93 -121.42 1289.44 -123.072 1292.08 -124.614C1244.24 -10.6617 1231.13 118.989 1247.42 244.755C1254.3 297.136 1266.18 348.775 1279.64 400.023C1298.64 472.689 1320.35 545.175 1334.2 620.574C1355.84 738.397 1352.1 870.851 1298.52 965.718C1293.64 974.356 1288.28 982.712 1282.46 990.746C1228.31 1065.93 1154.62 1101.33 1056.89 1114.87C972.906 1126.5 879.648 1116.21 794.472 1132.08C710.012 1147.72 633.023 1190.11 584.758 1262.78C558.392 1302.38 542.936 1348.74 534.568 1395.61C531.966 1410.1 529.966 1424.65 528.413 1439.17C515.797 1557.5 530.361 1677.92 536.26 1797.37C539.175 1856.21 539.791 1915.74 534.082 1974.53C526.751 2049.9 507.349 2123.85 468.725 2188.55C449.038 2221.52 422.676 2253.32 386.758 2265.87C300.702 2295.91 207.374 2209.84 124.327 2249.74C86.6646 2267.83 65.3249 2306.7 49.5744 2343.1C33.7833 2379.51 19.9016 2418.18 -10.8523 2444.63C-41.5249 2471.09 -96.3188 2477.34 -122.098 2445.94" stroke="#159D45" stroke-opacity="0.05" stroke-width="1.33334" stroke-miterlimit="10"/>
<path d="M1283.76 -123.51C1285.38 -124.669 1287.16 -125.694 1289.07 -126.6C1238.09 -13.5392 1222.38 116.436 1236.09 243.164C1241.89 295.917 1252.71 348.035 1265.26 399.74C1282.98 473.075 1303.66 546.228 1317.07 622.126C1338.02 740.717 1335.39 873.076 1284.94 970.078C1280.35 978.898 1275.29 987.462 1269.78 995.736C1218.57 1073.14 1147.62 1113.5 1050.2 1129.83C966.486 1143.86 872.663 1133.74 786.892 1148.51C701.801 1163.06 623.03 1203.5 573.964 1276.14C547.136 1315.76 531.784 1362.47 523.624 1409.71C521.093 1424.29 519.17 1438.96 517.698 1453.55C505.74 1572.65 520.901 1693.67 527.189 1813.78C530.298 1872.96 531.061 1932.81 525.418 1991.96C518.182 2067.75 498.593 2142.19 459.485 2207.08C440.456 2238.66 415.224 2269.18 380.898 2281.5C298.656 2311 209.342 2231.02 129.593 2269.28C93.413 2286.63 72.5777 2323.47 56.9844 2357.91C41.3395 2392.36 27.4973 2428.87 -2.24412 2453.79C-31.8896 2478.7 -84.2455 2484.52 -109.291 2454.8" stroke="#159D45" stroke-opacity="0.05" stroke-width="1.33334" stroke-miterlimit="10"/>
<path d="M1282.95 -127.364C1283.82 -127.909 1284.87 -128.307 1286.07 -128.578C1231.96 -16.405 1213.61 113.898 1224.75 241.581C1229.48 294.706 1239.24 347.306 1250.88 399.464C1267.31 473.465 1286.97 547.292 1299.94 623.687C1320.2 743.045 1318.68 875.309 1271.36 974.434C1267.05 983.436 1262.29 992.215 1257.11 1000.72C1208.82 1080.33 1140.61 1125.65 1043.51 1144.79C960.077 1161.22 865.678 1151.26 779.319 1164.93C693.6 1178.39 613.045 1216.87 563.178 1289.49C535.888 1329.13 520.634 1376.19 512.677 1423.8C510.208 1438.48 508.366 1453.24 506.978 1467.92C495.683 1587.77 511.443 1709.4 518.117 1830.18C521.421 1889.71 522.331 1949.87 516.757 2009.38C509.604 2085.59 489.844 2160.52 450.248 2225.61C431.884 2255.79 407.774 2285.02 375.029 2297.12C296.592 2326.09 211.302 2252.2 134.851 2288.81C100.161 2305.43 79.8227 2340.23 64.394 2372.72C48.9063 2405.21 35.0816 2439.56 6.36005 2462.93C-22.2619 2486.31 -72.1762 2491.69 -96.4846 2463.66" stroke="#159D45" stroke-opacity="0.05" stroke-width="1.33334" stroke-miterlimit="10"/>
<path d="M1282.13 -131.229C1282.26 -131.165 1282.57 -130.935 1283.06 -130.557C1225.82 -19.2716 1204.85 111.352 1213.41 239.994C1217.07 293.486 1225.76 346.569 1236.49 399.177C1251.64 473.847 1270.28 548.341 1282.8 625.235C1302.38 745.354 1301.96 877.519 1257.77 978.789C1253.76 987.985 1249.3 996.964 1244.42 1005.7C1199.07 1087.55 1133.6 1137.81 1036.82 1159.75C953.653 1178.59 858.681 1168.8 771.739 1181.36C685.384 1193.74 603.059 1230.26 552.383 1302.85C524.629 1342.51 509.477 1389.92 501.729 1437.9C499.33 1452.69 497.565 1467.55 496.255 1482.32C485.618 1602.94 501.982 1725.17 509.041 1846.61C512.536 1906.5 513.597 1966.96 508.088 2026.84C501.03 2103.46 481.099 2178.89 441 2244.17C423.308 2272.97 400.31 2300.91 369.16 2312.79C294.534 2341.22 213.262 2273.41 140.108 2308.38C106.901 2324.26 87.0674 2357.04 71.7959 2387.56C56.4616 2418.1 42.6619 2450.27 14.9527 2472.11C-12.6457 2493.96 -60.1222 2498.91 -83.6898 2472.57" stroke="#159D45" stroke-opacity="0.05" stroke-width="1.33334" stroke-miterlimit="10"/>
<path d="M1281.33 -135.089C1280.71 -134.413 1280.28 -133.556 1280.06 -132.543C1219.68 -22.1449 1196.09 108.799 1202.08 238.396C1204.67 292.26 1212.3 345.825 1222.12 398.886C1235.98 474.222 1253.6 549.39 1265.67 626.777C1284.55 747.663 1285.24 879.73 1244.2 983.131C1240.47 992.508 1236.32 1001.7 1231.76 1010.67C1189.34 1094.73 1126.61 1149.96 1030.15 1174.69C947.26 1195.94 851.715 1186.31 764.178 1197.78C677.195 1209.07 593.086 1243.64 541.609 1316.2C513.393 1355.87 498.34 1403.64 490.797 1451.98C488.461 1466.86 486.777 1481.82 485.551 1496.68C475.58 1618.07 492.541 1740.89 499.978 1862.99C503.661 1923.23 504.868 1984 499.435 2044.25C492.469 2121.3 472.385 2197.23 431.772 2262.69C414.771 2290.09 392.869 2316.74 363.304 2328.39C292.494 2356.28 215.227 2294.55 145.379 2327.89C113.658 2343.02 94.3249 2373.78 79.2106 2402.35C64.0298 2430.93 50.2587 2460.93 23.5656 2481.24C-3.01299 2501.54 -48.0442 2506.06 -70.8711 2481.41" stroke="#159D45" stroke-opacity="0.05" stroke-width="1.33334" stroke-miterlimit="10"/>
<path d="M1280.51 -138.943C1279.15 -137.655 1278 -136.177 1277.06 -134.518C1213.54 -25.0114 1187.34 106.265 1190.75 236.817C1192.26 291.052 1198.83 345.095 1207.74 398.614C1220.32 474.619 1236.91 550.454 1248.55 628.34C1266.74 749.994 1268.53 881.963 1230.62 987.501C1227.19 997.06 1223.33 1006.46 1219.1 1015.66C1179.6 1101.94 1119.61 1162.13 1023.46 1189.66C940.843 1213.31 844.729 1203.85 756.612 1214.22C669.005 1224.42 583.107 1257.03 530.837 1329.57C502.155 1369.27 487.208 1417.37 479.871 1466.1C477.604 1481.08 475.994 1496.13 474.85 1511.08C465.537 1633.24 483.101 1756.66 490.928 1879.42C494.801 1940.01 496.159 2001.1 490.796 2061.7C483.92 2139.17 463.69 2215.61 422.557 2281.24C406.243 2307.27 385.438 2332.62 357.464 2344.05C290.458 2371.41 217.22 2315.75 150.658 2347.45C120.428 2361.85 101.595 2390.57 86.6343 2417.18C71.6107 2443.8 57.8608 2471.64 32.1839 2490.41C6.62879 2509.18 -35.9608 2513.26 -58.0507 2490.29" stroke="#159D45" stroke-opacity="0.05" stroke-width="1.33334" stroke-miterlimit="10"/>
<path d="M1279.7 -142.804C1277.6 -140.903 1275.71 -138.798 1274.06 -136.504C1207.41 -27.8849 1178.58 103.712 1179.42 235.226C1179.86 289.826 1185.36 344.358 1193.36 398.323C1204.66 474.994 1220.23 551.503 1231.42 629.885C1248.92 752.307 1251.81 884.174 1217.05 991.842C1213.9 1001.58 1210.35 1011.2 1206.42 1020.64C1169.86 1109.13 1112.61 1174.28 1016.77 1204.61C934.427 1230.66 837.74 1221.37 749.032 1230.64C660.789 1239.75 573.114 1270.4 520.043 1342.91C490.899 1382.63 476.051 1431.09 468.927 1480.18C466.723 1495.26 465.197 1510.42 464.134 1525.45C455.48 1648.37 473.64 1772.39 481.86 1895.82C485.928 1956.76 487.432 2018.15 482.134 2079.12C475.353 2157.01 454.989 2233.98 413.32 2299.77C397.708 2324.42 377.988 2348.47 351.599 2359.67C288.408 2386.49 219.183 2336.92 155.92 2366.98C127.172 2380.64 108.843 2407.34 94.0472 2431.98C79.1771 2456.65 65.4559 2482.32 40.7951 2499.56C16.2673 2516.79 -23.8883 2520.44 -45.2374 2499.16" stroke="#159D45" stroke-opacity="0.05" stroke-width="1.33334" stroke-miterlimit="10"/>
<path d="M1278.89 -146.658C1276.04 -144.137 1273.43 -141.412 1271.06 -138.479C1201.28 -30.7549 1169.83 101.17 1168.09 233.64C1167.47 288.614 1171.89 343.629 1178.99 398.043C1189 475.384 1203.55 552.56 1214.31 631.441C1231.1 754.627 1235.09 886.392 1203.48 996.206C1200.62 1006.13 1197.37 1015.96 1193.76 1025.62C1160.13 1116.34 1105.61 1186.44 1010.1 1219.57C928.033 1248.03 830.77 1238.91 741.471 1247.07C652.6 1255.1 563.147 1283.79 509.271 1356.27C479.667 1396.01 464.924 1444.82 457.995 1494.28C455.857 1509.46 454.409 1524.7 453.43 1539.83C445.445 1663.51 464.198 1788.13 472.796 1912.23C477.055 1973.52 478.71 2035.22 473.481 2096.54C466.784 2174.86 446.311 2252.35 404.091 2318.3C389.188 2341.58 370.54 2364.31 345.746 2375.3C286.367 2401.59 221.159 2358.1 161.193 2386.52C133.928 2399.44 116.104 2424.11 101.465 2446.8C86.7409 2469.51 73.0519 2493.01 49.4072 2508.71C25.9029 2524.4 -11.8111 2527.61 -32.4195 2508.02" stroke="#159D45" stroke-opacity="0.05" stroke-width="1.33334" stroke-miterlimit="10"/>
<path d="M1278.08 -150.523C1274.47 -147.393 1271.13 -144.036 1268.05 -140.469C1195.14 -33.6324 1161.06 98.6127 1156.75 232.041C1155.04 287.387 1158.41 342.885 1164.6 397.752C1173.32 475.755 1186.85 553.608 1197.16 632.993C1213.27 756.94 1218.35 888.609 1189.88 1000.57C1187.31 1010.68 1184.37 1020.71 1181.07 1030.61C1150.36 1123.54 1098.59 1198.61 1003.39 1234.53C921.591 1265.4 823.767 1256.43 733.884 1263.5C644.378 1270.45 553.148 1297.18 498.471 1369.63C468.401 1409.39 453.761 1458.55 447.041 1508.38C444.965 1523.66 443.601 1539.01 442.7 1554.22C435.374 1678.67 454.731 1803.89 463.718 1928.64C468.172 1990.28 469.973 2052.3 464.81 2113.99C458.207 2192.72 437.637 2270.75 394.852 2336.85C380.665 2358.77 363.084 2380.19 339.878 2390.95C284.303 2416.69 223.119 2379.29 166.452 2406.07C140.68 2418.25 123.35 2440.9 108.868 2461.62C94.3011 2482.37 80.6408 2503.71 58.0011 2517.87C35.5239 2532.02 0.247935 2534.81 -19.6235 2516.9" stroke="#159D45" stroke-opacity="0.05" stroke-width="1.33334" stroke-miterlimit="10"/>
<path d="M1277.27 -154.384C1272.92 -150.642 1268.85 -146.658 1265.05 -142.451C1189.01 -36.5062 1152.31 96.0706 1145.42 230.454C1142.64 286.165 1144.95 342.148 1150.23 397.472C1157.67 476.148 1170.17 554.664 1180.03 634.545C1195.45 759.26 1201.39 890.774 1176.31 1004.92C1174 1015.2 1171.38 1025.46 1168.41 1035.59C1140.63 1130.74 1091.6 1210.77 996.714 1249.49C915.193 1282.75 816.792 1273.96 726.317 1279.93C636.187 1285.78 543.168 1310.56 487.69 1382.98C457.159 1422.76 442.617 1472.27 436.103 1522.47C434.097 1537.85 432.807 1553.29 431.99 1568.58C425.323 1693.8 445.283 1819.62 454.657 1945.04C459.294 2007.03 461.253 2069.36 456.159 2131.41C449.647 2210.56 429.001 2289.15 385.625 2355.37C372.151 2375.93 355.645 2396.03 334.031 2406.57C282.271 2431.77 225.097 2400.45 171.731 2425.59C147.442 2437.03 130.62 2457.65 116.291 2476.42C101.878 2495.22 88.2389 2514.38 66.6265 2527.01C45.1728 2539.62 12.3346 2541.98 -6.79967 2525.75" stroke="#159D45" stroke-opacity="0.05" stroke-width="1.33334" stroke-miterlimit="10"/>
<path d="M1276.46 -158.239C1271.36 -153.883 1266.56 -149.272 1262.04 -144.43C1182.87 -39.3729 1143.55 93.5244 1134.09 228.863C1130.24 284.945 1131.48 341.41 1135.85 397.181C1142 476.519 1153.49 555.713 1162.91 636.09C1177.63 761.572 1184.67 892.996 1162.73 1009.27C1160.71 1019.75 1158.39 1030.2 1155.73 1040.57C1130.88 1137.95 1084.59 1222.92 990.027 1264.44C908.783 1300.11 809.805 1291.49 718.74 1296.35C627.974 1301.12 533.178 1323.94 476.899 1396.34C445.91 1436.14 431.467 1485.99 425.159 1536.57C423.215 1552.04 422.006 1567.58 421.273 1582.96C415.265 1708.95 435.829 1835.37 445.58 1961.45C450.412 2023.79 452.518 2086.43 447.489 2148.84C441.072 2228.41 420.377 2307.57 376.38 2373.91C363.638 2393.11 348.183 2411.9 328.154 2422.21C280.206 2446.88 227.049 2421.64 176.981 2445.14C154.174 2455.84 137.856 2474.43 123.682 2491.25C109.422 2508.09 95.8075 2525.08 75.2075 2536.17C54.7774 2547.26 24.3808 2549.17 5.98352 2534.64" stroke="#159D45" stroke-opacity="0.05" stroke-width="1.33334" stroke-miterlimit="10"/>
<path d="M1275.65 -162.1C1269.81 -157.132 1264.28 -151.9 1259.04 -146.417C1176.73 -42.2467 1134.79 90.9713 1122.75 227.273C1117.83 283.719 1118.01 340.67 1121.47 396.894C1126.33 476.904 1136.79 556.762 1145.77 637.638C1159.8 763.888 1167.95 895.221 1149.15 1013.61C1147.42 1024.28 1145.41 1034.94 1143.05 1045.54C1121.14 1145.14 1077.59 1235.06 983.338 1279.39C902.36 1317.46 802.817 1309 711.172 1312.76C619.778 1316.45 523.205 1337.31 466.117 1409.68C434.666 1449.5 420.322 1499.7 414.219 1550.64C412.346 1566.21 411.214 1581.86 410.558 1597.33C405.22 1724.07 426.376 1851.1 436.513 1977.84C441.536 2040.54 443.793 2103.48 438.832 2166.26C432.507 2246.25 411.802 2326 367.148 2392.43C355.14 2410.28 340.739 2427.74 322.301 2437.82C278.16 2461.95 229.024 2442.8 182.247 2464.66C160.927 2474.61 145.102 2491.18 131.099 2506.04C116.997 2520.92 103.407 2535.76 83.8199 2545.3C64.4169 2554.85 36.4508 2556.32 18.7979 2543.48" stroke="#159D45" stroke-opacity="0.05" stroke-width="1.33334" stroke-miterlimit="10"/>
<path d="M1274.84 -165.954C1268.26 -160.373 1261.99 -154.514 1256.04 -148.392C1170.6 -45.1096 1126.03 88.4363 1111.42 225.689C1105.43 282.51 1104.54 339.94 1107.08 396.617C1110.66 477.29 1120.11 557.825 1128.64 639.198C1141.98 766.216 1151.22 897.457 1135.57 1017.98C1134.13 1028.82 1132.41 1039.7 1130.38 1050.54C1111.4 1152.35 1070.58 1247.24 976.651 1294.36C895.95 1334.83 795.834 1326.54 703.594 1329.21C611.565 1331.81 513.21 1350.71 455.326 1423.05C423.41 1462.89 409.168 1513.45 403.274 1564.76C401.463 1580.43 400.412 1596.17 399.842 1611.73C395.161 1739.24 416.914 1866.86 427.448 1994.27C432.665 2057.31 435.069 2120.57 430.178 2183.7C423.939 2264.11 403.259 2344.49 357.917 2410.97C346.656 2427.48 333.292 2443.61 316.443 2453.47C276.114 2477.06 230.994 2463.99 187.515 2484.2C167.685 2493.42 152.357 2507.96 138.512 2520.86C124.563 2533.79 110.998 2546.45 92.4305 2554.47C74.0436 2562.47 48.5227 2563.52 31.6142 2552.36" stroke="#159D45" stroke-opacity="0.05" stroke-width="1.33334" stroke-miterlimit="10"/>
<path d="M1274.02 -169.819C1266.69 -163.629 1259.7 -157.139 1253.03 -150.374C1164.45 -47.9831 1117.27 85.887 1100.07 224.102C1093.01 281.295 1091.06 339.203 1092.7 396.33C1095 477.669 1103.41 558.875 1111.51 640.747C1124.15 768.532 1134.5 899.682 1121.99 1022.33C1120.84 1033.35 1119.43 1044.45 1117.7 1055.51C1101.65 1159.54 1063.58 1259.39 969.962 1309.3C889.534 1352.19 788.846 1344.06 696.015 1345.63C603.361 1347.13 503.218 1364.08 444.532 1436.4C412.155 1476.26 398.011 1527.16 392.327 1578.85C390.586 1594.62 389.605 1610.46 389.112 1626.1C385.09 1754.38 407.446 1882.6 418.358 2010.67C423.767 2074.06 426.321 2137.63 421.495 2201.13C415.347 2281.96 394.742 2363 348.659 2429.51C338.148 2444.68 325.821 2459.46 310.56 2469.1C274.042 2492.16 232.94 2485.18 192.755 2503.76C174.407 2512.24 159.584 2524.75 145.896 2535.69C132.1 2546.66 118.565 2557.15 101.009 2563.62C83.6496 2570.09 60.5666 2570.71 44.3952 2561.24" stroke="#159D45" stroke-opacity="0.05" stroke-width="1.33334" stroke-miterlimit="10"/>
<path d="M1273.21 -173.672C1265.14 -166.869 1257.41 -159.752 1250.03 -152.349C1158.32 -50.8452 1108.52 83.3456 1088.75 222.516C1080.61 280.073 1077.6 338.471 1078.33 396.051C1079.34 478.059 1086.73 559.935 1094.39 642.303C1106.34 770.846 1117.79 901.916 1108.41 1026.69C1107.55 1037.91 1106.44 1049.2 1105.04 1060.5C1091.93 1166.75 1056.59 1271.56 963.285 1324.26C883.134 1369.55 781.869 1361.59 688.458 1362.05C595.169 1362.47 493.249 1377.47 433.769 1449.76C400.93 1489.63 386.893 1540.9 381.407 1592.94C379.728 1608.81 378.835 1624.75 378.419 1640.47C375.063 1769.52 398.016 1898.34 409.314 2027.08C414.917 2090.82 417.617 2154.7 412.861 2218.55C406.808 2299.8 386.33 2381.54 339.45 2448.04C329.695 2461.87 318.399 2475.31 304.722 2484.73C272.013 2507.24 234.935 2506.34 198.044 2523.28C181.179 2531.03 166.864 2541.5 153.329 2550.49C139.683 2559.5 126.176 2567.83 109.633 2572.77C93.2971 2577.7 72.6557 2577.88 57.2213 2570.1" stroke="#159D45" stroke-opacity="0.05" stroke-width="1.33334" stroke-miterlimit="10"/>
<path d="M1272.4 -177.533C1263.58 -170.11 1255.12 -162.373 1247.03 -154.335C1152.19 -53.7262 1099.75 80.7998 1077.42 220.925C1068.2 278.854 1064.13 337.73 1063.95 395.768C1063.68 478.441 1070.04 560.988 1077.25 643.852C1088.51 773.162 1101.06 904.141 1094.83 1031.04C1094.26 1042.44 1093.45 1053.94 1092.36 1065.48C1082.18 1173.94 1049.57 1283.71 956.594 1339.23C876.713 1386.91 774.883 1379.12 680.877 1378.49C586.96 1377.82 483.263 1390.86 422.978 1463.11C389.674 1503.01 375.743 1554.62 370.463 1607.04C368.853 1623.01 368.034 1639.04 367.703 1654.86C365.006 1784.67 388.562 1914.09 400.245 2043.49C406.032 2107.58 408.89 2171.78 404.206 2236C398.245 2317.67 377.975 2400.17 330.22 2466.58C321.226 2479.09 310.945 2491.18 298.868 2500.38C269.97 2522.36 236.902 2527.54 203.316 2542.84C187.945 2549.84 174.123 2558.3 160.746 2565.33C147.253 2572.38 133.778 2578.53 118.252 2581.94C102.943 2585.33 84.7354 2585.08 70.0455 2578.98" stroke="#159D45" stroke-opacity="0.05" stroke-width="1.33334" stroke-miterlimit="10"/>
<path d="M1271.59 -181.394C1262.03 -173.359 1252.84 -164.994 1244.03 -156.317C1146.06 -56.5963 1091.01 78.2503 1066.09 219.338C1055.81 277.642 1050.67 336.997 1049.58 395.48C1048.02 478.823 1053.37 562.04 1060.14 645.401C1070.7 775.478 1084.35 906.366 1081.27 1035.39C1080.98 1046.98 1080.48 1058.69 1079.7 1070.46C1072.45 1181.14 1042.59 1295.87 949.919 1354.18C870.311 1404.27 767.909 1396.65 673.311 1394.91C578.759 1393.16 473.284 1404.24 412.199 1476.46C378.433 1516.38 364.6 1568.34 359.526 1621.13C357.979 1637.19 357.245 1653.33 356.99 1669.23C354.955 1799.8 379.112 1929.83 391.185 2059.89C397.166 2124.33 400.171 2188.84 395.556 2253.42C389.689 2335.51 369.731 2418.86 320.994 2485.11C312.768 2496.29 303.507 2507.02 293.021 2516C267.938 2537.44 238.884 2548.7 208.596 2562.37C194.707 2568.63 181.39 2575.06 168.177 2580.13C154.838 2585.23 141.384 2589.21 126.874 2591.08C112.588 2592.94 96.8228 2592.25 82.8698 2587.84" stroke="#159D45" stroke-opacity="0.05" stroke-width="1.33334" stroke-miterlimit="10"/>
<path d="M1270.77 -185.252C1105.86 -47.0005 1042.46 180.114 1035.19 395.19C1027.92 610.269 1067.59 824.527 1067.67 1039.74C1067.72 1162.24 1045.38 1301.53 943.218 1369.13C863.887 1421.62 760.908 1414.17 665.731 1411.33C570.55 1408.49 463.291 1417.61 401.405 1489.81C356.767 1541.88 346.992 1615.01 346.271 1683.6C344.213 1880.04 400.613 2074.88 386.884 2270.84C381.1 2353.35 361.597 2437.65 311.746 2503.64C261.895 2569.62 176.776 2613.42 95.6539 2596.69" stroke="#159D45" stroke-opacity="0.05" stroke-width="1.33334" stroke-miterlimit="10"/>
<path d="M1284.02 -174.772C1122.4 -34.058 1054.23 190.325 1039.02 398.739C1025.3 590.239 1048.96 777.877 1047.61 971.382C1047.49 988.413 1047.18 1005.49 1046.66 1022.61C1044.5 1091.39 1035.73 1166.02 1010.34 1230.39C991.286 1278.69 962.806 1321.14 920.38 1350.94C888.12 1373.62 851.951 1386.12 814.038 1393.05C761.719 1402.68 706.079 1401.7 652.978 1402.21C561.393 1403.05 458.241 1415.39 398.549 1488.38C360.195 1535.28 348.375 1598.22 345.501 1659.85C345.15 1667.4 344.932 1674.93 344.81 1682.41C342.812 1809.15 363.413 1935.41 371.878 2059.66C376.489 2127.82 377.655 2195.19 370.421 2262.65C361.906 2342.82 340.165 2424.71 289.325 2489.17C238.478 2553.63 153.8 2596.95 73.133 2582.41" stroke="#159D45" stroke-opacity="0.05" stroke-width="1.33334" stroke-miterlimit="10"/>
<path d="M1297.27 -164.292C1138.93 -21.1147 1065.99 200.544 1042.86 402.282C1022.09 587.608 1036.44 765.886 1028.3 955.241C1027.58 971.908 1026.71 988.659 1025.65 1005.48C1021.3 1073.12 1011.04 1146.95 985.498 1211.28C966.371 1259.47 938.563 1302.17 897.541 1332.76C866.353 1356.04 831.518 1369.59 795.044 1377.77C744.702 1389.19 691.241 1390.43 640.224 1393.1C552.238 1397.62 453.185 1413.18 395.691 1486.94C358.751 1534.34 347.211 1597.16 344.141 1658.67C343.761 1666.21 343.51 1673.73 343.354 1681.21C340.685 1807.83 358.835 1934.16 362.975 2056.38C365.179 2123.47 363.574 2188.92 353.965 2254.44C342.71 2332.27 318.742 2411.75 266.914 2474.69C215.075 2537.63 130.823 2580.45 50.618 2568.1" stroke="#159D45" stroke-opacity="0.05" stroke-width="1.33334" stroke-miterlimit="10"/>
<path d="M1310.52 -153.807C1155.46 -8.15873 1077.75 210.762 1046.68 405.834C1018.87 584.974 1023.91 753.91 1008.97 939.099C1007.66 955.398 1006.21 971.818 1004.62 988.352C998.082 1054.83 986.321 1127.89 960.641 1192.16C941.441 1240.24 914.297 1283.18 874.687 1314.57C844.568 1338.46 811.066 1353.06 776.036 1362.48C727.674 1375.69 676.381 1379.15 627.447 1383.98C543.061 1392.17 448.111 1410.95 392.819 1485.5C357.287 1533.41 346.036 1596.07 342.763 1657.5C342.361 1665.02 342.076 1672.53 341.881 1680C338.532 1806.5 354.249 1932.91 354.05 2053.12C353.85 2119.12 349.471 2182.66 337.494 2246.23C323.495 2321.73 297.301 2398.81 244.477 2460.22C191.642 2521.63 107.831 2563.96 28.081 2553.81" stroke="#159D45" stroke-opacity="0.05" stroke-width="1.33334" stroke-miterlimit="10"/>
<path d="M1323.77 -143.325C1172 4.78548 1089.02 220.869 1050.52 409.378C1015.21 582.249 1011.4 741.927 989.656 922.955C987.741 938.887 985.733 954.984 983.599 971.22C974.88 1036.55 961.618 1108.82 935.795 1173.05C916.521 1221.02 890.037 1264.21 851.842 1296.39C822.796 1320.89 790.605 1336.44 757.037 1347.2C710.623 1362.08 661.538 1367.87 614.687 1374.86C533.894 1386.74 443.05 1408.74 389.956 1484.07C355.844 1532.48 344.874 1595.01 341.395 1656.33C340.97 1663.84 340.652 1671.35 340.416 1678.8C336.396 1805.18 349.665 1931.66 345.134 2049.86C342.53 2114.78 335.377 2176.41 321.028 2238.03C304.297 2311.19 275.859 2385.86 222.057 2445.74C168.23 2505.64 84.8552 2547.47 5.56427 2539.5" stroke="#159D45" stroke-opacity="0.05" stroke-width="1.33334" stroke-miterlimit="10"/>
<path d="M1337.01 -132.839C1188.53 17.7347 1100.67 231.042 1054.34 412.93C1011.89 579.567 998.869 729.945 970.336 906.817C967.828 922.384 965.245 938.154 962.576 954.093C951.671 1018.27 936.917 1089.76 910.946 1153.94C891.603 1201.79 865.786 1245.23 828.995 1278.2C801.018 1303.31 770.153 1319.88 738.035 1331.91C693.588 1348.57 646.693 1356.59 601.925 1365.74C524.731 1381.3 437.991 1406.52 387.091 1482.63C354.388 1531.55 343.703 1593.94 340.024 1655.16C339.578 1662.66 339.223 1670.14 338.95 1677.6C334.258 1803.86 345.076 1930.41 336.217 2046.59C331.202 2110.43 321.134 2170.12 304.557 2229.83C284.906 2300.6 254.421 2372.91 199.628 2431.27C144.804 2489.64 61.8704 2530.99 -16.9729 2525.21" stroke="#159D45" stroke-opacity="0.05" stroke-width="1.33334" stroke-miterlimit="10"/>
<path d="M1350.26 -122.359C1205.07 30.6779 1112.34 241.187 1058.17 416.473C1008.6 576.876 986.352 717.961 951.025 890.665C947.916 905.865 944.769 921.304 941.562 936.953C928.472 999.98 912.217 1070.69 886.106 1134.81C866.689 1182.55 841.536 1226.24 806.153 1260.01C779.248 1285.73 749.713 1303.33 719.039 1316.62C676.558 1335.04 631.842 1345.32 589.168 1356.62C515.566 1375.85 432.933 1404.3 384.231 1481.19C352.94 1530.61 342.54 1592.85 338.659 1653.98C338.182 1661.47 337.802 1668.95 337.488 1676.39C332.125 1802.54 340.494 1929.16 327.307 2043.32C319.888 2106.07 307.028 2163.83 288.094 2221.61C265.681 2290.03 232.989 2359.95 177.21 2416.79C121.391 2473.63 38.8976 2514.48 -39.4908 2510.91" stroke="#159D45" stroke-opacity="0.05" stroke-width="1.33334" stroke-miterlimit="10"/>
<path d="M1363.5 -111.88C1221.61 43.6203 1124.03 251.332 1062 420.019C1005.31 574.18 973.824 705.979 931.705 874.527C928.002 889.363 924.28 904.475 920.546 919.831C905.27 981.709 887.515 1051.63 861.26 1115.71C841.77 1163.34 817.281 1207.27 783.309 1241.84C757.473 1268.17 729.26 1286.79 700.041 1301.35C659.522 1321.54 617.026 1334.13 576.405 1347.52C506.455 1370.57 427.873 1402.1 381.373 1479.77C351.498 1529.71 341.375 1591.8 337.295 1652.83C336.796 1660.31 336.383 1667.78 336.025 1675.22C329.994 1801.24 335.919 1927.94 318.393 2040.08C308.566 2101.76 292.913 2157.6 271.637 2213.44C246.466 2279.49 211.562 2347.04 154.787 2402.34C97.9756 2457.67 15.9161 2498.03 -62.01 2496.63" stroke="#159D45" stroke-opacity="0.05" stroke-width="1.33334" stroke-miterlimit="10"/>
<path d="M1376.75 -101.392C1238.14 56.5781 1135.72 261.48 1065.83 423.569C1002.05 571.481 961.309 693.995 912.391 858.383C908.088 872.851 903.798 887.64 899.53 902.698C882.064 963.416 862.816 1032.56 836.418 1096.59C816.854 1144.11 793.028 1188.28 760.468 1223.65C735.701 1250.59 708.811 1270.24 681.046 1286.06C642.49 1308.03 602.19 1322.86 563.649 1338.4C497.309 1365.15 422.809 1399.88 378.514 1478.33C350.048 1528.77 340.209 1590.72 335.934 1651.64C335.413 1659.11 334.959 1666.57 334.568 1674C327.866 1799.91 331.339 1926.68 309.485 2036.81C297.254 2097.4 278.808 2151.31 255.176 2205.23C227.246 2268.92 190.134 2334.07 132.371 2387.86C74.5635 2441.65 -7.05532 2481.53 -84.5338 2482.32" stroke="#159D45" stroke-opacity="0.05" stroke-width="1.33334" stroke-miterlimit="10"/>
<path d="M1390 -90.9134C1254.68 69.5202 1145.65 270.728 1069.66 427.114C1000.43 569.575 948.781 682.013 893.071 842.245C888.167 856.345 883.336 870.814 878.507 885.571C858.974 945.181 838.107 1013.5 811.565 1077.49C791.928 1124.89 768.77 1169.32 737.618 1205.47C713.923 1233.02 688.359 1253.71 662.041 1270.78C625.443 1294.53 587.349 1311.59 550.884 1329.29C488.158 1359.73 417.746 1397.66 375.645 1476.9C348.592 1527.84 339.038 1589.65 334.56 1650.48C334.01 1657.93 333.533 1665.38 333.098 1672.81C325.717 1798.59 326.749 1925.43 300.567 2033.55C285.925 2093.05 264.281 2144.83 238.704 2197.03C208.525 2258.61 168.686 2321.13 109.941 2373.39C51.1415 2425.67 -30.0476 2465.04 -107.064 2468.04" stroke="#159D45" stroke-opacity="0.05" stroke-width="1.33334" stroke-miterlimit="10"/>
<path d="M1403.24 -80.426C1271.21 82.4707 1159.18 281.755 1073.49 430.664C995.564 566.069 936.26 670.036 873.755 826.1C868.258 839.837 862.863 853.975 857.485 868.446C835.773 926.91 813.407 994.445 786.717 1058.38C767.009 1105.66 744.512 1150.34 714.771 1187.28C692.145 1215.44 667.899 1237.17 643.04 1255.5C608.401 1281.03 572.511 1300.32 538.122 1320.17C479.007 1354.29 412.683 1395.45 372.788 1475.47C347.143 1526.92 337.874 1588.59 333.204 1649.31C332.632 1656.75 332.123 1664.2 331.646 1671.61C323.594 1797.28 322.179 1924.19 291.664 2030.29C274.619 2088.71 250.621 2138.78 222.248 2188.83C188.824 2247.82 147.263 2308.19 87.5231 2358.92C27.7274 2409.68 -53.0208 2448.56 -129.586 2453.74" stroke="#159D45" stroke-opacity="0.05" stroke-width="1.33334" stroke-miterlimit="10"/>
<path d="M1416.49 -69.9463C1287.75 95.4134 1170.94 291.893 1077.31 434.21C992.35 563.366 923.737 658.047 854.437 809.963C848.339 823.331 842.376 837.147 836.464 851.32C812.566 908.635 788.7 975.385 761.869 1039.26C742.089 1086.44 720.255 1131.36 691.922 1169.11C670.369 1197.87 647.445 1220.65 624.036 1240.22C591.36 1267.55 557.675 1289.05 525.358 1311.06C469.861 1348.86 407.622 1393.24 369.921 1474.04C345.696 1525.99 336.7 1587.52 331.832 1648.15C331.237 1655.58 330.687 1663.01 330.178 1670.42C321.454 1795.97 317.594 1922.96 282.744 2027.04C263.292 2084.38 236.523 2132.52 205.786 2180.64C169.622 2237.26 125.831 2295.25 65.1026 2344.46C4.31092 2393.69 -75.9966 2432.08 -152.107 2439.46" stroke="#159D45" stroke-opacity="0.05" stroke-width="1.33334" stroke-miterlimit="10"/>
<path d="M1429.73 -59.4707C1304.28 108.352 1182.72 302.026 1081.14 437.749C989.153 560.664 911.213 646.058 835.117 793.807C828.418 806.807 821.888 820.3 815.441 834.175C789.362 890.353 763.991 956.307 737.017 1020.14C717.163 1067.21 695.993 1112.37 669.072 1150.91C648.587 1180.29 626.989 1204.1 605.031 1224.93C574.325 1254.05 542.837 1277.76 512.592 1301.93C460.71 1343.4 402.555 1391.01 367.052 1472.59C344.236 1525.05 335.529 1586.43 330.457 1646.97C329.837 1654.39 329.258 1661.81 328.708 1669.21C319.312 1794.64 313.215 1921.77 273.823 2023.76C252.077 2080.06 222.423 2126.23 189.311 2172.43C150.408 2226.69 104.386 2282.3 42.6727 2329.98C-19.1112 2377.69 -98.9853 2415.59 -174.637 2425.15" stroke="#159D45" stroke-opacity="0.05" stroke-width="1.33334" stroke-miterlimit="10"/>
<path d="M1442.98 -48.9832C1320.82 121.314 1194.51 312.187 1084.96 441.303C985.965 557.984 898.682 634.085 815.798 777.67C808.506 790.307 801.401 803.472 794.42 817.05C766.154 872.079 739.284 937.248 712.17 1001.03C692.242 1047.98 671.739 1093.4 646.226 1132.73C626.814 1162.71 606.542 1187.58 586.031 1209.64C557.295 1240.56 527.993 1266.48 499.832 1292.82C451.553 1337.96 397.497 1388.79 364.189 1471.16C342.785 1524.12 334.359 1585.36 329.088 1645.8C328.438 1653.21 327.833 1660.62 327.239 1668.01C317.171 1793.33 308.619 1920.54 264.906 2020.5C240.753 2075.72 208.332 2119.97 172.841 2164.23C131.213 2216.13 82.9501 2269.35 20.2479 2315.5C-42.532 2361.69 -121.965 2399.1 -197.165 2410.85" stroke="#159D45" stroke-opacity="0.05" stroke-width="1.33334" stroke-miterlimit="10"/>
<path d="M1456.22 -38.5039C1337.35 134.256 1206.33 322.354 1088.8 444.845C982.811 555.303 886.168 622.092 796.482 761.524C788.589 773.793 780.92 786.628 773.401 799.916C742.938 853.799 714.578 918.18 687.321 981.916C667.319 1028.76 647.48 1074.42 623.379 1114.54C605.043 1145.14 586.094 1171.06 567.03 1194.36C540.259 1227.08 513.152 1255.2 487.069 1283.7C442.397 1332.51 392.434 1386.58 361.331 1469.73C341.343 1523.2 333.194 1584.29 327.725 1644.63C327.053 1652.03 326.411 1659.42 325.779 1666.81C315.044 1792.01 304.04 1919.31 255.996 2017.24C229.435 2071.39 194.259 2113.71 156.381 2156.02C112.024 2205.58 61.5128 2256.4 -2.17799 2301.03C-65.9575 2345.69 -144.946 2382.61 -219.691 2396.56" stroke="#159D45" stroke-opacity="0.05" stroke-width="1.33334" stroke-miterlimit="10"/>
<path d="M1469.47 -28.0239C1353.89 147.199 1218.16 332.54 1092.63 448.391C979.661 552.642 873.642 610.111 777.161 745.376C768.664 757.285 760.423 769.785 752.377 782.78C719.729 835.514 689.872 899.102 662.471 962.794C642.4 1009.52 623.221 1055.43 600.531 1096.35C583.268 1127.55 565.655 1154.52 548.035 1179.07C523.238 1213.6 498.316 1243.91 474.313 1274.58C433.252 1327.05 387.381 1384.35 358.472 1468.28C339.897 1522.25 332.029 1583.22 326.364 1643.44C325.67 1650.83 324.994 1658.22 324.323 1665.6C312.908 1790.67 299.265 1917.95 247.088 2013.97C218.012 2066.97 180.187 2107.44 139.926 2147.81C92.8408 2195.03 40.0887 2243.44 -24.5869 2286.55C-89.355 2329.69 -167.91 2366.11 -242.197 2382.25" stroke="#159D45" stroke-opacity="0.05" stroke-width="1.33334" stroke-miterlimit="10"/>
<path d="M1482.72 -17.5374C1370.43 160.149 1230 342.751 1096.46 451.94C976.522 550.006 861.121 598.133 757.848 729.242C748.757 740.787 739.942 752.96 731.369 765.661C696.527 817.242 665.185 880.054 637.636 943.689C617.491 990.303 598.984 1036.46 577.695 1078.18C561.5 1110 545.224 1138.02 529.044 1163.8C506.231 1200.14 483.478 1232.64 461.555 1265.47C424.086 1321.6 382.321 1382.15 355.61 1466.86C338.443 1521.34 330.864 1582.15 324.996 1642.28C324.273 1649.66 323.572 1657.04 322.859 1664.41C310.773 1789.37 294.679 1916.71 238.173 2010.72C206.69 2062.64 166.113 2101.19 123.458 2139.63C73.6626 2184.49 18.6544 2230.51 -47.0135 2272.09C-112.781 2313.71 -190.899 2349.63 -264.731 2367.97" stroke="#159D45" stroke-opacity="0.05" stroke-width="1.33334" stroke-miterlimit="10"/>
<path d="M1495.96 -7.05737C1386.96 173.092 1241.85 352.978 1100.28 455.486C973.38 547.378 848.597 586.145 738.525 713.094C728.834 724.271 719.451 736.12 710.343 748.524C673.305 798.96 640.473 860.983 612.78 924.574C592.562 971.077 574.718 1017.48 554.841 1059.99C539.715 1092.42 524.776 1121.49 510.036 1148.51C489.211 1186.66 468.622 1221.34 448.786 1256.35C414.916 1316.14 377.255 1379.93 352.738 1465.42C336.984 1520.4 329.686 1581.07 323.619 1641.11C322.873 1648.47 322.131 1655.84 321.386 1663.2C308.628 1788.04 290.086 1915.46 229.252 2007.44C195.358 2058.28 152.032 2094.93 106.987 2131.41C54.4667 2173.94 -2.78631 2217.55 -69.4465 2257.6C-136.203 2297.69 -213.891 2333.13 -287.264 2353.65" stroke="#159D45" stroke-opacity="0.05" stroke-width="1.33334" stroke-miterlimit="10"/>
<path d="M1509.21 3.42969C1403.5 186.049 1253.7 363.223 1104.12 459.036C970.255 544.775 836.078 574.168 719.214 696.96C708.923 707.769 698.946 719.273 689.33 731.402C649.999 780.607 615.775 841.928 587.941 905.466C567.65 951.858 550.466 998.508 532.004 1041.81C517.95 1074.85 504.356 1104.98 491.044 1133.23C472.212 1173.19 453.776 1210.06 436.033 1247.24C405.753 1310.7 372.202 1377.72 349.89 1463.99C335.552 1519.48 328.531 1580.01 322.265 1639.94C321.498 1647.29 320.723 1654.66 319.936 1662.01C306.508 1786.73 285.517 1914.21 220.351 2004.19C184.053 2053.95 137.968 2088.69 90.5331 2123.22C35.3023 2163.42 -24.2065 2204.6 -91.8589 2243.14C-159.611 2281.71 -236.859 2316.66 -309.773 2339.37" stroke="#159D45" stroke-opacity="0.05" stroke-width="1.33334" stroke-miterlimit="10"/>
<path d="M1522.46 13.9094C1420.03 198.992 1265.55 373.487 1107.94 462.582C967.12 542.188 823.549 562.186 699.89 680.811C689.005 691.257 678.458 702.426 668.303 714.265C626.786 762.321 591.062 822.857 563.085 886.351C542.723 932.625 526.2 979.524 509.149 1023.62C496.164 1057.27 483.918 1088.45 472.035 1117.94C455.195 1159.71 438.919 1198.77 423.263 1238.12C396.568 1305.23 367.131 1375.5 347.017 1462.55C334.088 1518.55 327.356 1578.93 320.887 1638.77C320.09 1646.1 319.293 1653.46 318.458 1660.81C304.358 1785.42 280.923 1912.98 211.422 2000.93C172.72 2049.6 123.883 2082.45 74.0503 2115.02C16.1019 2152.89 -45.6592 2191.67 -114.296 2228.67C-183.048 2265.72 -259.852 2300.17 -332.318 2325.08" stroke="#159D45" stroke-opacity="0.05" stroke-width="1.33334" stroke-miterlimit="10"/>
<path d="M1535.71 24.3887C1436.57 211.935 1277.4 383.768 1111.78 466.124C963.99 539.611 811.044 550.197 680.582 664.67C669.096 674.748 657.981 685.594 647.293 697.135C603.594 744.035 566.365 803.793 538.248 867.235C517.813 913.398 501.96 960.543 486.314 1005.43C474.402 1039.69 463.507 1071.93 453.046 1102.65C438.204 1146.24 423.997 1187.46 410.513 1229C387.27 1299.74 362.076 1373.28 344.164 1461.11C332.647 1517.61 326.196 1577.85 319.528 1637.59C318.709 1644.92 317.871 1652.26 316.996 1659.6C302.224 1784.09 276.342 1911.72 202.512 1997.65C161.403 2045.25 109.814 2076.2 57.598 2106.8C-3.06432 2142.35 -67.0886 2178.7 -136.707 2214.19C-206.447 2249.71 -282.817 2283.67 -354.829 2310.77" stroke="#159D45" stroke-opacity="0.05" stroke-width="1.33334" stroke-miterlimit="10"/>
<path d="M1548.95 34.8752C1453.1 224.884 1289.23 394.071 1115.6 469.677C960.837 537.059 798.512 538.223 661.255 648.528C649.176 658.242 637.486 668.761 626.263 680.005C580.378 725.756 541.653 784.722 513.392 848.119C492.883 894.171 477.695 941.559 463.456 987.247C452.613 1022.12 443.07 1055.4 434.034 1087.37C421.195 1132.76 409.141 1176.19 397.74 1219.88C378.096 1294.3 357.002 1371.07 341.288 1459.68C331.188 1516.69 325.014 1576.79 318.147 1636.43C317.305 1643.74 316.434 1651.07 315.519 1658.41C300.068 1782.77 271.745 1910.47 193.584 1994.4C150.063 2040.9 95.7254 2069.97 41.1161 2098.6C-22.2602 2131.84 -88.5366 2165.76 -159.151 2199.71C-229.891 2233.72 -305.82 2267.19 -377.377 2296.47" stroke="#159D45" stroke-opacity="0.05" stroke-width="1.33334" stroke-miterlimit="10"/>
<path d="M1562.2 45.355C1469.64 237.834 1301.07 404.383 1119.43 473.22C957.702 534.508 785.995 526.239 641.95 632.38C629.271 641.726 617.017 651.914 605.255 662.869C557.185 707.47 516.967 765.656 488.554 829.003C467.973 874.945 453.444 922.583 440.621 969.059C430.85 1004.54 422.659 1038.88 415.044 1072.08C404.219 1119.27 394.3 1164.91 384.99 1210.76C368.945 1288.87 351.954 1368.84 338.442 1458.24C329.754 1515.75 323.864 1575.71 316.798 1635.25C315.935 1642.55 315.023 1649.87 314.075 1657.2C297.956 1781.44 267.185 1909.22 184.688 1991.13C138.764 2036.55 81.6701 2063.73 24.6669 2090.4C-41.427 2121.32 -109.956 2152.81 -181.559 2185.24C-253.294 2217.72 -328.79 2250.7 -399.885 2282.18" stroke="#159D45" stroke-opacity="0.05" stroke-width="1.33334" stroke-miterlimit="10"/>
<path d="M1575.44 55.8316C1486.17 250.774 1312.89 414.706 1123.25 476.762C954.536 531.969 773.465 514.247 622.618 616.236C609.338 625.214 596.516 635.079 584.22 645.736C533.956 689.185 492.245 746.589 463.693 809.885C443.038 855.715 429.173 903.595 417.761 950.867C409.059 986.957 402.298 1022.36 396.03 1056.79C387.304 1105.8 379.443 1153.62 372.215 1201.64C359.763 1283.42 346.879 1366.62 335.564 1456.8C328.285 1514.82 322.68 1574.63 315.415 1634.07C314.522 1641.36 313.589 1648.67 312.596 1655.99C295.806 1780.11 262.587 1907.96 175.758 1987.86C127.429 2032.2 67.6133 2057.59 8.18705 2082.18C-60.588 2110.9 -131.405 2139.85 -203.993 2170.75C-276.718 2201.7 -351.78 2234.19 -422.419 2267.87" stroke="#159D45" stroke-opacity="0.05" stroke-width="1.33334" stroke-miterlimit="10"/>
<path d="M1588.68 66.3183C1502.7 263.724 1324.78 425.312 1127.09 480.312C951.438 529.676 760.945 502.269 603.31 600.094C589.436 608.708 576.043 618.239 563.209 628.606C510.76 670.906 467.548 727.525 438.852 790.776C418.127 836.488 404.93 884.622 394.922 932.686C387.293 969.382 381.861 1005.83 377.037 1041.51C370.292 1092.31 364.605 1142.35 359.461 1192.53C350.612 1277.98 341.827 1364.41 332.707 1455.37C326.84 1513.88 321.517 1573.56 314.052 1632.9C313.137 1640.18 312.171 1647.48 311.137 1654.79C293.675 1778.8 258.009 1906.72 166.852 1984.59C116.116 2027.86 53.5289 2051.33 -8.26535 2073.98C-79.7728 2100.36 -152.824 2126.9 -226.404 2156.29C-300.128 2185.72 -374.746 2217.71 -444.934 2253.57" stroke="#159D45" stroke-opacity="0.05" stroke-width="1.33334" stroke-miterlimit="10"/>
<path d="M1601.93 76.7982C1519.24 276.667 1336.54 435.531 1130.91 483.851C948.226 527.04 748.421 490.281 583.987 583.946C569.512 592.192 555.552 601.4 542.187 611.481C487.555 652.624 442.84 708.466 414.004 771.665C393.205 817.266 380.672 865.643 372.076 914.501C365.515 951.81 361.428 989.296 358.036 1026.23C353.276 1078.81 349.753 1131.07 346.696 1183.42C341.439 1272.55 336.761 1362.2 329.839 1453.94C325.388 1512.97 320.346 1572.49 312.679 1631.74C311.738 1639.01 310.734 1646.3 309.664 1653.61C291.53 1777.5 253.412 1905.49 157.927 1981.34C104.78 2023.52 39.4262 2045.09 -24.7435 2065.8C-98.9944 2089.84 -174.279 2113.97 -248.844 2141.83C-323.557 2169.73 -397.741 2201.23 -467.474 2239.29" stroke="#159D45" stroke-opacity="0.05" stroke-width="1.33334" stroke-miterlimit="10"/>
<path d="M1615.18 87.285C1535.77 289.617 1348.3 445.749 1134.74 487.408C945.018 524.415 735.9 478.303 564.667 567.808C487.98 607.897 425.226 673.955 389.156 752.553C352.339 832.777 343.543 922.764 339.035 1010.94C328.471 1217.52 338.588 1425.54 311.308 1630.57C293.964 1760.88 254.72 1899.89 149.009 1978.08C93.4584 2019.18 25.3305 2038.84 -41.2146 2057.6C-195.347 2101.04 -351.596 2144.59 -490.001 2225" stroke="#159D45" stroke-opacity="0.05" stroke-width="1.33334" stroke-miterlimit="10"/>
</g>
<defs>
<clipPath id="clip0_168_10368">
<rect width="1366" height="2536" fill="white" transform="matrix(-1 0 0 -1 1366 2536)"/>
</clipPath>
</defs>
</svg>
