<svg width="799" height="278" viewBox="0 0 799 278" fill="none" xmlns="http://www.w3.org/2000/svg">
<g opacity="0.05" clip-path="url(#clip0_316_687)">
<path d="M273.966 668.117C270.513 672.324 267.06 676.53 263.606 680.74C260.859 623.05 243.856 566.073 214.523 516.265C184.884 465.94 143.083 423.085 117.492 370.599C91.9021 318.109 86.5493 248.721 126.872 206.516C185.51 145.142 293.768 179.777 367.505 137.636C419.285 108.044 443.805 44.9422 445.191 -14.6279C446.576 -74.198 428.983 -132.337 415.467 -190.389C401.951 -248.444 392.524 -309.97 409.888 -366.963C417.005 -390.328 429.759 -413.601 451.342 -425.089C503.061 -452.619 575.868 -400.651 622.19 -436.494C643.165 -452.725 649.497 -481.341 652.158 -507.71C654.819 -534.08 655.68 -562.062 670.058 -584.332C684.436 -606.603 718.58 -618.624 737.904 -600.432" stroke="#159D45" stroke-width="1.33334" stroke-miterlimit="10"/>
<path d="M274.708 669.803C271.537 673.657 268.358 677.51 265.173 681.353C263.948 623.768 248.111 566.388 219.864 515.895C208.035 494.767 194.101 474.866 180.033 455.065C160.152 427.073 140.014 399.239 125.182 368.234C101.988 319.745 95.0332 257.64 123.452 214.413C126.061 210.449 128.972 206.641 132.195 203.015C162.177 169.274 206.335 162.031 253.072 156.436C293.238 151.629 334.937 148.418 369.392 129.388C403.391 110.616 426.519 78.018 438.658 40.6454C445.231 20.418 448.489 -1.07451 448.845 -22.1306C448.959 -28.7012 448.837 -35.255 448.518 -41.7893C445.917 -94.8499 430.319 -146.819 418.045 -198.772C412.02 -224.278 406.796 -250.433 404.28 -276.613C401.037 -310.336 402.383 -344.108 412.338 -376.338C419.333 -398.99 431.65 -421.578 452.526 -432.814C502.552 -459.734 572.935 -410.158 617.907 -444.936C638.274 -460.687 644.57 -488.327 647.348 -513.784C650.127 -539.245 651.182 -566.229 665.243 -587.699C679.299 -609.166 712.371 -620.759 731.193 -603.266" stroke="#159D45" stroke-width="1.33334" stroke-miterlimit="10"/>
<path d="M275.453 671.493C272.567 674.996 269.659 678.49 266.742 681.974C267.036 624.494 252.368 566.715 225.209 515.539C213.837 494.138 200.344 473.915 186.647 453.818C167.291 425.399 147.553 397.157 132.877 365.883C109.922 316.974 102.469 255.016 129.248 211.113C131.709 207.094 134.458 203.218 137.517 199.517C165.944 165.043 208.374 155.797 254.696 148.951C294.505 143.068 336.45 139.727 371.282 121.144C405.675 102.812 429.806 70.9357 442.314 33.4977C449.098 13.2147 452.272 -8.42779 452.5 -29.6337C452.572 -36.2432 452.405 -42.8369 452.041 -49.399C449.061 -102.744 433.133 -154.932 420.618 -207.153C414.471 -232.799 409.15 -259.084 406.567 -285.421C403.245 -319.325 404.648 -353.341 414.783 -385.706C421.651 -407.642 433.535 -429.551 453.708 -440.528C502.044 -466.837 570.003 -419.657 613.624 -453.367C633.38 -468.634 639.644 -495.301 642.537 -519.851C645.432 -544.399 646.687 -570.393 660.431 -591.062C674.166 -611.728 706.163 -622.885 724.488 -606.091" stroke="#159D45" stroke-width="1.33334" stroke-miterlimit="10"/>
<path d="M276.195 673.182C273.59 676.334 270.957 679.47 268.304 682.593C270.116 625.219 256.621 567.041 230.545 515.176C219.625 493.501 206.574 472.957 193.25 452.568C174.415 423.721 155.085 395.073 140.565 363.529C117.857 314.204 109.908 252.393 135.044 207.822C137.355 203.747 139.948 199.802 142.839 196.024C169.711 160.817 210.409 149.563 256.317 141.466C295.767 134.51 337.959 131.039 373.164 112.903C407.949 95.0055 433.086 63.8557 445.962 26.3524C452.956 6.01754 456.05 -15.7777 456.149 -37.1296C456.184 -43.7771 455.97 -50.4071 455.559 -57.0017C452.204 -110.634 435.942 -163.039 423.19 -215.522C416.921 -241.313 411.501 -267.723 408.853 -294.221C405.449 -328.311 406.911 -362.565 417.226 -395.067C423.961 -416.292 435.419 -437.513 454.885 -448.239C501.527 -473.934 567.064 -429.153 609.334 -461.795C628.482 -476.582 634.711 -502.273 637.72 -525.91C640.733 -549.55 642.182 -574.547 655.613 -594.413C669.026 -614.276 699.949 -625.001 717.774 -608.91" stroke="#159D45" stroke-width="1.33334" stroke-miterlimit="10"/>
<path d="M276.938 674.867C274.614 677.667 272.256 680.446 269.871 683.209C273.202 625.939 260.877 567.359 235.886 514.81C225.421 492.865 212.812 471.996 199.858 451.311C181.55 422.034 162.619 392.981 148.255 361.168C125.79 311.424 117.346 249.761 140.839 204.517C142.998 200.382 145.431 196.374 148.155 192.52C173.471 156.58 212.441 143.322 257.935 133.974C297.032 125.943 339.466 122.342 375.047 104.653C410.228 87.1917 436.363 56.7662 449.612 19.1986C456.817 -1.19196 459.831 -23.1362 459.798 -44.6388C459.791 -51.3253 459.531 -57.9915 459.077 -64.6214C455.347 -118.541 438.755 -171.161 425.758 -223.913C419.367 -249.844 413.85 -276.383 411.136 -303.039C407.648 -337.31 409.167 -371.806 419.666 -404.445C426.264 -424.961 437.298 -445.493 456.061 -455.964C501.011 -481.048 564.124 -438.663 605.042 -470.236C623.583 -484.543 629.775 -509.255 632.902 -531.983C636.037 -554.713 637.681 -578.716 650.791 -597.783C663.888 -616.845 693.732 -627.138 711.055 -611.744" stroke="#159D45" stroke-width="1.33334" stroke-miterlimit="10"/>
<path d="M277.678 676.556C275.636 679.003 273.553 681.425 271.431 683.827C276.285 626.664 265.125 567.684 241.221 514.446C231.212 492.228 219.041 471.037 206.461 450.056C188.674 420.351 170.151 390.893 155.939 358.805C133.718 308.644 124.78 247.128 146.628 201.216C148.638 197.024 150.913 192.951 153.47 189.017C177.232 152.34 214.47 137.078 259.552 126.483C298.291 117.38 340.972 113.645 376.93 96.4028C412.502 79.3771 439.643 49.6778 453.258 12.0439C460.672 -8.39855 463.605 -30.4918 463.442 -52.1488C463.397 -58.8733 463.092 -65.5794 462.59 -72.2382C458.484 -126.445 441.558 -179.282 428.321 -232.301C421.809 -258.376 416.193 -285.041 413.414 -311.857C409.843 -346.315 411.418 -381.05 422.101 -413.825C428.554 -433.629 439.175 -453.478 457.229 -463.69C500.489 -488.159 561.175 -448.171 600.744 -478.683C618.672 -492.507 624.833 -516.246 628.077 -538.061C631.329 -559.878 633.172 -582.888 645.965 -601.153C658.74 -619.415 687.51 -629.273 704.333 -614.582" stroke="#159D45" stroke-width="1.33334" stroke-miterlimit="10"/>
<path d="M278.421 678.241C276.661 680.337 274.853 682.401 272.998 684.444C279.37 627.385 269.38 568.007 246.56 514.085C237.009 491.593 225.278 470.08 213.068 448.807C195.808 418.672 177.687 388.811 163.628 356.452C141.649 305.873 132.216 244.505 152.421 197.919C154.282 193.672 156.4 189.529 158.789 185.522C180.995 148.113 216.504 130.847 261.168 119C299.549 108.825 342.477 104.96 378.807 88.1638C414.774 71.5781 442.917 42.6004 456.901 4.90114C464.525 -15.5932 467.379 -37.8392 467.087 -59.6422C467.001 -66.4057 466.653 -73.1471 466.104 -79.8421C461.62 -134.337 444.364 -187.389 430.889 -240.671C424.254 -266.886 418.54 -293.682 415.692 -320.656C412.038 -355.295 413.665 -390.272 424.533 -423.184C430.841 -442.282 441.046 -461.439 458.394 -471.4C499.961 -495.259 558.224 -457.667 596.441 -487.111C613.762 -500.454 619.888 -523.217 623.244 -544.121C626.614 -565.029 628.652 -587.046 641.132 -604.509C653.586 -621.967 681.282 -631.396 697.604 -617.405" stroke="#159D45" stroke-width="1.33334" stroke-miterlimit="10"/>
<path d="M279.166 679.931C277.692 681.673 276.153 683.385 274.564 685.064C282.454 628.11 273.634 568.329 251.903 513.724C242.807 490.962 231.515 469.123 219.679 447.555C202.94 416.992 185.223 386.724 171.32 354.096C149.583 303.102 139.559 241.84 158.221 194.625C159.923 190.315 161.889 186.112 164.114 182.03C184.769 143.888 218.541 124.617 262.795 111.52C300.823 100.269 343.993 96.2736 380.7 79.9247C417.059 63.7743 446.207 35.5228 460.56 -2.24173C468.394 -22.7917 471.169 -45.1866 470.745 -67.1403C470.621 -73.9419 470.223 -80.7242 469.631 -87.447C464.77 -142.226 447.181 -195.498 433.465 -249.048C426.712 -275.405 420.897 -302.328 417.982 -329.459C414.25 -364.283 415.92 -399.499 426.98 -432.548C433.132 -450.937 442.935 -469.408 459.579 -479.11C499.452 -502.358 555.291 -467.162 592.158 -495.537C608.872 -508.4 614.961 -530.188 618.435 -550.179C621.922 -570.179 624.158 -591.197 636.317 -607.86C648.45 -624.518 675.072 -633.512 690.892 -620.22" stroke="#159D45" stroke-width="1.33334" stroke-miterlimit="10"/>
<path d="M279.908 681.62C278.715 683.009 277.451 684.364 276.129 685.683C285.537 628.838 277.887 568.655 257.243 513.361C248.599 490.325 237.752 468.166 226.287 446.302C210.074 415.308 192.76 384.637 179.012 351.739C157.519 300.327 146.991 239.214 164.018 191.325C165.571 186.96 167.38 182.687 169.437 178.528C188.537 139.653 220.582 118.375 264.416 104.03C302.086 91.7066 345.504 87.5773 382.587 71.6794C419.341 55.9653 449.488 28.438 464.213 -9.39085C472.257 -29.9927 474.952 -52.5404 474.399 -74.6401C474.233 -81.4806 473.794 -88.2982 473.153 -95.0535C467.918 -150.12 449.994 -203.608 436.038 -257.425C429.163 -283.923 423.25 -310.975 420.271 -338.268C416.454 -373.273 418.173 -408.732 429.426 -441.917C435.422 -459.602 444.824 -477.377 460.757 -486.826C498.94 -509.459 552.357 -476.662 587.872 -503.969C603.975 -516.352 610.036 -537.163 613.622 -556.242C617.227 -575.329 619.658 -595.355 631.505 -611.219C643.316 -627.073 668.864 -635.635 684.184 -623.047" stroke="#159D45" stroke-width="1.33334" stroke-miterlimit="10"/>
<path d="M280.65 683.305C279.738 684.343 278.749 685.34 277.691 686.299C288.618 629.559 282.137 568.976 262.578 512.998C254.389 489.693 243.98 467.208 232.892 445.053C217.201 413.632 200.291 382.553 186.699 349.385C165.452 297.557 154.417 236.592 169.809 188.032C171.209 183.611 172.859 179.272 174.75 175.036C192.294 135.429 222.607 112.146 266.03 96.551C303.343 83.1513 347.011 78.8932 384.463 63.4405C421.608 48.1616 452.761 21.3606 467.854 -16.5299C476.109 -37.1874 478.72 -59.885 478.039 -82.1344C477.835 -89.0129 477.349 -95.8668 476.663 -102.658C471.048 -158.013 452.794 -211.713 438.598 -265.801C431.601 -292.444 425.59 -319.621 422.544 -347.071C418.646 -382.262 420.408 -417.96 431.856 -451.281C437.693 -468.258 446.696 -485.346 461.926 -494.539C498.416 -516.561 549.408 -486.157 583.573 -512.4C599.067 -524.298 605.092 -544.133 608.797 -562.304C612.519 -580.482 615.15 -599.513 626.678 -614.573C638.168 -629.627 662.642 -637.757 677.461 -625.868" stroke="#159D45" stroke-width="1.33334" stroke-miterlimit="10"/>
<path d="M281.391 684.994C280.761 685.68 280.048 686.32 279.257 686.919C291.706 630.285 286.39 569.302 267.917 512.636C260.185 489.057 250.218 466.251 239.5 443.8C224.335 411.948 207.828 380.466 194.388 347.028C173.384 294.782 161.85 233.967 175.603 184.732C176.854 180.255 178.346 175.85 180.07 171.534C196.059 131.194 224.644 105.903 267.652 89.0613C304.611 74.5902 348.521 70.2012 386.35 55.1919C423.89 40.3531 456.046 14.2736 471.508 -23.6822C479.972 -44.3916 482.503 -67.2382 481.69 -89.6384C481.445 -96.5558 480.914 -103.45 480.183 -110.269C474.193 -165.911 455.608 -219.827 441.171 -274.178C434.052 -300.961 427.944 -328.268 424.833 -355.879C420.85 -391.251 422.651 -427.195 434.302 -460.649C439.972 -476.925 448.581 -493.316 463.104 -502.254C497.9 -523.663 546.47 -495.658 579.284 -520.832C594.17 -532.25 600.16 -551.109 603.981 -568.368C607.825 -585.636 610.646 -603.671 621.858 -617.934C633.027 -632.184 656.426 -639.881 670.748 -628.692" stroke="#159D45" stroke-width="1.33334" stroke-miterlimit="10"/>
<path d="M282.133 686.68C281.784 687.014 281.346 687.296 280.822 687.536C294.79 631.006 290.644 569.621 273.257 512.271C265.981 488.418 256.451 465.29 246.108 442.543C231.463 410.264 215.361 378.375 202.076 344.667C181.316 292.003 169.282 231.339 181.399 181.433C182.501 176.9 183.836 172.425 185.391 168.037C199.825 126.963 226.678 99.6684 269.272 81.5756C305.872 66.032 350.03 61.5094 388.235 46.9511C426.166 32.5475 459.327 7.19432 475.159 -30.8268C483.833 -51.5881 486.284 -74.5874 485.344 -97.1374C485.06 -104.093 484.483 -111.023 483.705 -117.875C477.339 -173.8 458.421 -227.936 443.743 -282.555C436.501 -309.478 430.296 -336.915 427.119 -364.683C423.058 -400.24 424.889 -436.422 436.745 -470.013C442.244 -485.589 450.464 -501.282 464.285 -509.969C497.392 -530.765 543.534 -505.157 574.997 -529.263C589.272 -540.202 595.23 -558.084 599.164 -574.431C603.125 -590.787 606.146 -607.832 617.04 -621.29C627.888 -634.74 650.212 -642.001 664.034 -631.515" stroke="#159D45" stroke-width="1.33334" stroke-miterlimit="10"/>
<path d="M282.878 688.37C282.815 688.353 282.651 688.278 282.389 688.152C297.875 631.728 294.898 569.944 278.601 511.906C271.777 487.783 262.693 464.33 252.719 441.291C238.601 408.582 222.901 376.29 209.769 342.311C189.25 289.233 176.721 228.72 187.196 178.134C188.147 173.541 189.322 169.003 190.715 164.536C203.595 122.726 228.717 93.4309 270.897 74.0871C307.14 57.4674 351.545 52.8149 390.122 38.7028C428.449 24.7354 462.608 0.106575 478.813 -37.9789C487.697 -58.7959 490.068 -81.9442 488.996 -104.645C488.671 -111.639 488.048 -118.609 487.227 -125.493C480.486 -181.705 461.234 -236.058 446.316 -290.945C438.952 -318.011 432.648 -345.574 429.406 -373.503C425.261 -409.242 427.123 -445.671 439.19 -479.398C444.516 -494.273 452.351 -509.271 465.463 -517.7C496.877 -537.886 540.596 -514.674 570.707 -537.712C584.376 -548.17 590.297 -565.076 594.348 -580.511C598.427 -595.958 601.646 -612.004 612.224 -624.665C622.751 -637.315 644.001 -644.144 657.322 -634.358" stroke="#159D45" stroke-width="1.33334" stroke-miterlimit="10"/>
<path d="M283.62 690.059C283.838 689.69 283.949 689.257 283.954 688.771C300.959 632.452 299.151 570.27 283.939 511.548C277.572 487.151 268.925 463.376 259.325 440.041C245.729 406.905 230.433 374.205 217.46 339.958C197.185 286.462 184.159 226.1 192.992 174.841C193.793 170.193 194.811 165.586 196.032 161.044C207.356 118.501 230.747 87.1983 272.511 66.6073C308.397 48.9152 353.048 44.1328 392.003 30.4642C430.721 16.9321 465.886 -6.97059 482.46 -45.1214C491.553 -65.9902 493.846 -89.2912 492.644 -112.138C492.282 -119.17 491.612 -126.177 490.743 -133.093C483.624 -189.593 464.041 -244.162 448.887 -299.315C441.404 -326.521 435.003 -354.213 431.691 -382.3C427.464 -418.224 429.347 -454.9 441.632 -488.755C446.775 -502.93 454.233 -517.23 466.642 -525.403C496.362 -544.975 537.662 -524.162 566.418 -546.132C579.478 -556.106 585.365 -572.041 589.533 -586.563C593.729 -601.101 597.143 -616.154 607.404 -628.014C617.613 -639.859 637.786 -646.257 650.605 -637.17" stroke="#159D45" stroke-width="1.33334" stroke-miterlimit="10"/>
<path d="M284.363 691.744C284.862 691.023 285.248 690.236 285.518 689.387C304.044 633.174 303.403 570.587 289.276 511.181C283.365 486.511 275.159 462.414 265.931 438.784C252.86 405.217 237.968 372.114 225.146 337.596C205.114 283.682 191.593 223.471 198.783 171.536C199.435 166.832 200.295 162.159 201.348 157.541C211.118 114.266 232.78 80.9588 274.131 59.1131C309.662 40.3495 354.556 35.4325 393.883 22.2138C432.993 9.12069 469.164 -14.0594 486.103 -52.2765C495.407 -73.201 497.618 -96.6473 496.286 -119.648C495.882 -126.72 495.17 -133.761 494.255 -140.714C486.76 -197.502 466.844 -252.286 451.447 -307.703C443.843 -335.053 437.343 -362.872 433.966 -391.115C429.656 -427.225 431.556 -464.147 444.064 -498.131C449.025 -511.608 456.106 -525.211 467.807 -533.13C495.838 -552.09 534.71 -533.67 562.12 -554.575C574.569 -564.069 580.422 -579.024 584.708 -592.637C589.021 -606.262 592.634 -620.321 602.578 -631.38C612.467 -642.425 631.564 -648.387 643.883 -640.004" stroke="#159D45" stroke-width="1.33334" stroke-miterlimit="10"/>
<path d="M285.104 693.433C285.885 692.36 286.545 691.216 287.082 690.007C307.128 633.898 307.656 570.913 294.615 510.819C289.159 485.879 281.392 461.456 272.536 437.534C259.987 403.539 245.499 370.03 232.833 335.242C213.044 280.91 199.031 220.852 204.578 168.244C205.081 163.484 205.779 158.744 206.669 154.047C214.883 110.039 234.814 74.7235 275.753 51.6316C310.928 31.7918 356.068 26.7449 395.771 13.9734C435.276 1.31654 472.449 -21.1382 489.757 -59.4207C499.271 -80.3971 501.403 -103.996 499.938 -127.144C499.496 -134.254 498.735 -141.336 497.776 -148.316C489.906 -205.391 469.659 -260.392 454.018 -316.077C446.292 -343.567 439.695 -371.515 436.252 -399.92C431.859 -436.212 433.77 -473.386 446.508 -507.496C451.279 -520.278 457.989 -533.178 468.987 -540.841C495.325 -559.187 531.774 -543.166 557.832 -563.003C569.674 -572.017 575.492 -585.996 579.89 -598.697C584.321 -611.414 588.13 -624.48 597.757 -634.737C607.323 -644.978 625.348 -650.512 637.166 -642.829" stroke="#159D45" stroke-width="1.33334" stroke-miterlimit="10"/>
<path d="M285.846 695.118C286.909 693.69 287.843 692.191 288.645 690.622C310.208 634.622 311.906 571.234 299.95 510.455C294.947 485.241 287.626 460.495 279.14 436.28C267.117 401.855 253.031 367.942 240.518 332.884C220.975 278.135 206.47 218.229 210.367 164.943C210.718 160.126 211.262 155.317 211.984 150.548C218.643 105.806 236.845 68.4875 277.366 44.1436C312.182 23.2314 357.57 18.0509 397.65 5.72657C437.547 -6.49499 475.721 -28.2246 493.401 -66.5676C503.125 -87.5959 505.174 -111.349 503.584 -134.645C503.102 -141.797 502.298 -148.912 501.29 -155.924C493.041 -213.284 472.465 -268.504 456.587 -324.455C448.739 -352.09 442.044 -380.163 438.535 -408.725C434.063 -445.201 435.974 -482.627 448.948 -516.862C453.527 -528.949 459.873 -541.144 470.161 -548.557C494.806 -566.293 528.831 -552.668 553.538 -571.436C564.773 -579.97 570.554 -592.973 575.07 -604.762C579.623 -616.569 583.625 -628.638 592.935 -638.094C602.181 -647.535 619.13 -652.633 630.447 -645.649" stroke="#159D45" stroke-width="1.33334" stroke-miterlimit="10"/>
<path d="M286.591 696.808C287.94 695.029 289.145 693.172 290.214 691.243C313.296 635.348 316.163 571.562 305.297 510.095C300.751 484.608 293.866 459.539 285.755 435.029C274.257 400.177 260.572 365.856 248.215 330.525C228.914 275.361 213.918 215.604 216.169 161.641C216.372 156.765 216.753 151.893 217.312 147.044C222.419 101.57 238.886 62.2461 278.996 36.6522C313.459 14.6648 359.089 9.35717 399.541 -2.52099C439.833 -14.3063 479.01 -35.3106 497.059 -73.7189C506.993 -94.8029 508.961 -118.704 507.24 -142.152C506.72 -149.342 505.867 -156.497 504.816 -163.541C496.191 -221.188 475.281 -276.624 459.162 -332.84C451.192 -360.614 444.399 -388.818 440.825 -417.541C436.269 -454.198 438.173 -491.882 451.391 -526.239C455.774 -537.632 461.757 -549.126 471.341 -556.28C494.296 -573.405 525.895 -562.176 549.251 -579.876C559.873 -587.926 565.624 -599.957 570.256 -610.833C574.925 -621.728 579.123 -632.803 588.121 -641.461C597.045 -650.099 612.92 -654.765 623.737 -648.484" stroke="#159D45" stroke-width="1.33334" stroke-miterlimit="10"/>
<path d="M287.333 698.497C288.962 696.367 290.443 694.152 291.776 691.862C316.379 636.073 320.413 571.883 310.633 509.733C306.541 483.975 300.099 458.582 292.358 433.775C281.383 398.492 268.105 363.769 255.903 328.168C236.846 272.587 221.469 212.983 221.962 158.345C222.026 153.416 222.239 148.471 222.626 143.549C226.178 97.342 240.917 56.0107 280.612 29.1695C314.717 6.1097 360.593 0.668502 401.423 -10.7625C442.105 -22.1088 482.289 -42.3905 500.706 -80.8642C510.85 -102 512.74 -126.054 510.89 -149.648C510.328 -156.877 509.432 -164.067 508.334 -171.144C499.334 -229.078 478.09 -284.731 461.73 -341.214C453.642 -369.131 446.747 -397.462 443.107 -426.342C438.469 -463.185 440.353 -501.128 453.83 -535.6C458.017 -546.304 463.636 -557.089 472.513 -563.988C493.775 -580.499 522.953 -571.665 544.955 -588.302C554.97 -595.871 560.684 -606.922 565.434 -616.89C570.221 -626.875 574.618 -636.957 583.294 -644.811C591.897 -652.648 606.698 -656.882 617.017 -651.297" stroke="#159D45" stroke-width="1.33334" stroke-miterlimit="10"/>
<path d="M288.076 700.182C289.987 697.699 291.743 695.127 293.343 692.478C319.465 636.794 324.668 572.205 315.973 509.37C312.338 483.339 306.334 457.623 298.966 432.525C288.516 396.816 275.637 361.684 263.592 325.813C244.778 269.814 228.906 210.358 227.759 155.048C227.672 150.059 227.729 145.053 227.95 140.05C229.947 93.1069 242.953 49.7748 282.233 21.6826C315.98 -2.44963 362.104 -8.02446 403.31 -19.0083C444.388 -29.9183 485.573 -49.4748 504.36 -88.0138C514.711 -109.206 516.523 -133.405 514.542 -157.153C513.942 -164.42 513 -171.647 511.855 -178.756C502.48 -236.977 480.902 -292.846 464.305 -349.595C456.095 -377.654 449.102 -406.114 445.397 -435.154C440.675 -472.179 442.527 -510.391 456.277 -544.973C460.26 -554.986 465.525 -565.068 473.698 -571.711C493.266 -587.611 520.022 -581.174 540.672 -596.742C550.08 -603.831 555.758 -613.906 560.626 -622.965C565.531 -632.042 570.126 -641.125 578.485 -648.182C586.768 -655.219 600.494 -659.017 610.312 -654.135" stroke="#159D45" stroke-width="1.33334" stroke-miterlimit="10"/>
<path d="M288.817 701.871C291.01 699.036 293.039 696.111 294.908 693.098C322.549 637.519 328.921 572.531 321.312 509.008C318.132 482.708 312.57 456.666 305.576 431.273C295.648 395.132 283.177 359.599 271.283 323.457C252.712 267.04 236.346 207.732 233.555 151.753C233.319 146.708 233.214 141.635 233.27 136.557C233.713 88.8805 244.99 43.5449 283.856 14.2018C317.249 -11.0056 363.616 -16.7114 405.194 -27.2452C446.663 -37.72 488.85 -56.5511 508.01 -95.1545C518.57 -116.399 520.303 -140.75 518.193 -164.644C517.552 -171.95 516.564 -179.217 515.376 -186.357C505.621 -244.864 483.713 -300.952 466.876 -357.968C458.544 -386.171 451.453 -414.756 447.682 -443.954C442.878 -481.165 444.678 -519.646 458.72 -554.334C462.496 -563.659 467.407 -573.03 474.874 -579.419C492.752 -594.703 517.081 -590.666 536.384 -605.165C545.182 -611.77 550.83 -620.873 555.807 -629.021C560.829 -637.185 565.62 -645.279 573.665 -651.53C581.626 -657.763 594.282 -661.128 603.596 -656.951" stroke="#159D45" stroke-width="1.33334" stroke-miterlimit="10"/>
<path d="M289.559 703.556C292.034 700.37 294.338 697.086 296.471 693.713C325.63 638.239 333.172 572.849 326.652 508.642C323.925 482.067 318.804 455.705 312.185 430.016C302.782 393.449 290.711 357.507 278.973 321.096C260.645 264.261 243.783 205.1 239.349 148.448C238.964 143.348 238.702 138.205 238.591 133.051C237.478 84.6416 247.024 37.2976 285.474 6.70726C318.51 -19.5726 365.123 -25.4082 407.078 -35.4986C448.943 -45.537 492.133 -63.6468 511.661 -102.312C522.432 -123.612 524.084 -148.112 521.843 -172.157C521.164 -179.501 520.13 -186.804 518.894 -193.977C508.764 -252.77 486.526 -309.074 469.444 -366.355C460.989 -394.698 453.801 -423.413 449.964 -452.768C445.08 -490.16 446.808 -528.926 461.158 -563.708C464.723 -572.344 469.287 -581.009 476.049 -587.139C492.234 -601.813 514.139 -600.172 532.091 -613.602C540.279 -619.728 545.894 -627.854 550.988 -635.089C556.128 -642.345 561.117 -649.441 568.842 -654.895C576.486 -660.328 588.064 -663.262 596.876 -659.78" stroke="#159D45" stroke-width="1.33334" stroke-miterlimit="10"/>
<path d="M290.305 705.247C293.064 701.709 295.64 698.067 298.041 694.331C328.723 638.963 337.43 573.172 331.996 508.278C329.726 481.429 325.046 454.746 318.796 428.765C309.915 391.769 298.251 355.422 286.665 318.74C268.58 261.487 251.224 202.474 245.146 145.153C244.611 139.997 244.188 134.787 243.913 129.557C241.245 80.4152 249.061 31.0677 287.098 -0.773666C319.776 -28.1297 366.636 -34.0952 408.967 -43.7384C451.223 -53.3379 495.42 -70.725 515.317 -109.455C526.297 -130.807 527.87 -155.46 525.497 -179.656C524.776 -187.039 523.701 -194.38 522.421 -201.585C511.916 -260.666 489.344 -317.186 472.025 -374.734C463.449 -403.22 456.163 -432.062 452.26 -461.578C447.294 -499.155 448.924 -538.215 463.612 -573.078C466.963 -581.029 471.18 -588.981 477.236 -594.859C491.728 -608.923 511.211 -609.678 527.812 -622.044C535.392 -627.689 540.972 -634.839 546.183 -641.162C551.44 -647.509 556.625 -653.611 564.036 -658.26C571.357 -662.889 581.862 -665.39 590.173 -662.612" stroke="#159D45" stroke-width="1.33334" stroke-miterlimit="10"/>
<path d="M291.046 706.932C294.087 703.043 296.938 699.043 299.603 694.946C331.803 639.683 341.68 573.494 337.331 507.915C335.516 480.797 331.274 453.787 325.399 427.511C317.044 390.085 305.78 353.334 294.349 316.382C276.51 258.716 258.656 199.845 250.938 141.853C250.252 136.637 249.674 131.362 249.227 126.058C245.004 76.183 251.089 24.8273 288.714 -8.26026C321.034 -36.6887 368.141 -42.7878 410.844 -51.9811C453.496 -61.1443 498.694 -77.8063 518.956 -116.603C530.146 -138.007 531.636 -162.813 529.138 -187.154C528.379 -194.575 527.254 -201.954 525.931 -209.19C515.047 -268.559 492.145 -325.295 474.585 -383.11C465.887 -411.737 458.503 -440.708 454.534 -470.381C449.484 -508.14 450.989 -547.508 466.043 -582.442C469.176 -589.709 473.052 -596.946 478.404 -602.569C491.206 -616.018 508.261 -619.169 523.512 -630.47C530.485 -635.635 536.027 -641.806 541.356 -647.22C546.734 -652.653 552.114 -657.763 559.209 -661.614C566.21 -665.443 575.639 -667.508 583.451 -665.434" stroke="#159D45" stroke-width="1.33334" stroke-miterlimit="10"/>
<path d="M291.788 708.621C295.111 704.376 298.236 700.022 301.168 695.566C334.886 640.411 345.934 573.816 342.671 507.552C341.312 480.161 337.511 452.83 332.006 426.257C324.173 388.404 313.316 351.246 302.041 314.025C284.446 255.941 266.097 197.218 256.735 138.557C255.9 133.285 255.163 127.944 254.55 122.56C248.771 71.9522 253.127 18.5929 290.335 -15.7503C322.301 -45.2503 369.651 -51.4802 412.732 -60.23C455.775 -68.958 501.975 -84.8947 522.609 -123.752C534.01 -145.211 535.418 -170.163 532.789 -194.658C531.989 -202.118 530.821 -209.532 529.45 -216.801C518.191 -276.458 494.956 -333.41 477.155 -391.492C468.339 -420.262 460.853 -449.36 456.815 -479.195C451.683 -517.139 453.019 -556.836 468.482 -591.816C471.394 -598.404 474.935 -604.924 479.577 -610.294C490.685 -623.132 505.321 -628.679 519.217 -638.913C525.578 -643.594 531.089 -648.792 536.535 -653.294C542.03 -657.818 547.604 -661.93 554.382 -664.981C561.062 -668.006 569.418 -669.643 576.727 -668.264" stroke="#159D45" stroke-width="1.33334" stroke-miterlimit="10"/>
<path d="M292.529 710.31C296.134 705.713 299.534 701.002 302.73 696.185C337.966 641.136 350.183 574.141 348.006 507.19C347.1 479.524 343.741 451.871 338.609 425.008C331.301 386.724 320.844 349.162 309.725 311.671C292.372 253.169 273.529 194.593 262.523 135.26C261.539 129.933 260.64 124.524 259.863 119.065C252.53 67.7239 255.154 12.3601 291.95 -23.2331C323.56 -53.8092 371.156 -60.169 414.613 -68.4716C458.052 -76.7634 505.253 -91.9748 526.256 -130.897C537.867 -152.409 539.196 -177.513 536.438 -202.154C535.6 -209.652 534.383 -217.107 532.969 -224.408C521.334 -284.348 497.765 -341.52 479.723 -399.866C470.785 -428.776 463.201 -458.004 459.098 -487.996C453.882 -526.122 454.994 -566.178 470.921 -601.178C473.608 -607.088 476.814 -612.887 480.749 -618.003C490.164 -630.227 502.376 -638.173 514.921 -647.338C520.675 -651.539 526.15 -655.761 531.709 -659.352C537.322 -662.967 543.095 -666.085 549.556 -668.335C555.915 -670.559 563.196 -671.761 570.005 -671.086" stroke="#159D45" stroke-width="1.33334" stroke-miterlimit="10"/>
<path d="M293.276 711.996C355.441 632.878 362.593 522.865 345.224 423.756C327.852 324.646 289.077 230.427 268.328 131.962C256.515 75.9194 253.334 10.0369 293.579 -30.7175C324.83 -62.366 372.673 -68.8594 416.502 -76.7121C460.333 -84.5685 508.54 -99.0537 529.912 -138.042C545.327 -166.162 542.764 -200.559 536.492 -232.014C518.527 -322.096 473.967 -405.818 461.389 -496.804C456.095 -535.114 456.907 -575.56 473.37 -610.546C489.833 -645.531 524.57 -673.759 563.303 -673.906" stroke="#159D45" stroke-width="1.33334" stroke-miterlimit="10"/>
<path d="M286.205 708.475C346.628 628.546 356.227 519.324 343.129 422.5C330.979 333.559 302.093 249.979 284.088 161.31C282.504 153.506 280.999 145.663 279.592 137.779C273.96 106.099 270.79 71.1103 276.216 39.2183C280.287 15.2858 289.233 -6.87848 305.78 -24.5954C318.362 -38.071 333.71 -47.2725 350.393 -54.0886C373.409 -63.5272 398.965 -68.4287 423.216 -73.7694C465.048 -82.9594 511.065 -98.5259 531.358 -137.661C544.395 -162.809 543.746 -192.748 539.131 -221.222C538.565 -224.711 537.94 -228.175 537.276 -231.611C525.993 -289.794 504.413 -345.583 488.582 -401.618C479.912 -432.363 472.895 -463.075 469.713 -494.637C465.894 -532.14 467.961 -571.702 485.023 -606.085C502.088 -640.468 536.671 -668.43 574.985 -669.538" stroke="#159D45" stroke-width="1.33334" stroke-miterlimit="10"/>
<path d="M279.133 704.954C337.813 624.215 349.861 515.779 341.032 421.248C332.698 334.455 308.973 254.263 294.477 166.839C293.2 159.145 291.989 151.396 290.856 143.596C286.334 112.232 283.926 77.4617 289.422 45.5727C293.537 21.6839 302.153 -0.528592 317.982 -18.4727C330.014 -32.1223 344.651 -41.6724 360.555 -48.9232C382.494 -58.9873 406.84 -64.6978 429.93 -70.8261C469.759 -81.3544 513.591 -98.0011 532.803 -137.281C545.146 -162.522 544.381 -192.372 539.866 -220.814C539.314 -224.299 538.706 -227.764 538.057 -231.199C527.092 -289.393 506.628 -345.452 492.971 -400.977C485.506 -431.461 479.941 -461.563 478.033 -492.463C475.693 -529.157 479.011 -567.832 496.672 -601.613C514.338 -635.397 548.773 -663.092 586.665 -665.153" stroke="#159D45" stroke-width="1.33334" stroke-miterlimit="10"/>
<path d="M272.063 701.429C329.003 619.876 343.496 512.235 338.942 419.99C334.427 335.35 315.861 258.537 304.876 172.366C303.909 164.782 302.988 157.13 302.128 149.411C298.72 118.368 297.071 83.8074 302.637 51.9288C306.796 28.0836 315.085 5.82401 330.191 -12.3483C341.675 -26.1756 355.602 -36.0743 370.725 -43.7561C391.586 -54.4503 414.726 -60.964 436.655 -67.8799C474.483 -79.7465 516.128 -97.4698 534.256 -136.898C545.906 -162.236 545.023 -191.989 540.61 -220.409C540.07 -223.891 539.477 -227.355 538.848 -230.789C528.206 -288.993 508.848 -345.32 497.37 -400.341C491.109 -430.56 486.997 -460.056 486.36 -490.295C485.501 -526.184 490.069 -563.972 508.333 -597.15C526.601 -630.331 560.882 -657.76 598.354 -660.783" stroke="#159D45" stroke-width="1.33334" stroke-miterlimit="10"/>
<path d="M264.991 697.909C320.188 615.545 337.367 508.694 336.844 418.739C336.365 336.245 322.741 262.817 315.267 177.896C314.611 170.423 313.98 162.864 313.395 155.23C311.097 124.502 310.21 90.1562 315.846 58.2843C320.05 34.4828 328.013 12.1723 342.395 -6.22437C353.33 -20.2258 366.565 -30.4364 380.89 -38.5897C400.698 -49.8631 422.603 -57.2319 443.371 -64.9354C479.201 -78.1393 518.656 -96.9439 535.704 -136.516C546.655 -161.948 545.657 -191.613 541.348 -220.005C540.819 -223.484 540.242 -226.948 539.633 -230.38C529.309 -288.595 511.065 -345.188 501.763 -399.705C496.707 -429.66 494.048 -458.55 494.685 -488.123C495.3 -523.205 501.128 -560.107 519.986 -592.681C538.854 -625.263 572.983 -652.421 610.035 -656.401" stroke="#159D45" stroke-width="1.33334" stroke-miterlimit="10"/>
<path d="M257.922 694.384C311.376 611.209 331.056 505.16 334.755 417.48C338.143 337.152 329.628 267.094 325.663 183.422C325.313 176.058 324.977 168.594 324.664 161.044C323.478 130.631 323.349 96.4997 329.058 64.6392C333.305 40.8852 340.938 18.5228 354.601 -0.10103C364.988 -14.2802 377.518 -24.8299 391.058 -33.4237C409.795 -45.3169 430.483 -53.5003 450.09 -61.9914C483.918 -76.5336 521.186 -96.4147 537.154 -136.135C547.412 -161.663 546.297 -191.235 542.089 -219.6C541.571 -223.076 541.013 -226.535 540.421 -229.972C530.416 -288.197 513.286 -345.06 506.159 -399.07C502.311 -428.76 501.173 -457.042 503.012 -485.955C505.194 -520.226 512.185 -556.244 531.643 -588.219C551.114 -620.198 585.088 -647.09 621.725 -652.031" stroke="#159D45" stroke-width="1.33334" stroke-miterlimit="10"/>
<path d="M250.85 690.862C302.562 606.877 324.739 501.64 332.658 416.228C339.905 338.068 336.509 271.374 336.054 188.955C336.014 181.701 335.969 174.334 335.93 166.865C335.855 136.768 336.488 102.851 342.266 71.0012C346.557 47.2909 353.863 24.8813 366.805 6.02555C376.642 -8.32766 388.465 -19.2212 401.222 -28.2545C418.89 -40.7674 438.365 -49.7682 456.805 -59.0441C488.636 -74.9237 523.714 -95.8861 538.601 -135.75C548.165 -161.372 546.934 -190.851 542.827 -219.193C542.324 -222.665 541.778 -226.125 541.206 -229.56C531.519 -287.797 515.503 -344.926 510.551 -398.429C507.907 -427.853 508.233 -455.522 511.336 -483.781C515.009 -517.24 523.24 -552.378 543.296 -583.747C563.37 -615.123 597.189 -641.749 633.406 -647.651" stroke="#159D45" stroke-width="1.33334" stroke-miterlimit="10"/>
<path d="M243.778 687.342C293.748 602.546 318.414 498.123 330.566 414.974C341.671 338.985 343.395 275.652 346.448 194.481C346.715 187.337 346.964 180.064 347.194 172.679C348.23 142.898 349.625 109.195 355.474 77.3522C359.809 53.6856 366.788 31.2289 379.007 12.1449C388.297 -2.38603 399.415 -13.6225 411.386 -23.0925C427.984 -36.2289 446.221 -46.0736 463.521 -56.1079C493.313 -73.3833 526.24 -95.3646 540.045 -135.377C548.911 -161.097 547.567 -190.482 543.561 -218.798C543.069 -222.267 542.539 -225.726 541.987 -229.164C532.618 -287.408 517.714 -344.808 514.941 -397.806C513.502 -426.97 515.291 -454.026 519.653 -481.623C524.815 -514.267 534.288 -548.528 554.947 -579.294C575.621 -610.072 609.289 -636.43 645.084 -643.286" stroke="#159D45" stroke-width="1.33334" stroke-miterlimit="10"/>
<path d="M236.708 683.817C284.936 598.207 312.085 494.603 328.47 413.718C343.423 339.906 350.275 279.931 356.841 200.01C357.418 192.977 357.957 185.797 358.461 178.497C360.61 149.036 362.764 115.547 368.682 83.7105C373.062 60.0876 379.714 37.5837 391.211 18.2716C399.952 3.56287 410.366 -8.01647 421.55 -17.9232C437.08 -31.683 454.095 -42.3435 470.237 -53.1606C498.021 -71.78 528.772 -94.8348 541.492 -134.992C549.664 -160.809 548.204 -190.102 544.298 -218.387C543.818 -221.853 543.307 -225.311 542.771 -228.748C533.721 -287.003 519.931 -344.673 519.333 -397.164C519.099 -426.063 522.351 -452.507 527.977 -479.448C534.629 -511.277 545.342 -544.657 566.599 -574.821C587.876 -604.996 621.39 -631.089 656.769 -638.905" stroke="#159D45" stroke-width="1.33334" stroke-miterlimit="10"/>
<path d="M229.637 680.297C276.123 593.876 306.652 491.327 326.379 412.463C344.349 340.623 357.162 284.209 367.236 205.537C368.123 198.613 368.941 191.528 369.731 184.312C372.933 155.159 375.906 121.892 381.895 90.0623C386.319 66.4831 392.641 43.9273 403.418 24.3918C411.61 9.50904 421.317 -2.41787 431.718 -12.7604C446.18 -27.1473 461.972 -38.616 476.956 -50.2197C502.731 -70.1794 531.303 -94.3088 542.943 -134.614C550.421 -160.524 548.844 -189.724 545.04 -217.986C544.574 -221.448 544.075 -224.903 543.56 -228.343C534.831 -286.608 522.152 -344.544 523.729 -396.529C524.702 -425.163 529.623 -450.939 536.305 -477.28C544.188 -508.362 556.404 -540.796 578.257 -570.359C600.133 -599.936 633.499 -625.757 668.455 -634.535" stroke="#159D45" stroke-width="1.33334" stroke-miterlimit="10"/>
<path d="M222.566 676.772C267.31 589.54 299.4 487.583 324.283 411.208C346.911 341.759 364.044 288.485 377.628 211.066C378.822 204.252 379.93 197.264 380.999 190.126C385.308 161.287 389.044 128.236 395.105 96.4174C399.572 72.8856 405.568 50.279 415.622 30.5153C423.267 15.4548 432.271 3.18122 441.884 -7.5943C455.278 -22.6085 469.846 -34.8853 483.673 -47.2755C507.442 -68.5708 533.832 -93.7832 544.388 -134.233C551.172 -160.24 549.479 -189.347 545.771 -217.583C545.317 -221.043 544.834 -224.498 544.338 -227.936C535.928 -286.212 524.362 -344.414 528.115 -395.896C530.293 -424.265 536.457 -449.483 544.623 -475.114C554.243 -505.315 567.452 -536.935 589.908 -565.894C612.387 -594.868 645.598 -620.423 680.137 -630.157" stroke="#159D45" stroke-width="1.33334" stroke-miterlimit="10"/>
<path d="M215.495 673.25C258.496 585.208 293.04 484.075 322.191 409.953C348.642 342.686 370.929 292.766 388.022 216.592C389.526 209.888 390.925 202.994 392.267 195.94C397.687 167.417 402.185 134.58 408.315 102.772C412.827 79.2839 418.496 56.6301 427.829 36.6345C434.924 21.4 443.222 8.77511 452.051 -2.43242C464.374 -18.0785 477.721 -31.155 490.391 -44.3356C512.15 -66.9674 536.361 -93.2582 545.838 -133.856C551.924 -159.956 550.119 -188.974 546.512 -217.183C546.069 -220.64 545.605 -224.093 545.125 -227.531C537.034 -285.818 526.579 -344.291 532.511 -395.265C535.894 -423.373 543.511 -447.973 552.946 -472.947C564.046 -502.332 578.505 -533.077 601.56 -561.434C624.642 -589.804 657.698 -615.094 691.818 -625.789" stroke="#159D45" stroke-width="1.33334" stroke-miterlimit="10"/>
<path d="M208.428 669.731C249.686 580.878 286.676 480.571 320.098 408.702C350.365 343.615 377.814 297.047 398.418 222.126C400.233 215.534 401.923 208.732 403.537 201.763C410.065 173.551 415.328 140.934 421.529 109.132C426.085 85.6878 431.426 62.9869 440.037 42.7631C446.584 27.3508 454.175 14.3783 462.22 2.73875C473.469 -13.5402 485.597 -27.4155 497.111 -41.3864C516.863 -65.35 538.894 -92.7276 547.29 -133.469C552.682 -159.667 550.759 -188.588 547.254 -216.774C546.824 -220.231 546.375 -223.681 545.915 -227.118C538.142 -285.415 528.697 -344.17 536.908 -394.625C541.442 -422.475 550.568 -446.454 561.276 -470.774C573.857 -499.342 589.566 -529.212 613.218 -556.964C636.901 -584.735 669.806 -609.758 703.505 -621.411" stroke="#159D45" stroke-width="1.33334" stroke-miterlimit="10"/>
<path d="M201.357 666.206C240.871 576.538 280.302 477.056 318.008 407.444C352.083 344.535 384.702 301.321 408.812 227.652C410.933 221.169 412.918 214.462 414.806 207.577C422.445 179.681 428.47 147.278 434.739 115.487C439.34 92.0864 444.351 69.3336 452.242 48.8864C458.24 33.3 465.123 19.9715 472.386 7.90462C482.561 -9.00721 493.476 -23.684 503.828 -38.4425C521.578 -63.7407 541.422 -92.1986 548.739 -133.088C553.437 -159.378 551.398 -188.211 547.994 -216.37C547.578 -219.823 547.142 -223.274 546.702 -226.713C539.248 -285.022 530.919 -344.05 541.303 -393.991C547.042 -421.579 557.619 -444.945 569.602 -468.607C583.657 -496.36 600.622 -525.349 624.874 -552.498C649.159 -579.667 681.909 -604.423 715.191 -617.033" stroke="#159D45" stroke-width="1.33334" stroke-miterlimit="10"/>
<path d="M194.286 662.686C232.057 572.207 273.913 473.542 315.911 406.192C353.783 345.459 391.582 305.605 419.205 233.182C421.637 226.809 423.911 220.2 426.073 213.396C434.828 185.812 441.61 153.627 447.95 121.843C452.594 98.4859 457.279 75.6859 464.447 55.0106C469.893 39.2454 476.071 25.5656 482.552 13.0714C491.654 -4.477 501.353 -19.9479 510.546 -35.4977C526.291 -62.1267 543.952 -91.6723 550.184 -132.707C554.185 -159.095 552.033 -187.834 548.73 -215.966C548.325 -219.416 547.907 -222.862 547.485 -226.305C540.349 -284.621 533.132 -343.927 545.694 -393.356C552.638 -420.684 564.662 -443.433 577.924 -466.436C593.453 -493.377 611.678 -521.485 636.529 -548.032C661.418 -574.601 694.012 -599.088 726.875 -612.659" stroke="#159D45" stroke-width="1.33334" stroke-miterlimit="10"/>
<path d="M187.215 659.164C223.244 567.875 267.521 470.018 313.819 404.937C355.482 346.373 398.468 309.882 429.602 238.712C432.345 232.446 434.913 225.934 437.344 219.215C447.21 191.946 454.753 159.98 461.163 128.202C465.851 104.893 470.209 82.0417 476.655 61.1382C481.552 45.199 487.016 31.1659 492.717 18.2407C500.742 0.054628 509.229 -16.2092 517.262 -32.5503C531.003 -60.5065 546.48 -91.1399 551.632 -132.322C554.938 -158.803 552.671 -187.453 549.468 -215.555C549.074 -219.002 548.672 -222.447 548.269 -225.889C541.455 -284.215 535.45 -343.762 550.087 -392.714C558.291 -419.762 571.707 -441.914 586.245 -464.262C603.249 -490.393 622.73 -517.619 648.179 -543.561C673.666 -569.528 706.11 -593.748 738.552 -608.276" stroke="#159D45" stroke-width="1.33334" stroke-miterlimit="10"/>
<path d="M180.145 655.639C214.431 563.539 261.121 466.484 311.724 403.681C357.171 347.277 405.35 314.158 439.993 244.237C443.042 238.08 445.904 231.663 448.605 225.027C459.585 198.075 467.883 166.321 474.366 134.555C479.098 111.289 483.126 88.3901 488.854 67.2557C493.202 51.1388 497.954 36.7523 502.877 23.4008C509.819 4.57984 517.104 -12.4788 523.977 -29.6112C535.722 -58.8963 549.006 -90.6193 553.078 -131.945C555.691 -158.523 553.306 -187.077 550.204 -215.156C549.826 -218.599 549.436 -222.045 549.053 -225.485C542.558 -283.822 537.667 -343.638 554.479 -392.084C563.888 -418.871 578.747 -440.412 594.569 -462.099C613.038 -487.417 633.783 -513.761 659.832 -539.104C685.924 -564.472 718.215 -588.421 750.238 -603.91" stroke="#159D45" stroke-width="1.33334" stroke-miterlimit="10"/>
<path d="M173.073 652.119C205.617 559.208 254.714 462.945 309.632 402.427C358.862 348.178 412.235 318.439 450.389 249.768C453.749 243.722 456.902 237.398 459.876 230.846C471.972 204.207 481.027 172.671 487.58 140.911C492.357 117.689 496.057 94.7431 501.062 73.3806C504.863 57.0859 508.901 42.3461 513.047 28.5683C518.905 9.10778 524.989 -8.74097 530.698 -26.6657C540.443 -57.2806 551.539 -90.0887 554.531 -131.562C556.449 -158.233 553.949 -186.698 550.948 -214.75C550.581 -218.19 550.21 -221.635 549.843 -225.075C543.666 -283.423 539.89 -343.505 558.876 -391.444C569.494 -417.966 585.794 -438.899 602.897 -459.922C622.838 -484.434 644.842 -509.892 671.493 -534.628C698.184 -559.394 730.325 -583.08 761.927 -599.527" stroke="#159D45" stroke-width="1.33334" stroke-miterlimit="10"/>
<path d="M166.002 648.594C196.804 554.868 248.304 459.396 307.536 401.171C360.542 349.067 419.117 322.715 460.779 255.292C464.448 249.357 467.907 243.134 471.14 236.659C484.403 210.363 494.164 179.014 500.786 147.265C505.607 124.087 508.981 101.09 513.263 79.5025C516.514 63.0338 519.836 47.9397 523.208 33.7329C527.981 13.6365 532.869 -5.00501 537.41 -23.723C545.16 -55.6705 554.064 -89.5646 555.971 -131.183C557.192 -157.952 554.58 -186.323 551.679 -214.348C551.323 -217.786 550.969 -221.23 550.621 -224.669C544.763 -283.028 542.1 -343.376 563.262 -390.812C575.084 -417.069 592.83 -437.398 611.215 -457.757C632.621 -481.464 655.89 -506.031 683.141 -530.169C710.434 -554.332 742.421 -577.752 773.603 -595.156" stroke="#159D45" stroke-width="1.33334" stroke-miterlimit="10"/>
<path d="M158.932 645.073C187.992 550.538 241.895 455.84 305.445 399.917C362.227 349.951 426.004 326.993 471.177 260.824C475.153 254.998 478.904 248.872 482.412 242.479C496.786 216.498 507.309 185.364 514.001 153.622C518.866 130.491 521.914 107.443 525.473 85.6277C528.176 68.9812 530.779 53.5365 533.379 38.9007C537.066 18.1684 540.755 -1.26696 544.132 -20.7773C549.89 -54.0526 556.598 -89.0374 557.425 -130.8C557.952 -157.666 555.222 -185.941 552.423 -213.942C552.082 -217.376 551.739 -220.817 551.413 -224.262C545.874 -282.632 544.322 -343.251 567.662 -390.179C580.689 -416.171 599.877 -435.898 619.547 -455.591C642.421 -478.493 666.953 -502.174 694.802 -525.706C722.699 -549.269 754.53 -572.419 785.296 -590.784" stroke="#159D45" stroke-width="1.33334" stroke-miterlimit="10"/>
<path d="M151.86 641.552C179.178 546.206 235.483 452.275 303.348 398.665C363.907 350.828 432.88 331.276 481.566 266.352C485.852 260.636 489.895 254.605 493.676 248.296C509.16 222.634 520.445 191.711 527.207 159.979C532.116 136.892 534.833 113.796 537.673 91.7536C539.827 74.9331 541.71 59.1331 543.541 44.0691C546.138 22.7 548.672 2.47066 550.845 -17.8307C554.674 -52.4329 559.126 -88.5047 558.869 -130.416C558.702 -157.375 555.856 -185.561 553.158 -213.536C552.828 -216.966 552.505 -220.406 552.199 -223.85C546.978 -282.231 546.539 -343.116 572.055 -389.537C586.287 -415.268 606.917 -434.392 627.867 -453.414C652.206 -475.514 678.007 -498.303 706.451 -521.234C734.948 -544.195 766.628 -567.078 796.974 -586.404" stroke="#159D45" stroke-width="1.33334" stroke-miterlimit="10"/>
<path d="M144.79 638.027C170.365 541.87 229.073 448.699 301.257 397.406C365.595 351.692 439.767 335.549 491.964 271.879C496.557 266.272 500.894 260.335 504.948 254.111C521.543 228.765 533.589 198.06 540.421 166.335C545.374 143.292 547.764 120.148 549.883 97.8741C551.489 80.8758 552.653 64.729 553.711 49.2323C555.218 27.23 556.555 6.19941 557.567 -14.8895C559.394 -50.8301 561.66 -87.9821 560.323 -130.037C559.458 -157.094 556.5 -185.186 553.903 -213.135C553.584 -216.562 553.276 -220.002 552.99 -223.445C548.091 -281.835 548.763 -342.987 576.454 -388.905C591.895 -414.371 613.963 -432.895 636.198 -451.249C662.003 -472.549 689.068 -494.443 718.115 -516.77C747.215 -539.132 778.741 -561.749 808.669 -582.028" stroke="#159D45" stroke-width="1.33334" stroke-miterlimit="10"/>
<path d="M137.719 634.507C161.553 537.535 222.666 445.119 299.161 396.155C367.276 352.559 446.649 339.83 502.353 277.411C507.256 271.916 511.883 266.075 516.211 259.932C533.917 234.902 546.722 204.411 553.627 172.693C558.625 149.694 560.689 126.499 562.084 104.001C563.141 86.8284 563.584 70.3263 563.873 54.4016C564.285 31.7689 564.433 9.93532 564.28 -11.9422C564.106 -49.221 564.184 -87.4497 561.764 -129.654C560.205 -156.803 557.13 -184.803 554.633 -212.725C554.326 -216.149 554.038 -219.588 553.767 -223.03C549.186 -281.428 550.97 -342.854 580.84 -388.264C597.485 -413.465 620.996 -431.391 644.516 -449.075C671.787 -469.578 700.116 -490.577 729.762 -512.303C759.465 -534.061 790.84 -556.412 820.345 -577.652" stroke="#159D45" stroke-width="1.33334" stroke-miterlimit="10"/>
<path d="M130.651 630.987C152.742 533.205 216.262 441.533 297.072 394.901C368.969 353.416 453.537 344.111 512.753 282.939C517.966 277.554 522.884 271.807 527.486 265.748C546.306 241.034 559.87 210.757 566.844 179.05C571.886 156.094 573.623 132.853 574.296 110.126C574.804 92.776 574.492 75.9293 574.046 59.5695C573.323 36.3077 572.318 13.6688 571.004 -8.99627C568.832 -47.6124 566.72 -86.9223 563.219 -129.27C560.967 -156.517 557.775 -184.424 555.379 -212.318C555.087 -215.739 554.81 -219.175 554.56 -222.619C550.298 -281.028 553.195 -342.721 585.241 -387.627C603.09 -412.564 628.02 -429.932 652.848 -446.902C681.557 -466.655 711.179 -486.712 741.423 -507.832C771.725 -528.988 802.949 -551.071 832.034 -573.273" stroke="#159D45" stroke-width="1.33334" stroke-miterlimit="10"/>
<path d="M123.581 627.462C143.93 528.87 209.801 437.824 294.977 393.646C370.607 354.167 460.419 348.388 523.143 288.468C528.663 283.192 533.874 277.544 538.75 271.566C558.681 247.167 573.006 217.105 580.051 185.405C585.136 162.496 586.543 139.203 586.497 116.249C586.457 98.7248 585.435 81.5258 584.208 64.735C582.406 40.843 580.192 17.4 577.718 -6.05268C573.543 -46.0034 569.245 -86.3936 564.665 -128.889C561.718 -156.229 558.41 -184.047 556.116 -211.915C555.834 -215.332 555.573 -218.768 555.343 -222.211C551.399 -280.631 555.41 -342.59 589.631 -386.989C608.685 -411.665 635.068 -428.424 661.166 -444.732C691.351 -463.677 722.227 -482.846 753.071 -503.368C783.977 -523.925 815.045 -545.738 843.713 -568.897" stroke="#159D45" stroke-width="1.33334" stroke-miterlimit="10"/>
<path d="M116.51 623.941C135.116 524.538 203.435 434.279 292.885 392.395C372.331 355.064 467.305 352.669 533.54 293.998C539.37 288.833 544.873 283.278 550.018 277.38C571.06 253.301 586.148 223.45 593.262 191.76C598.391 168.895 599.471 145.554 598.703 122.372C598.114 104.67 596.377 87.1252 594.375 69.9007C591.493 45.3822 588.075 21.1323 584.436 -3.11274C578.264 -44.4007 571.776 -85.8722 566.115 -128.512C562.471 -155.949 559.05 -183.67 556.857 -211.515C556.587 -214.933 556.345 -218.364 556.132 -221.811C552.507 -280.241 557.633 -342.469 594.028 -386.362C614.291 -410.772 642.122 -426.926 669.495 -442.572C701.16 -460.713 733.29 -478.993 764.733 -498.909C796.237 -518.864 827.154 -540.411 855.403 -564.53" stroke="#159D45" stroke-width="1.33334" stroke-miterlimit="10"/>
<path d="M109.439 620.416C126.303 520.202 197.069 430.734 290.789 391.135C374.051 355.956 474.186 356.945 543.933 299.524C575.169 273.806 597.53 237.546 606.472 198.114C615.599 157.866 610.964 115.847 604.54 75.0663C589.494 -20.4693 564.843 -114.68 557.596 -211.111C552.991 -272.407 557.572 -339.782 598.422 -385.727C619.889 -409.873 649.174 -425.421 677.821 -440.404C744.175 -475.104 811.488 -510.056 867.087 -560.157" stroke="#159D45" stroke-width="1.33334" stroke-miterlimit="10"/>
</g>
<defs>
<clipPath id="clip0_316_687">
<rect width="1409" height="531" fill="white" transform="translate(0 634.035) rotate(-75.0989)"/>
</clipPath>
</defs>
</svg>
