<?xml version="1.0" encoding="UTF-8" standalone="no"?>
<!DOCTYPE svg PUBLIC "-//W3C//DTD SVG 1.1//EN" "http://www.w3.org/Graphics/SVG/1.1/DTD/svg11.dtd">
<svg width="100%" height="100%" viewBox="0 0 544 158" version="1.1" xmlns="http://www.w3.org/2000/svg" xmlns:xlink="http://www.w3.org/1999/xlink" xml:space="preserve" xmlns:serif="http://www.serif.com/" style="fill-rule:evenodd;clip-rule:evenodd;stroke-linejoin:round;stroke-miterlimit:2;">
    <g transform="matrix(0.75,0,0,0.75,0,0)">
        <g transform="matrix(1,0,0,1,-28.98,-34.88)">
            <path d="M194.01,48.83L194.01,109.31L146.66,109.31L146.66,84.96L102.87,84.96L102.87,122.73L154.87,122.73L154.87,159.13L102.87,159.13L102.87,203.74L146.66,203.74L146.66,178.29L194.01,178.29L194.01,240.14L28.98,240.14L28.98,203.74L46.22,203.74L46.22,84.96L28.98,84.96L28.98,48.83L194.01,48.83Z" style="fill:white;fill-rule:nonzero;"/>
        </g>
        <g transform="matrix(1,0,0,1,-28.98,-34.88)">
            <path d="M299.37,165.15C298.82,152.01 294.72,136.41 282.13,136.41C265.98,136.41 258.05,153.65 258.05,171.44C258.05,189.23 268.72,203.46 286.24,203.73C300.75,204 310.32,197.98 319.36,188.13L343.44,216.05C330.58,230.01 305.95,243.97 276.39,243.97C236.16,243.97 201.13,219.61 201.13,170.9C201.13,122.46 233.42,100.84 268.46,100.84C287.07,100.84 298.02,110.97 302.67,116.44L307.32,103.3L339.61,103.3L339.61,165.15L299.37,165.15Z" style="fill:white;fill-rule:nonzero;"/>
        </g>
        <g transform="matrix(1,0,0,1,-28.98,-34.88)">
            <path d="M353.01,240.14L353.01,204.29L364.5,204.29L364.5,70.45L353.01,70.45L353.01,34.88L419.24,34.88L419.24,120.27C422.25,115.34 442.23,98.38 462.21,98.38C504.63,98.38 510.1,129.85 510.1,158.59L510.1,204.29L522.96,204.29L522.96,240.14L452.62,240.14L452.62,165.7C452.62,156.4 452.62,140.25 436.47,140.25C422.51,140.25 419.23,153.93 419.23,165.7L419.23,204.29L438.94,204.29L438.94,240.14L353.01,240.14Z" style="fill:white;fill-rule:nonzero;"/>
        </g>
        <g transform="matrix(1,0,0,1,-28.98,-34.88)">
            <path d="M530.08,171.17C530.35,125.46 567.3,100.01 605.07,100.01C648.31,100.56 680.33,126.56 681.15,172.26C681.7,217.69 648.03,243.69 606.43,243.69C567.3,243.69 529.53,219.61 530.08,171.17ZM625.05,172.26C625.05,151.73 617.93,135.86 605.07,135.59C594.4,135.59 586.19,151.46 586.19,171.44C586.19,193.88 594.95,208.66 606.44,208.66C618.21,208.66 625.05,192.79 625.05,172.26Z" style="fill:white;fill-rule:nonzero;"/>
        </g>
        <g transform="matrix(1,0,0,1,-28.98,-34.88)">
            <circle cx="722.27" cy="213.27" r="31.87" style="fill:rgb(104,104,104);"/>
        </g>
    </g>
</svg>
