<svg id="nav-left-hover" xmlns="http://www.w3.org/2000/svg" width="47" height="47" viewBox="0 0 47 47">
  <circle id="Ellipse_335" data-name="Ellipse 335" cx="23.5" cy="23.5" r="23.5" transform="translate(47 47) rotate(180)" fill="#fff"/>
  <path id="Ellipse_335_-_Outline" data-name="Ellipse 335 - Outline" d="M23.5,3a20.506,20.506,0,0,0-7.979,39.39A20.506,20.506,0,0,0,31.479,4.61,20.369,20.369,0,0,0,23.5,3m0-3A23.5,23.5,0,1,1,0,23.5,23.5,23.5,0,0,1,23.5,0Z" transform="translate(47 47) rotate(180)" fill="#c9e3e1"/>
  <circle id="Ellipse_336" data-name="Ellipse 336" cx="18.5" cy="18.5" r="18.5" transform="translate(42 42) rotate(180)" fill="#c9e3e1"/>
  <path id="Path_22245" data-name="Path 22245" d="M406.232,455.786l-17.353-17.353L391,436.311l15.232,15.232,15.232-15.232,2.121,2.121Z" transform="translate(471.523 -383.436) rotate(90)" fill="#fff"/>
</svg>
