<svg width="115" height="116" viewBox="0 0 115 116" fill="none" xmlns="http://www.w3.org/2000/svg">
<path d="M87.9886 60.031C87.4624 60.031 87.0415 59.6038 87.0415 59.0809C87.0415 58.5579 87.4624 58.1307 87.9886 58.1307C88.5148 58.1307 88.9358 58.5579 88.9358 59.0809C88.9358 59.6038 88.5148 60.031 87.9886 60.031ZM87.2081 65.9408C86.8749 65.9408 86.6118 65.6706 86.6118 65.3393C86.6118 65.0081 86.8749 64.7379 87.2081 64.7379C87.5414 64.7379 87.8045 65.0081 87.8045 65.3393C87.8045 65.6706 87.5414 65.9408 87.2081 65.9408ZM87.2081 52.1948C87.5414 52.1948 87.8045 52.465 87.8045 52.7962C87.8045 53.1274 87.5414 53.3977 87.2081 53.3977C86.8749 53.3977 86.6118 53.1274 86.6118 52.7962C86.6118 52.465 86.8749 52.1948 87.2081 52.1948ZM87.0152 38.5969L86.7696 38.902C86.7696 38.902 86.7345 38.8497 86.7258 38.8236L87.0152 38.5882V38.5969ZM85.4015 47.6186C85.0683 47.6186 84.8052 47.3484 84.8052 47.0171C84.8052 46.6859 85.0683 46.4157 85.4015 46.4157C85.7348 46.4157 85.9979 46.6859 85.9979 47.0171C85.9979 47.3484 85.7348 47.6186 85.4015 47.6186ZM85.4015 71.7199C85.0683 71.7199 84.8052 71.4496 84.8052 71.1184C84.8052 70.7872 85.0683 70.517 85.4015 70.517C85.7348 70.517 85.9979 70.7872 85.9979 71.1184C85.9979 71.4496 85.7348 71.7199 85.4015 71.7199ZM83.6388 66.917C83.0863 66.917 82.639 66.4638 82.639 65.9059C82.639 65.3481 83.0863 64.9035 83.6388 64.9035C84.1913 64.9035 84.6385 65.3568 84.6385 65.9059C84.6385 66.4551 84.1913 66.917 83.6388 66.917ZM82.1566 72.7136C81.7357 72.7136 81.3849 72.3649 81.3849 71.9465C81.3849 71.5281 81.7269 71.1707 82.1566 71.1707C82.5864 71.1707 82.9284 71.5194 82.9284 71.9465C82.9284 72.3736 82.5864 72.7136 82.1566 72.7136ZM81.3761 78.5362C81.0429 78.5362 80.7798 78.266 80.7798 77.9348C80.7798 77.6035 81.0429 77.3333 81.3761 77.3333C81.7094 77.3333 81.9725 77.6035 81.9725 77.9348C81.9725 78.266 81.7094 78.5362 81.3761 78.5362ZM78.8241 60.8503C77.8506 60.8503 77.0613 60.0571 77.0613 59.0809C77.0613 58.1046 77.8506 57.3114 78.8241 57.3114C79.7975 57.3114 80.5868 58.1046 80.5868 59.0809C80.5868 60.0571 79.7975 60.8503 78.8241 60.8503ZM78.5785 68.1461C77.6927 68.1461 76.9736 67.4226 76.9736 66.5335C76.9736 65.6444 77.6927 64.921 78.5785 64.921C79.4643 64.921 80.1834 65.6444 80.1834 66.5335C80.1834 67.4226 79.4643 68.1461 78.5785 68.1461ZM77.9822 74.0298C77.2893 74.0298 76.7368 73.4719 76.7368 72.7833C76.7368 72.0947 77.2893 71.5368 77.9822 71.5368C78.675 71.5368 79.2275 72.0947 79.2275 72.7833C79.2275 73.4719 78.6662 74.0298 77.9822 74.0298ZM77.0262 79.8699C76.5 79.8699 76.0615 79.4427 76.0615 78.9023C76.0615 78.3619 76.4913 77.9348 77.0262 77.9348C77.5612 77.9348 77.9909 78.3619 77.9909 78.9023C77.9909 79.4427 77.5612 79.8699 77.0262 79.8699ZM75.8949 84.0538C75.5617 84.0538 75.2986 83.7836 75.2986 83.4524C75.2986 83.1211 75.5617 82.8509 75.8949 82.8509C76.2282 82.8509 76.4913 83.1211 76.4913 83.4524C76.4913 83.7836 76.2282 84.0538 75.8949 84.0538ZM72.4659 61.3472C71.2205 61.3472 70.2032 60.336 70.2032 59.0809C70.2032 57.8257 71.2118 56.8145 72.4659 56.8145C73.72 56.8145 74.7197 57.8257 74.7197 59.0809C74.7197 60.336 73.7112 61.3472 72.4659 61.3472ZM72.4045 68.7911C71.4486 68.7911 70.6768 68.0153 70.6768 67.0565C70.6768 66.0977 71.4486 65.3219 72.4045 65.3219C73.3604 65.3219 74.1322 66.0977 74.1322 67.0565C74.1322 68.0153 73.3604 68.7911 72.4045 68.7911ZM71.8169 75.2414C70.9662 75.2414 70.2646 74.544 70.2646 73.6898C70.2646 72.8356 70.9574 72.1383 71.8169 72.1383C72.6764 72.1383 73.3692 72.8356 73.3692 73.6898C73.3692 74.544 72.6764 75.2414 71.8169 75.2414ZM70.896 81.0117C70.2559 81.0117 69.7472 80.4974 69.7472 79.8611C69.7472 79.2248 70.2646 78.7018 70.896 78.7018C71.5275 78.7018 72.0449 79.2161 72.0449 79.8611C72.0449 80.5062 71.5275 81.0117 70.896 81.0117ZM70.1594 84.9167C69.677 84.9167 69.2912 84.5245 69.2912 84.0451C69.2912 83.5657 69.677 83.1734 70.1594 83.1734C70.6417 83.1734 71.0276 83.5657 71.0276 84.0451C71.0276 84.5245 70.6417 84.9167 70.1594 84.9167ZM69.2561 87.9327C68.9228 87.9327 68.6597 87.6625 68.6597 87.3312C68.6597 87 68.9316 86.7298 69.2561 86.7298C69.5806 86.7298 69.8524 87 69.8524 87.3312C69.8524 87.6625 69.5893 87.9327 69.2561 87.9327ZM65.2921 62.0183C63.6696 62.0183 62.3629 60.7021 62.3629 59.0809C62.3629 57.4596 63.6784 56.1434 65.2921 56.1434C66.9057 56.1434 68.2212 57.4596 68.2212 59.0809C68.2212 60.7021 66.9057 62.0183 65.2921 62.0183ZM65.5639 69.3664C64.494 69.3664 63.617 68.4947 63.617 67.4139C63.617 66.333 64.4852 65.4614 65.5639 65.4614C66.6426 65.4614 67.5109 66.333 67.5109 67.4139C67.5109 68.4947 66.6426 69.3664 65.5639 69.3664ZM65.2132 75.991C64.2748 75.991 63.5118 75.2239 63.5118 74.2825C63.5118 73.3411 64.2748 72.5741 65.2132 72.5741C66.1515 72.5741 66.9145 73.3411 66.9145 74.2825C66.9145 75.2239 66.1515 75.991 65.2132 75.991ZM64.6694 81.9705C63.8363 81.9705 63.161 81.2906 63.161 80.4539C63.161 79.6171 63.8363 78.9372 64.6694 78.9372C65.5025 78.9372 66.1866 79.6171 66.1866 80.4539C66.1866 81.2906 65.5113 81.9705 64.6694 81.9705ZM64.0555 86.6775C63.4416 86.6775 62.9505 86.1806 62.9505 85.5618C62.9505 84.9429 63.4504 84.446 64.0555 84.446C64.6606 84.446 65.1605 84.9429 65.1605 85.5618C65.1605 86.1806 64.6606 86.6775 64.0555 86.6775ZM63.4942 89.7283C63.161 89.7283 62.8979 89.4581 62.8979 89.1268C62.8979 88.7956 63.161 88.5254 63.4942 88.5254C63.8275 88.5254 64.0906 88.7956 64.0906 89.1268C64.0906 89.4581 63.8275 89.7283 63.4942 89.7283ZM63.4942 28.4073C63.8275 28.4073 64.0906 28.6775 64.0906 29.0087C64.0906 29.3399 63.8275 29.6102 63.4942 29.6102C63.161 29.6102 62.8979 29.3399 62.8979 29.0087C62.8979 28.6775 63.161 28.4073 63.4942 28.4073ZM65.1605 32.5651C65.1605 33.1752 64.6606 33.6808 64.0555 33.6808C63.4504 33.6808 62.9505 33.1839 62.9505 32.5651C62.9505 31.9462 63.4504 31.4494 64.0555 31.4494C64.6606 31.4494 65.1605 31.9462 65.1605 32.5651ZM66.1866 37.6817C66.1866 38.5185 65.5113 39.1984 64.6694 39.1984C63.8275 39.1984 63.161 38.5185 63.161 37.6817C63.161 36.8449 63.8363 36.165 64.6694 36.165C65.5025 36.165 66.1866 36.8449 66.1866 37.6817ZM66.9145 43.853C66.9145 44.7944 66.1515 45.5615 65.2132 45.5615C64.2748 45.5615 63.5118 44.7944 63.5118 43.853C63.5118 42.9116 64.2748 42.1446 65.2132 42.1446C66.1515 42.1446 66.9145 42.9116 66.9145 43.853ZM67.5109 50.7217C67.5109 51.8025 66.6426 52.6742 65.5639 52.6742C64.4852 52.6742 63.617 51.8025 63.617 50.7217C63.617 49.6408 64.4852 48.7692 65.5639 48.7692C66.6426 48.7692 67.5109 49.6408 67.5109 50.7217ZM69.2561 30.2116C69.5893 30.2116 69.8524 30.4818 69.8524 30.813C69.8524 31.1443 69.5893 31.4145 69.2561 31.4145C68.9228 31.4145 68.6597 31.1443 68.6597 30.813C68.6597 30.4818 68.9316 30.2116 69.2561 30.2116ZM69.1859 23.5783L69.221 23.8485L69.1508 23.9444L69.1947 23.587L69.1859 23.5783ZM71.0276 34.0905C71.0276 34.5699 70.6417 34.9621 70.1594 34.9621C69.677 34.9621 69.2912 34.5699 69.2912 34.0905C69.2912 33.6111 69.677 33.2188 70.1594 33.2188C70.6417 33.2188 71.0276 33.6111 71.0276 34.0905ZM72.0449 38.2744C72.0449 38.9107 71.5275 39.4337 70.896 39.4337C70.2646 39.4337 69.7472 38.9194 69.7472 38.2744C69.7472 37.6294 70.2646 37.1238 70.896 37.1238C71.5275 37.1238 72.0449 37.6381 72.0449 38.2744ZM73.3604 44.4457C73.3604 45.3 72.6676 45.9973 71.8081 45.9973C70.9487 45.9973 70.2559 45.3 70.2559 44.4457C70.2559 43.5915 70.9487 42.8942 71.8081 42.8942C72.6676 42.8942 73.3604 43.5915 73.3604 44.4457ZM74.1322 51.079C74.1322 52.0379 73.3604 52.8136 72.4045 52.8136C71.4486 52.8136 70.6768 52.0379 70.6768 51.079C70.6768 50.1202 71.4486 49.3445 72.4045 49.3445C73.3604 49.3445 74.1322 50.1202 74.1322 51.079ZM73.72 25.6877L73.9655 25.4959L73.7024 25.8272L73.72 25.6877ZM75.8949 34.0818C76.2282 34.0818 76.4913 34.352 76.4913 34.6832C76.4913 35.0144 76.2282 35.2846 75.8949 35.2846C75.5617 35.2846 75.2986 35.0144 75.2986 34.6832C75.2986 34.352 75.5617 34.0818 75.8949 34.0818ZM77.9822 39.2332C77.9822 39.7649 77.5524 40.2008 77.0175 40.2008C76.4825 40.2008 76.0528 39.7649 76.0528 39.2332C76.0528 38.7015 76.4825 38.2657 77.0175 38.2657C77.5524 38.2657 77.9822 38.6928 77.9822 39.2332ZM77.2542 28.7908L77.1052 28.9826C77.1052 28.9826 77.0701 28.9564 77.0613 28.9477L77.263 28.7908H77.2542ZM79.2275 45.361C79.2275 46.0496 78.6662 46.6075 77.9822 46.6075C77.2981 46.6075 76.7368 46.0496 76.7368 45.361C76.7368 44.6724 77.2893 44.1145 77.9822 44.1145C78.675 44.1145 79.2275 44.6724 79.2275 45.361ZM80.1922 51.602C80.1922 52.4911 79.473 53.2146 78.5873 53.2146C77.7015 53.2146 76.9824 52.4911 76.9824 51.602C76.9824 50.713 77.7015 49.9895 78.5873 49.9895C79.473 49.9895 80.1922 50.713 80.1922 51.602ZM81.3761 39.5993C81.7094 39.5993 81.9725 39.8695 81.9725 40.2008C81.9725 40.532 81.7094 40.8022 81.3761 40.8022C81.0429 40.8022 80.7798 40.532 80.7798 40.2008C80.7798 39.8695 81.0429 39.5993 81.3761 39.5993ZM82.9196 46.1978C82.9196 46.6249 82.5776 46.9735 82.1479 46.9735C81.7181 46.9735 81.3761 46.6249 81.3761 46.1978C81.3761 45.7707 81.7181 45.422 82.1479 45.422C82.5776 45.422 82.9196 45.7707 82.9196 46.1978ZM85.2436 59.0809C85.2436 59.8305 84.6385 60.4406 83.8843 60.4406C83.1301 60.4406 82.525 59.8305 82.525 59.0809C82.525 58.3312 83.1301 57.7211 83.8843 57.7211C84.6385 57.7211 85.2436 58.3312 85.2436 59.0809ZM83.6388 51.2272C84.1913 51.2272 84.6385 51.6805 84.6385 52.2296C84.6385 52.7788 84.1913 53.2408 83.6388 53.2408C83.0863 53.2408 82.639 52.7875 82.639 52.2296C82.639 51.6718 83.0863 51.2272 83.6388 51.2272ZM57.2325 62.5065C55.347 62.5065 53.821 60.9723 53.821 59.0809C53.821 57.1894 55.347 55.6552 57.2325 55.6552C59.1181 55.6552 60.644 57.1894 60.644 59.0809C60.644 60.9723 59.1181 62.5065 57.2325 62.5065ZM57.2413 69.5494C55.996 69.5494 54.9874 68.5383 54.9874 67.2831C54.9874 66.028 55.996 65.0168 57.2413 65.0168C58.4866 65.0168 59.4952 66.028 59.4952 67.2831C59.4952 68.5383 58.4866 69.5494 57.2413 69.5494ZM57.2413 76.3658C56.224 76.3658 55.3996 75.5377 55.3996 74.5179C55.3996 73.498 56.224 72.67 57.2413 72.67C58.2586 72.67 59.083 73.498 59.083 74.5179C59.083 75.5377 58.2586 76.3658 57.2413 76.3658ZM57.2413 82.2233C56.4081 82.2233 55.7241 81.5434 55.7241 80.7066C55.7241 79.8699 56.3994 79.19 57.2413 79.19C58.0832 79.19 58.7497 79.8699 58.7497 80.7066C58.7497 81.5434 58.0744 82.2233 57.2413 82.2233ZM57.2325 87.1395C56.6186 87.1395 56.1275 86.6426 56.1275 86.0237C56.1275 85.4049 56.6274 84.908 57.2325 84.908C57.8376 84.908 58.3375 85.4049 58.3375 86.0237C58.3375 86.6426 57.8376 87.1395 57.2325 87.1395ZM57.2325 90.3733C56.8993 90.3733 56.6362 90.1031 56.6362 89.7719C56.6362 89.4406 56.908 89.1704 57.2325 89.1704C57.557 89.1704 57.8289 89.4406 57.8289 89.7719C57.8289 90.1031 57.5658 90.3733 57.2325 90.3733ZM57.2413 48.5861C58.4866 48.5861 59.4952 49.5972 59.4952 50.8524C59.4952 52.1076 58.4866 53.1187 57.2413 53.1187C55.996 53.1187 54.9874 52.1076 54.9874 50.8524C54.9874 49.5972 55.996 48.5861 57.2413 48.5861ZM57.2413 41.7698C58.2586 41.7698 59.083 42.5978 59.083 43.6177C59.083 44.6375 58.2586 45.4656 57.2413 45.4656C56.224 45.4656 55.3996 44.6375 55.3996 43.6177C55.3996 42.5978 56.224 41.7698 57.2413 41.7698ZM57.2413 35.9122C58.0744 35.9122 58.7497 36.5921 58.7497 37.4289C58.7497 38.2657 58.0744 38.9456 57.2413 38.9456C56.4081 38.9456 55.7241 38.2657 55.7241 37.4289C55.7241 36.5921 56.3994 35.9122 57.2413 35.9122ZM57.2325 30.9961C57.8464 30.9961 58.3375 31.4929 58.3375 32.1118C58.3375 32.7307 57.8376 33.2275 57.2325 33.2275C56.6274 33.2275 56.1275 32.7307 56.1275 32.1118C56.1275 31.4929 56.6274 30.9961 57.2325 30.9961ZM57.2325 27.7622C57.5658 27.7622 57.8289 28.0325 57.8289 28.3637C57.8289 28.6949 57.5658 28.9651 57.2325 28.9651C56.8993 28.9651 56.6362 28.6949 56.6362 28.3637C56.6362 28.0325 56.908 27.7622 57.2325 27.7622ZM49.173 62.0183C47.5505 62.0183 46.2438 60.7021 46.2438 59.0809C46.2438 57.4596 47.5593 56.1434 49.173 56.1434C50.7866 56.1434 52.1021 57.4596 52.1021 59.0809C52.1021 60.7021 50.7866 62.0183 49.173 62.0183ZM50.9708 89.7283C50.6375 89.7283 50.3744 89.4581 50.3744 89.1268C50.3744 88.7956 50.6463 88.5254 50.9708 88.5254C51.2953 88.5254 51.5671 88.7956 51.5671 89.1268C51.5671 89.4581 51.304 89.7283 50.9708 89.7283ZM49.3045 85.5705C49.3045 84.9516 49.8044 84.4548 50.4095 84.4548C51.0146 84.4548 51.5145 84.9516 51.5145 85.5705C51.5145 86.1894 51.0146 86.6862 50.4095 86.6862C49.8044 86.6862 49.3045 86.1894 49.3045 85.5705ZM48.2784 80.4539C48.2784 79.6171 48.9537 78.9372 49.7869 78.9372C50.62 78.9372 51.3041 79.6171 51.3041 80.4539C51.3041 81.2906 50.6288 81.9705 49.7869 81.9705C48.9449 81.9705 48.2784 81.2906 48.2784 80.4539ZM47.5505 74.2825C47.5505 73.3411 48.3135 72.5741 49.2519 72.5741C50.1903 72.5741 50.9533 73.3411 50.9533 74.2825C50.9533 75.2239 50.1903 75.991 49.2519 75.991C48.3135 75.991 47.5505 75.2239 47.5505 74.2825ZM46.9542 67.4139C46.9542 66.333 47.8224 65.4614 48.9011 65.4614C49.9798 65.4614 50.848 66.333 50.848 67.4139C50.848 68.4947 49.9798 69.3664 48.9011 69.3664C47.8224 69.3664 46.9542 68.4947 46.9542 67.4139ZM48.9011 48.7692C49.9798 48.7692 50.848 49.6408 50.848 50.7217C50.848 51.8025 49.9798 52.6742 48.9011 52.6742C47.8224 52.6742 46.9542 51.8025 46.9542 50.7217C46.9542 49.6408 47.8224 48.7692 48.9011 48.7692ZM49.2519 42.1446C50.1903 42.1446 50.9533 42.9116 50.9533 43.853C50.9533 44.7944 50.1903 45.5615 49.2519 45.5615C48.3135 45.5615 47.5505 44.7944 47.5505 43.853C47.5505 42.9116 48.3135 42.1446 49.2519 42.1446ZM49.7956 36.165C50.6288 36.165 51.3128 36.8449 51.3128 37.6817C51.3128 38.5185 50.6375 39.1984 49.7956 39.1984C48.9537 39.1984 48.2872 38.5185 48.2872 37.6817C48.2872 36.8449 48.9625 36.165 49.7956 36.165ZM50.4095 31.4581C51.0234 31.4581 51.5145 31.9549 51.5145 32.5738C51.5145 33.1927 51.0146 33.6895 50.4095 33.6895C49.8044 33.6895 49.3045 33.1927 49.3045 32.5738C49.3045 31.9549 49.8044 31.4581 50.4095 31.4581ZM50.9708 28.4073C51.304 28.4073 51.5671 28.6775 51.5671 29.0087C51.5671 29.3399 51.304 29.6102 50.9708 29.6102C50.6375 29.6102 50.3744 29.3399 50.3744 29.0087C50.3744 28.6775 50.6463 28.4073 50.9708 28.4073ZM45.209 31.4058C44.8757 31.4058 44.6126 31.1356 44.6126 30.8043C44.6126 30.4731 44.8757 30.2029 45.209 30.2029C45.5422 30.2029 45.8053 30.4731 45.8053 30.8043C45.8053 31.1356 45.5422 31.4058 45.209 31.4058ZM45.209 87.9327C44.8757 87.9327 44.6126 87.6625 44.6126 87.3312C44.6126 87 44.8757 86.7298 45.209 86.7298C45.5422 86.7298 45.8053 87 45.8053 87.3312C45.8053 87.6625 45.5422 87.9327 45.209 87.9327ZM43.4374 84.0451C43.4374 83.5657 43.8233 83.1734 44.3056 83.1734C44.788 83.1734 45.1739 83.5657 45.1739 84.0451C45.1739 84.5245 44.788 84.9167 44.3056 84.9167C43.8233 84.9167 43.4374 84.5245 43.4374 84.0451ZM42.4201 79.8611C42.4201 79.2248 42.9375 78.7018 43.569 78.7018C44.2004 78.7018 44.7178 79.2161 44.7178 79.8611C44.7178 80.5062 44.2004 81.0117 43.569 81.0117C42.9375 81.0117 42.4201 80.4974 42.4201 79.8611ZM41.1046 73.6898C41.1046 72.8356 41.7975 72.1383 42.6569 72.1383C43.5164 72.1383 44.2092 72.8356 44.2092 73.6898C44.2092 74.544 43.5164 75.2414 42.6569 75.2414C41.7975 75.2414 41.1046 74.544 41.1046 73.6898ZM40.3329 67.0565C40.3329 66.0977 41.1046 65.3219 42.0606 65.3219C43.0165 65.3219 43.7882 66.0977 43.7882 67.0565C43.7882 68.0153 43.0165 68.7911 42.0606 68.7911C41.1046 68.7911 40.3329 68.0153 40.3329 67.0565ZM41.9992 56.8145C43.2445 56.8145 44.253 57.8257 44.253 59.0809C44.253 60.336 43.2445 61.3472 41.9992 61.3472C40.7538 61.3472 39.7365 60.336 39.7365 59.0809C39.7365 57.8257 40.7451 56.8145 41.9992 56.8145ZM42.0606 49.3445C43.0165 49.3445 43.7882 50.1202 43.7882 51.079C43.7882 52.0379 43.0165 52.8136 42.0606 52.8136C41.1046 52.8136 40.3329 52.0379 40.3329 51.079C40.3329 50.1202 41.1046 49.3445 42.0606 49.3445ZM42.6481 42.8942C43.5076 42.8942 44.2004 43.5915 44.2004 44.4457C44.2004 45.3 43.5076 45.9973 42.6481 45.9973C41.7887 45.9973 41.0959 45.3 41.0959 44.4457C41.0959 43.5915 41.7887 42.8942 42.6481 42.8942ZM43.569 37.1238C44.2004 37.1238 44.7178 37.6381 44.7178 38.2744C44.7178 38.9107 44.2004 39.4337 43.569 39.4337C42.9375 39.4337 42.4201 38.9194 42.4201 38.2744C42.4201 37.6294 42.9375 37.1238 43.569 37.1238ZM44.3056 33.2188C44.788 33.2188 45.1739 33.6111 45.1739 34.0905C45.1739 34.5699 44.788 34.9621 44.3056 34.9621C43.8233 34.9621 43.4374 34.5699 43.4374 34.0905C43.4374 33.6111 43.8233 33.2188 44.3056 33.2188ZM38.5701 35.2759C38.2369 35.2759 37.9738 35.0057 37.9738 34.6745C37.9738 34.3433 38.2369 34.073 38.5701 34.073C38.9034 34.073 39.1665 34.3433 39.1665 34.6745C39.1665 35.0057 38.9034 35.2759 38.5701 35.2759ZM38.5701 84.0538C38.2369 84.0538 37.9738 83.7836 37.9738 83.4524C37.9738 83.1211 38.2369 82.8509 38.5701 82.8509C38.9034 82.8509 39.1665 83.1211 39.1665 83.4524C39.1665 83.7836 38.9034 84.0538 38.5701 84.0538ZM36.4829 78.9023C36.4829 78.3706 36.9126 77.9348 37.4476 77.9348C37.9825 77.9348 38.4123 78.3619 38.4123 78.9023C38.4123 79.4427 37.9825 79.8699 37.4476 79.8699C36.9126 79.8699 36.4829 79.4427 36.4829 78.9023ZM35.2375 72.7746C35.2375 72.086 35.7988 71.5281 36.4829 71.5281C37.1669 71.5281 37.7282 72.086 37.7282 72.7746C37.7282 73.4632 37.1669 74.021 36.4829 74.021C35.7988 74.021 35.2375 73.4632 35.2375 72.7746ZM34.2729 66.5335C34.2729 65.6444 34.992 64.921 35.8778 64.921C36.7635 64.921 37.4827 65.6444 37.4827 66.5335C37.4827 67.4226 36.7635 68.1461 35.8778 68.1461C34.992 68.1461 34.2729 67.4226 34.2729 66.5335ZM35.641 57.3114C36.6144 57.3114 37.4037 58.1046 37.4037 59.0809C37.4037 60.0571 36.6144 60.8503 35.641 60.8503C34.6675 60.8503 33.8782 60.0571 33.8782 59.0809C33.8782 58.1046 34.6675 57.3114 35.641 57.3114ZM33.0889 40.7935C32.7557 40.7935 32.4926 40.5233 32.4926 40.1921C32.4926 39.8608 32.7557 39.5906 33.0889 39.5906C33.4222 39.5906 33.6853 39.8608 33.6853 40.1921C33.6853 40.5233 33.4134 40.7935 33.0889 40.7935ZM33.0889 78.5362C32.7557 78.5362 32.4926 78.266 32.4926 77.9348C32.4926 77.6035 32.7557 77.3333 33.0889 77.3333C33.4222 77.3333 33.6853 77.6035 33.6853 77.9348C33.6853 78.266 33.4134 78.5362 33.0889 78.5362ZM31.5454 71.9378C31.5454 71.5107 31.8874 71.162 32.3172 71.162C32.7469 71.162 33.0889 71.5107 33.0889 71.9378C33.0889 72.3649 32.7469 72.7048 32.3172 72.7048C31.8874 72.7048 31.5454 72.3562 31.5454 71.9378ZM30.8263 66.917C30.2738 66.917 29.8265 66.4638 29.8265 65.9059C29.8265 65.3481 30.2738 64.9035 30.8263 64.9035C31.3788 64.9035 31.8261 65.3568 31.8261 65.9059C31.8261 66.4551 31.3788 66.917 30.8263 66.917ZM29.2214 59.0809C29.2214 58.3312 29.8265 57.7211 30.5807 57.7211C31.3349 57.7211 31.9401 58.3312 31.9401 59.0809C31.9401 59.8305 31.3349 60.4406 30.5807 60.4406C29.8265 60.4406 29.2214 59.8305 29.2214 59.0809ZM29.0635 71.7199C28.7303 71.7199 28.4672 71.4496 28.4672 71.1184C28.4672 70.7872 28.7303 70.517 29.0635 70.517C29.3968 70.517 29.6599 70.7872 29.6599 71.1184C29.6599 71.4496 29.3968 71.7199 29.0635 71.7199ZM27.2569 53.3977C26.9237 53.3977 26.6606 53.1274 26.6606 52.7962C26.6606 52.465 26.9237 52.1948 27.2569 52.1948C27.5902 52.1948 27.8533 52.465 27.8533 52.7962C27.8533 53.1274 27.5814 53.3977 27.2569 53.3977ZM27.2569 65.9408C26.9237 65.9408 26.6606 65.6706 26.6606 65.3393C26.6606 65.0081 26.9237 64.7379 27.2569 64.7379C27.5902 64.7379 27.8533 65.0081 27.8533 65.3393C27.8533 65.6706 27.5814 65.9408 27.2569 65.9408ZM25.5292 59.0809C25.5292 58.5579 25.9502 58.1307 26.4764 58.1307C27.0026 58.1307 27.4235 58.5579 27.4235 59.0809C27.4235 59.6038 27.0026 60.031 26.4764 60.031C25.9502 60.031 25.5292 59.6038 25.5292 59.0809ZM29.0635 46.4244C29.3968 46.4244 29.6599 46.6946 29.6599 47.0258C29.6599 47.3571 29.3968 47.6273 29.0635 47.6273C28.7303 47.6273 28.4672 47.3571 28.4672 47.0258C28.4672 46.6946 28.7303 46.4244 29.0635 46.4244ZM30.8263 51.2272C31.3788 51.2272 31.8261 51.6805 31.8261 52.2296C31.8261 52.7788 31.3788 53.2408 30.8263 53.2408C30.2738 53.2408 29.8265 52.7875 29.8265 52.2296C29.8265 51.6718 30.2738 51.2272 30.8263 51.2272ZM32.3084 45.422C32.7294 45.422 33.0802 45.7707 33.0802 46.1978C33.0802 46.6249 32.7381 46.9735 32.3084 46.9735C31.8787 46.9735 31.5366 46.6249 31.5366 46.1978C31.5366 45.7707 31.8787 45.422 32.3084 45.422ZM35.8865 49.9895C36.7723 49.9895 37.4914 50.713 37.4914 51.602C37.4914 52.4911 36.7723 53.2146 35.8865 53.2146C35.0008 53.2146 34.2816 52.4911 34.2816 51.602C34.2816 50.713 35.0008 49.9895 35.8865 49.9895ZM36.4829 44.1058C37.1669 44.1058 37.7282 44.6637 37.7282 45.3523C37.7282 46.0409 37.1669 46.5987 36.4829 46.5987C35.7988 46.5987 35.2375 46.0409 35.2375 45.3523C35.2375 44.6637 35.7988 44.1058 36.4829 44.1058ZM37.4388 38.2657C37.9738 38.2657 38.4035 38.6928 38.4035 39.2332C38.4035 39.7737 37.9738 40.2008 37.4388 40.2008C36.9038 40.2008 36.4741 39.7649 36.4741 39.2332C36.4741 38.7015 36.9038 38.2657 37.4388 38.2657ZM94.8643 46.3547L115 43.9489L96.934 41.7959L108.615 26.9167L92.6893 39.5035L105.283 23.5696L89.4006 36.2086L101.994 20.2747L86.1382 32.9399L98.7581 17.0234L82.9021 29.6886L95.522 13.7722L79.6397 26.4112L92.2333 10.4773L76.3509 23.1163L88.8919 7.13015L73.8428 19.0283L71.5889 0L69.1947 20.205L66.8707 0L64.5466 20.205L62.2226 0L59.9337 20.205L57.6447 0L55.3558 20.205L53.058 0L50.734 20.205L48.41 0L46.0859 20.205L43.6918 0L41.4905 18.636L27.0289 7.19988L39.5699 23.1861L23.6876 10.547L36.2812 26.4896L20.3988 13.8506L33.0188 29.7671L17.1627 17.1019L29.7827 33.0183L13.9266 20.3532L26.5202 36.287L10.6379 23.648L23.2315 39.5819L7.30535 26.9952L18.8553 41.7087L0 43.9489L20.1357 46.3547L0 48.6907L20.1357 51.0267L0 53.3541L20.1357 55.6552L0 57.9564L20.1357 60.2576L0 62.5588L20.1357 64.8948L0 67.2308L20.1357 69.5669L0 71.9726L18.8992 74.2215L7.18257 89.153L23.1087 76.5663L10.5151 92.5089L26.3975 79.8699L13.8039 95.8037L29.6599 83.1386L17.04 99.055L32.896 86.3898L20.2761 102.306L36.1584 89.6673L23.5648 105.61L39.4471 92.9708L26.9061 108.957L41.4905 97.425L43.683 116L46.0772 95.795L48.4012 116L50.7252 95.795L53.0493 116L55.3382 95.795L57.6272 116L59.9161 95.795L62.2051 116L64.5291 95.795L66.8531 116L69.1771 95.795L71.5713 116L73.8252 96.9543L88.6113 108.643L76.0703 92.6571L91.9526 105.296L79.359 89.3535L95.2414 101.992L82.6214 86.076L98.4775 98.7412L85.8575 82.8248L101.714 95.4899L89.12 79.5561L105.002 92.1951L92.4087 76.2525L108.335 88.8392L96.7936 74.1431L114.991 71.9726L94.8555 69.5669L114.991 67.2308L94.8555 64.8948L114.991 62.5588L94.8555 60.2576L114.991 57.9564L94.8555 55.6552L114.991 53.3541L94.8555 51.018L114.991 48.682L94.8555 46.346L94.8643 46.3547Z" fill="black"/>
</svg>
