<svg id="NHS-Blue" xmlns="http://www.w3.org/2000/svg" width="57.461" height="20.732" viewBox="0 0 57.461 20.732">
  <path id="Path_22445" data-name="Path 22445" d="M14.738,14.475h6.691l4.1,13.9h.062l2.813-13.9H33.46L29.209,34.517H22.55l-4.2-13.867H18.3L15.516,34.517H10.463Z" transform="translate(-10.463 -14.127)" fill="#005eb8"/>
  <path id="Path_22446" data-name="Path 22446" d="M140.02,14.475h5.371l-1.581,7.668h6.349l1.581-7.668h5.371l-4.164,20.042h-5.4l1.78-8.583h-6.317l-1.78,8.583h-5.365Z" transform="translate(-115.049 -14.127)" fill="#005eb8"/>
  <path id="Path_22447" data-name="Path 22447" d="M266.188,17.261a10.071,10.071,0,0,0-4.394-.921c-2.122,0-3.847.317-3.847,1.923,0,2.844,7.78,1.78,7.78,7.867,0,5.539-5.141,6.977-9.791,6.977a22.407,22.407,0,0,1-6.224-1.033L250.957,28a10.435,10.435,0,0,0,4.936,1.151c1.749,0,4.276-.317,4.276-2.384,0-3.218-7.78-2.01-7.78-7.668,0-5.166,4.537-6.722,8.932-6.722a16.248,16.248,0,0,1,6.143.89Z" transform="translate(-210.003 -12.375)" fill="#005eb8"/>
</svg>
