<svg id="partial-logo" xmlns="http://www.w3.org/2000/svg" xmlns:xlink="http://www.w3.org/1999/xlink" width="154" height="139" viewBox="0 0 154 139">
  <defs>
    <clipPath id="clip-path">
      <path id="Rectangle_2004" data-name="Rectangle 2004" d="M0,0H154a0,0,0,0,1,0,0V129a10,10,0,0,1-10,10H0a0,0,0,0,1,0,0V0A0,0,0,0,1,0,0Z" transform="translate(355.905 5812.248)" fill="#324a46"/>
    </clipPath>
  </defs>
  <g id="Mask_Group_4" data-name="Mask Group 4" transform="translate(-355.905 -5812.248)" opacity="0.395" clip-path="url(#clip-path)">
    <g id="Group_8333" data-name="Group 8333" transform="translate(358.22 5830.202)">
      <path id="Path_22246" data-name="Path 22246" d="M508.171,324.823a83.171,83.171,0,1,1,83.171-83.171A83.266,83.266,0,0,1,508.171,324.823Zm0-162.326a79.155,79.155,0,1,0,79.155,79.155A79.245,79.245,0,0,0,508.171,162.5Z" transform="translate(-425 -158.48)" fill="#324a46"/>
      <path id="Path_22247" data-name="Path 22247" d="M906.895,214.23A75.386,75.386,0,0,0,891.15,215.9v70.244h24.486V263.062h5.057v100.1a75.1,75.1,0,0,0-13.8-148.93Zm54.028,99.237V288.739H936.437v24.729H931.38v-50.4h5.057v23.078h24.486V263.062h5.057v50.4Z" transform="translate(-823.723 -206.166)" fill="#324a46"/>
      <path id="Path_22248" data-name="Path 22248" d="M540.1,306.128v24.729h-5.057v-96.3a75.093,75.093,0,0,0,29.544,146.753V306.129H540.106ZM527.2,283.162H512.59v47.694h-5.057V283.162H492.924v-2.737H527.2v2.737Z" transform="translate(-472.677 -223.555)" fill="#324a46"/>
    </g>
  </g>
</svg>
