<svg id="THH-corner-logo-white" xmlns="http://www.w3.org/2000/svg" xmlns:xlink="http://www.w3.org/1999/xlink" width="175" height="162" viewBox="0 0 175 162">
  <defs>
    <clipPath id="clip-path">
      <rect id="Rectangle_2428" data-name="Rectangle 2428" width="175" height="162" transform="translate(218 690)" fill="#fff"/>
    </clipPath>
  </defs>
  <g id="Mask_Group_8397" data-name="Mask Group 8397" transform="translate(-218 -690)" clip-path="url(#clip-path)">
    <g id="thrive-logo-emblem-primary-teal-RGB" transform="translate(218.065 690.066)" opacity="0.298">
      <path id="Path_21525" data-name="Path 21525" d="M255.6,301.473v28.471h-5.822V219.07a86.459,86.459,0,0,0,34.015,168.967V301.473Zm-14.859-26.425-16.82.106v54.789H218.1V275.154l-16.82-.106V271.9h39.462Z" transform="translate(-177.967 -206.401)" fill="#fff"/>
      <path id="Path_21526" data-name="Path 21526" d="M847.758,187.25a86.764,86.764,0,0,0-18.128,1.918v80.878h28.193V243.475h5.822v115.25a86.472,86.472,0,0,0-15.887-171.473Zm62.208,114.259V273.038H881.772v28.471H875.95V243.474h5.823v26.572h28.193V243.474h5.821v58.035Z" transform="translate(-751.996 -177.967)" fill="#fff"/>
      <path id="Path_21527" data-name="Path 21527" d="M195.761,291.522a95.761,95.761,0,1,1,95.761-95.761A95.869,95.869,0,0,1,195.761,291.522Zm0-186.9A91.137,91.137,0,1,0,286.9,195.761,91.24,91.24,0,0,0,195.761,104.624Z" transform="translate(-100 -100)" fill="#fff"/>
    </g>
  </g>
</svg>
