<svg id="quote-close" xmlns="http://www.w3.org/2000/svg" width="40" height="29.159" viewBox="0 0 40 29.159">
  <path id="Path_22415" data-name="Path 22415" d="M-8.722-80.621l-3.925-4.019C-19.1-80.434-24.61-72.21-24.61-66.042c0,5.888,4.019,10.561,9.065,10.561A8.423,8.423,0,0,0-6.853-63.8a8.717,8.717,0,0,0-8.692-8.879h-.374A31.161,31.161,0,0,1-8.722-80.621Zm6.355,14.579c0,5.888,4.019,10.561,9.065,10.561A8.423,8.423,0,0,0,15.39-63.8,8.717,8.717,0,0,0,6.7-72.677H6.325a31.161,31.161,0,0,1,7.2-7.944L9.6-84.64C3.147-80.434-2.367-72.21-2.367-66.042Z" transform="translate(15.39 -55.481) rotate(180)" fill="#c9e3e1"/>
</svg>
