<svg id="quote-open" xmlns="http://www.w3.org/2000/svg" width="40" height="29.216" viewBox="0 0 40 29.216">
  <path id="Path_14716" data-name="Path 14716" d="M-8.722-80.613l-3.925-4.027C-19.1-80.426-24.61-72.186-24.61-66.005c0,5.9,4.019,10.582,9.065,10.582a8.431,8.431,0,0,0,8.692-8.334,8.726,8.726,0,0,0-8.692-8.9h-.374A31.2,31.2,0,0,1-8.722-80.613Zm6.355,14.608c0,5.9,4.019,10.582,9.065,10.582a8.431,8.431,0,0,0,8.692-8.334,8.726,8.726,0,0,0-8.692-8.9H6.325a31.2,31.2,0,0,1,7.2-7.96L9.6-84.64C3.147-80.426-2.367-72.186-2.367-66.005Z" transform="translate(24.61 84.64)" fill="#c9e3e1"/>
</svg>
