<svg id="Thive-logo-primary" xmlns="http://www.w3.org/2000/svg" width="165.058" height="126.997" viewBox="0 0 165.058 126.997">
  <g id="thrive-logo-emblem-primary-teal-RGB" transform="translate(44.17)">
    <path id="Path_21525" data-name="Path 21525" d="M214.446,251.857v11.328h-2.317V219.07A34.4,34.4,0,0,0,225.664,286.3V251.857Zm-5.912-10.514-6.692.042v21.8h-2.317v-21.8l-6.693-.042V240.09h15.7Z" transform="translate(-183.556 -214.029)" fill="#007064"/>
    <path id="Path_21526" data-name="Path 21526" d="M836.843,187.25a34.52,34.52,0,0,0-7.213.763v32.181h11.218V209.621h2.316v45.857a34.407,34.407,0,0,0-6.321-68.228Zm24.752,45.463V221.384H850.377v11.328H848.06V209.621h2.317v10.573h11.218V209.621h2.316v23.092Z" transform="translate(-798.74 -183.556)" fill="#007064"/>
    <path id="Path_21527" data-name="Path 21527" d="M138.1,176.205a38.1,38.1,0,1,1,38.1-38.1A38.146,38.146,0,0,1,138.1,176.205Zm0-74.365A36.263,36.263,0,1,0,174.365,138.1,36.3,36.3,0,0,0,138.1,101.84Z" transform="translate(-100 -100)" fill="#007064"/>
  </g>
  <g id="Group_8200" data-name="Group 8200" transform="translate(0 87.613)">
    <path id="Path_21564" data-name="Path 21564" d="M484.637,1660.337c-.052-.018-.1-.018-.156-.035a3.063,3.063,0,0,0-.33-.07.258.258,0,0,1-.121-.034,3.542,3.542,0,0,0-.468-.156,3.893,3.893,0,0,0-.486-.156.379.379,0,0,1-.139-.086.707.707,0,0,1-.156-.086,4.242,4.242,0,0,1-.729-.5l-.364-.26a2.974,2.974,0,0,1-.364-.278l-.33-.312c-.122-.1-.243-.226-.382-.33a4.773,4.773,0,0,1-.624-.573.131.131,0,0,0-.156,0,2.737,2.737,0,0,1-.4.174,1.07,1.07,0,0,0-.226.07c-.1.034-.208.086-.295.121l-.295.052a.9.9,0,0,1-.486.1c-.191.018-.364.034-.555.07a1.236,1.236,0,0,1-.5-.018c-.243-.052-.468-.122-.711-.174a.555.555,0,0,1-.156-.052,2.733,2.733,0,0,1-.486-.278c-.07-.034-.1-.1-.174-.138a2.016,2.016,0,0,1-.4-.469,6.641,6.641,0,0,1-.781-1.3c-.034-.069-.052-.138-.086-.208,0-.208-.1-.4-.122-.607-.018-.052-.018-.1-.034-.156a.753.753,0,0,1-.07-.33c0-.138-.034-.26-.034-.4a1.423,1.423,0,0,1-.018-.763.289.289,0,0,0,0-.174c0-.052-.034-.1-.018-.174a1.026,1.026,0,0,0,.034-.33,2.938,2.938,0,0,1,.07-.677,1.345,1.345,0,0,0,.052-.26,4.974,4.974,0,0,1,.138-.729l.156-.468a2.8,2.8,0,0,0,.191-.538.78.78,0,0,1,.086-.26c.1-.208.208-.4.295-.607a1.72,1.72,0,0,1,.122-.26,1.61,1.61,0,0,0,.156-.295,3.866,3.866,0,0,1,.4-.677c.208-.312.416-.624.642-.919.086-.12.191-.243.278-.347.138-.138.243-.294.364-.434.122-.156.243-.295.347-.434a1.162,1.162,0,0,0,.19-.226,9.685,9.685,0,0,1,1.18-1.041,3.182,3.182,0,0,1,.486-.278,1.1,1.1,0,0,0,.242-.122,3.078,3.078,0,0,1,.364-.156.674.674,0,0,1,.607,0l.156.052a.277.277,0,0,1,.19.086,1.962,1.962,0,0,1,.191.208.176.176,0,0,1,.034.156.063.063,0,0,0-.018.052.441.441,0,0,1-.226.242c-.1.035-.226.052-.33.087a4.931,4.931,0,0,0-.521.035.7.7,0,0,0-.364.156,4.014,4.014,0,0,0-.8.625,10.271,10.271,0,0,0-1.023,1.111l-.174.226a6.964,6.964,0,0,0-.573.694,1.268,1.268,0,0,0-.122.19c-.086.122-.156.261-.243.382a2.62,2.62,0,0,1-.242.365l-.052.1a15.384,15.384,0,0,0-.747,1.51.248.248,0,0,0-.034.1,2.738,2.738,0,0,1-.174.538l-.052.156c-.052.226-.139.434-.19.659,0,.052-.018.1-.018.156-.018.174-.052.33-.07.5a1.44,1.44,0,0,0-.086.607c0,.383-.034.746-.018,1.127a1.383,1.383,0,0,0,.086.382l.086.347a4.793,4.793,0,0,1,.122.538,3.477,3.477,0,0,0,.434.885l.122.174a1.928,1.928,0,0,0,.5.555.937.937,0,0,0,.26.156,3.314,3.314,0,0,0,.59.156,3.815,3.815,0,0,0,.451.018c.156-.018.295-.018.451-.035a1.079,1.079,0,0,0,.226-.034.5.5,0,0,1,.156-.035,3.072,3.072,0,0,0,.659-.174c0-.018.018-.018.034-.034a.083.083,0,0,0,.018-.1c0-.018-.018-.035-.018-.052a3.743,3.743,0,0,0-.694-.468.619.619,0,0,0-.156-.07,3.027,3.027,0,0,0-.4-.018.26.26,0,0,0-.1.034,3.15,3.15,0,0,1-.364.156c-.034,0-.07.018-.1.018a.412.412,0,0,1-.364-.122.243.243,0,0,1-.034-.1.47.47,0,0,1,.052-.208l.1-.138c.1-.087.191-.174.295-.26a.735.735,0,0,1,.364-.139,1.219,1.219,0,0,1,.5.018,1.051,1.051,0,0,0,.226.052,2.253,2.253,0,0,1,.59.138.738.738,0,0,1,.156.087c.19.122.382.242.555.364a2.14,2.14,0,0,1,.226.191.226.226,0,0,0,.208.018l.989-.747c.086-.121.226-.191.295-.329.018-.052.07-.086.1-.139a.824.824,0,0,0,.122-.12c.138-.139.295-.278.434-.434.139-.138.226-.312.347-.451a6.572,6.572,0,0,1,.451-.573l.1-.122c.191-.243.33-.5.521-.729.086-.121.417-.745.521-.937a2.584,2.584,0,0,1,.138-.312,1.109,1.109,0,0,0,.139-.243,1.062,1.062,0,0,0,.086-.121c.034-.122.1-.278.156-.451a.5.5,0,0,1,.07-.139l.1-.208c.018-.138.122-.278.138-.416a1.3,1.3,0,0,1,.07-.278,2.38,2.38,0,0,0,.121-.382.853.853,0,0,0,.034-.208c.018-.1,0-.19.018-.278a.731.731,0,0,1,.052-.278.989.989,0,0,0,.034-.226,7.762,7.762,0,0,0,0-.9.215.215,0,0,0-.018-.1c-.052-.208-.052-.417-.086-.642-.052-.138-.122-.3-.191-.451a.677.677,0,0,0-.3-.33c-.139-.086-.295-.156-.434-.226a.242.242,0,0,0-.1-.034,2.155,2.155,0,0,0-.278-.07.547.547,0,0,0-.33,0,4.052,4.052,0,0,0-.659.174.98.98,0,0,1-.174.035,6.88,6.88,0,0,0-1.179.625l-.1.052a3.176,3.176,0,0,1-.451.347,1.605,1.605,0,0,1-.416.347c-.1.086-.19.19-.295.277-.1.1-.191.226-.295.33-.191.208-.347.451-.537.659a11.27,11.27,0,0,0-.937,1.6,1.773,1.773,0,0,1-.1.19,6.181,6.181,0,0,0-.364.763.637.637,0,0,0-.07.156,1.584,1.584,0,0,1-.086.26,2.439,2.439,0,0,0-.122,1.058v.122a.342.342,0,0,0,.07.138c.034.07.086.121.122.191a.166.166,0,0,1,0,.156.318.318,0,0,1-.174.138.313.313,0,0,1-.278-.034,1.378,1.378,0,0,1-.26-.208.863.863,0,0,1-.278-.591,3.491,3.491,0,0,1,.034-.85c0-.034.018-.07.018-.1a4.961,4.961,0,0,1,.346-.885c.1-.19.174-.382.26-.573.122-.226.243-.451.382-.677.156-.243.295-.486.434-.729a8.317,8.317,0,0,1,1.3-1.682,4.29,4.29,0,0,1,.573-.538,2.064,2.064,0,0,1,.312-.242.171.171,0,0,0,.086-.07,2.523,2.523,0,0,1,.607-.417,6.474,6.474,0,0,1,.59-.33c.208-.1.416-.226.642-.329a1.054,1.054,0,0,1,.208-.07.725.725,0,0,0,.278-.052,2.835,2.835,0,0,1,.451-.156h.312a2.1,2.1,0,0,1,.555.1,1.04,1.04,0,0,1,.468.174,1.563,1.563,0,0,0,.295.156c.191.156.382.312.573.451a1.093,1.093,0,0,1,.138.242,2.766,2.766,0,0,0,.226.382.243.243,0,0,1,.034.1c.018.069,0,.12.034.173a1.5,1.5,0,0,1,.1.555c.018.052.018.1.034.156a2.992,2.992,0,0,1,.07.677v.382c-.018.1-.018.191-.034.278-.018.1-.052.191-.07.278a2.162,2.162,0,0,1-.121.728.563.563,0,0,1-.034.226c-.052.174-.122.347-.174.52l-.156.417a4.182,4.182,0,0,0-.174.417,2.208,2.208,0,0,1-.208.468c-.121.209-.226.417-.329.643s-.243.433-.347.641a4.574,4.574,0,0,1-.329.469,1.526,1.526,0,0,0-.19.278,4.056,4.056,0,0,1-.451.625.711.711,0,0,0-.1.139.369.369,0,0,1-.122.19,2.108,2.108,0,0,0-.278.278,4.241,4.241,0,0,1-.433.52c-.156.156-.3.347-.451.486-.034.034-.052.07-.087.087-.174.174-.347.347-.5.521a6.186,6.186,0,0,0-.52.434c-.087.087-.191.122-.278.208a.167.167,0,0,0-.018.156,2.962,2.962,0,0,0,.226.26l.416.364a2.493,2.493,0,0,0,.347.278,3.561,3.561,0,0,1,.469.4c.018.018.034.034.052.034a1.783,1.783,0,0,1,.364.26.729.729,0,0,1,.26.19,2.367,2.367,0,0,0,.416.313,1.789,1.789,0,0,0,.659.313c.191.052.382.122.607.19a7.728,7.728,0,0,0,.919.035.91.91,0,0,0,.226-.035,1.68,1.68,0,0,0,.26-.122.732.732,0,0,0,.121-.1,1.609,1.609,0,0,1,.138-.174.426.426,0,0,1,.364-.138.474.474,0,0,1,.156.018.282.282,0,0,1,.174.138.442.442,0,0,1-.07.435.867.867,0,0,1-.122.122l-.156.156a2.311,2.311,0,0,0-.208.191,1.774,1.774,0,0,1-.4.208,1.044,1.044,0,0,1-.208.07,4.446,4.446,0,0,1-.677.018c-.174,0-.33-.018-.5-.018Z" transform="translate(-443.095 -1621.719)" fill="#007064"/>
    <path id="Path_21565" data-name="Path 21565" d="M590.318,1706.887a.726.726,0,0,1-.122-.191.625.625,0,0,1-.034-.1l-.052-.312c.035-.226.052-.416.086-.625a3.817,3.817,0,0,1,.26-.745,6.313,6.313,0,0,1,.417-.851l.034-.052a10.956,10.956,0,0,1,.781-1.475c.122-.191.208-.364.312-.554.122-.191.226-.4.347-.59a1.024,1.024,0,0,1,.138-.174.42.42,0,0,1,.191-.1.242.242,0,0,1,.3.086.713.713,0,0,1,.121.191c0,.034.018.07,0,.1a.721.721,0,0,1-.07.208c-.191.382-.347.711-.538,1.075-.156.278-.33.659-.486.937-.174.313-.312.625-.486.937a5.937,5.937,0,0,0-.33.729c-.07.208-.1.434-.156.642a.732.732,0,0,0-.018.347.149.149,0,0,0,.138.138c.139.018.226.018.278-.034a3.79,3.79,0,0,0,.677-.5,11.193,11.193,0,0,0,.954-.989,1.5,1.5,0,0,0,.139-.174c.1-.1.19-.226.295-.33a2.277,2.277,0,0,0,.364-.417c.138-.208.26-.417.4-.606.226-.3.347-.573.573-.851.086-.122.156-.26.243-.382a1.661,1.661,0,0,0,.174-.312,2.138,2.138,0,0,1,.226-.382.857.857,0,0,1,.434-.33.306.306,0,0,1,.174-.018.129.129,0,0,1,.121.086.47.47,0,0,1,.07.208,1.034,1.034,0,0,1-.07.5c-.087.174-.174.295-.26.451a2.77,2.77,0,0,0-.312.469,10.716,10.716,0,0,0-.59,1.041c-.122.226-.226.469-.347.695a1.56,1.56,0,0,0-.1.26c-.034.122-.052.226-.087.329a2.409,2.409,0,0,0-.086.555.914.914,0,0,0-.018.278.788.788,0,0,0,.034.33c.018.1.174.19.347.19a.587.587,0,0,0,.347-.138,3.811,3.811,0,0,0,.642-.5c.052-.07.122-.122.174-.19a3.337,3.337,0,0,0,.347-.347c.052-.052.174-.226.208-.26a9.852,9.852,0,0,0,.763-1.041c.122-.121.122-.278.226-.382a3.274,3.274,0,0,0,.242-.365.26.26,0,0,1,.208-.086c.018,0,.1-.018.122,0,.034.017.1,0,.174.052s.088.086.088.26a4,4,0,0,1-.226.555,4.855,4.855,0,0,1-.5.763,3.331,3.331,0,0,1-.624.885,2.047,2.047,0,0,1-.364.382c-.052.122-.191.208-.243.278-.086.052-.156.086-.156.122a6.657,6.657,0,0,1-.521.416,6.513,6.513,0,0,1-.642.278,1.149,1.149,0,0,1-1.075-.174.962.962,0,0,1-.469-.9v-.33c0-.052-.018-.07-.052-.07a.506.506,0,0,0-.242.139l-.364.364a3.95,3.95,0,0,1-.763.763,1.244,1.244,0,0,1-.521.208l-.4.052a1.787,1.787,0,0,1-.833-.416Z" transform="translate(-547.839 -1673.491)" fill="#007064"/>
    <path id="Path_21566" data-name="Path 21566" d="M660.945,1707c-.156-.07-.312-.139-.469-.226a.514.514,0,0,1-.226-.243,1.017,1.017,0,0,0-.1-.191,1.016,1.016,0,0,1-.086-.382,3.867,3.867,0,0,1,.07-.9,1.255,1.255,0,0,1,.034-.226.993.993,0,0,1,.07-.382,5.328,5.328,0,0,1,.208-.695,4.326,4.326,0,0,0,.174-.417,2.693,2.693,0,0,1,.434-.71,4.253,4.253,0,0,1,.434-.521,2.276,2.276,0,0,0,.278-.3,1.312,1.312,0,0,1,.312-.312c.138-.087.226-.243.382-.329a2.618,2.618,0,0,0,.382-.295c.174-.052.312-.1.451-.156a1.492,1.492,0,0,1,.555-.035,2.273,2.273,0,0,1,1.319.555.066.066,0,0,0,.1,0c.1-.052.156-.156.242-.226a.283.283,0,0,1,.26-.086.623.623,0,0,1,.416.156.333.333,0,0,1,.07.313,1.68,1.68,0,0,0-.138.243,2.32,2.32,0,0,1-.295.537c-.1.156-.122.33-.295.469-.243.469-.364.729-.555,1.163a6.894,6.894,0,0,0-.382,1.249,2.752,2.752,0,0,0-.087.659.483.483,0,0,0,.138.364.948.948,0,0,0,.139.1.2.2,0,0,0,.138.018.529.529,0,0,0,.33-.138,3.81,3.81,0,0,0,.625-.5c.052-.07.122-.122.174-.191a3.182,3.182,0,0,0,.33-.346c.052-.052.174-.226.208-.26a9.852,9.852,0,0,0,.763-1.041c.1-.121.138-.278.226-.382a3.2,3.2,0,0,0,.243-.364.24.24,0,0,1,.191-.086c.018,0,.087-.018.1,0,.034.018.1,0,.156.052.07.052.1.086.07.26a3.394,3.394,0,0,1-.226.555,4.848,4.848,0,0,1-.5.764,4.567,4.567,0,0,1-.607.885,3.5,3.5,0,0,1-.347.382c-.086.122-.208.208-.26.278-.086.052-.156.086-.156.121a4.448,4.448,0,0,1-.5.417,6.326,6.326,0,0,1-.607.278.839.839,0,0,1-.677.017,1.512,1.512,0,0,1-.434-.294.746.746,0,0,1-.243-.347,1.162,1.162,0,0,1-.1-.487,1.312,1.312,0,0,0,0-.451c0-.018-.018-.018-.034-.034h-.052a.169.169,0,0,0-.086.069c-.139.138-.278.295-.417.451a4.723,4.723,0,0,1-.85.815,2.2,2.2,0,0,0-.208.191l-.59.208a.67.67,0,0,1-.486-.018Zm.538-.816a3.407,3.407,0,0,0,.833-.658c.243-.243.469-.521.729-.781a18.53,18.53,0,0,0,1.215-1.6,5.237,5.237,0,0,0,.573-1.024c-.086-.121-.138-.243-.226-.346a.762.762,0,0,0-.659-.364,1.852,1.852,0,0,0-.433.034,1.451,1.451,0,0,0-.4.208c-.278.208-.521.417-.781.642a5.886,5.886,0,0,0-.9,1.146,4.418,4.418,0,0,0-.4,1.041c-.052.19-.07.364-.1.554a3.364,3.364,0,0,0-.07.833l.018.174a.274.274,0,0,0,.329.226.525.525,0,0,0,.278-.086Z" transform="translate(-610.919 -1673.115)" fill="#007064"/>
    <path id="Path_21567" data-name="Path 21567" d="M729.3,1676.688a2.088,2.088,0,0,1-.329-.208.218.218,0,0,1-.07-.138,3.358,3.358,0,0,1-.122-.382.219.219,0,0,1,.018-.1,5.913,5.913,0,0,1,.19-1.232c.034-.086.034-.174.07-.278a.946.946,0,0,1,.07-.208c.122-.294.208-.607.346-.9.174-.382.33-.815.5-1.232l.087-.294a10.805,10.805,0,0,1,.625-1.284c.1-.242.278-.521.4-.745.138-.243.312-.469.4-.607a4.279,4.279,0,0,1,.347-.5l.434-.643a2.366,2.366,0,0,1,.191-.208,1.566,1.566,0,0,1,.243-.226c.243-.226.381-.312.607-.226a.349.349,0,0,1,.26.226,1.528,1.528,0,0,1-.052.954,3.122,3.122,0,0,1-.226.5,4.159,4.159,0,0,1-.537,1.007,6.233,6.233,0,0,1-.486.711,1.023,1.023,0,0,0-.122.174,3.616,3.616,0,0,0-.312.416c-.174.174-.312.33-.555.555-.312.346-.59.677-.781.885-.052.1-.226.469-.26.573-.139.33-.26.677-.365,1.007a5.831,5.831,0,0,0-.278,1.041,2.125,2.125,0,0,0-.034.573.327.327,0,0,0,.4.278c.034-.018.122-.034.156-.052a8.873,8.873,0,0,0,.972-.711c.052-.07.138-.122.191-.19a1.923,1.923,0,0,0,.312-.347c.052-.052.174-.226.208-.26a9.221,9.221,0,0,0,.711-1.041c.1-.121.156-.278.26-.382a3.262,3.262,0,0,0,.243-.365.3.3,0,0,1,.208-.086c.018,0,.086-.017.1,0,.034.018.1,0,.156.052s.087.086.052.261c-.018.052-.208.469-.26.555a3.765,3.765,0,0,1-.486.763,4.142,4.142,0,0,1-.555.885c-.1.122-.243.26-.364.382-.086.121-.208.208-.26.278-.07.052-.139.086-.139.122a4.555,4.555,0,0,1-.521.417c-.138.1-.538.26-.659.33a1.221,1.221,0,0,1-.989-.087Z" transform="translate(-672.89 -1642.962)" fill="#007064"/>
    <path id="Path_21568" data-name="Path 21568" d="M759.021,1683.778c-.035-.018-.052-.052-.087-.087l-.1-.19a.379.379,0,0,1-.07-.26,2.94,2.94,0,0,1,.086-.781,4.5,4.5,0,0,0,.174-.59.5.5,0,0,1,.052-.174c.139-.26.226-.555.364-.815.208-.468.486-.885.711-1.336a8.226,8.226,0,0,0,.59-1.093,2.915,2.915,0,0,1,.278-.416.436.436,0,0,1,.434-.191c.018,0,.034.018.052.018a.169.169,0,0,1,.156.138l.052.174a9.5,9.5,0,0,1-.607,1.267,8.131,8.131,0,0,0-.573,1.093,1.87,1.87,0,0,1-.1.191,1.994,1.994,0,0,0-.26.5c-.086.174-.156.33-.226.5a1.607,1.607,0,0,0-.1.26.249.249,0,0,0-.034.122c-.018.226-.122.433-.138.642a.717.717,0,0,0,.017.278c0,.034.034.07.052.1.07.052.226.034.417-.034a3.42,3.42,0,0,0,.659-.5c.052-.07.139-.122.191-.19a3.626,3.626,0,0,0,.364-.347,3.375,3.375,0,0,1,.226-.26,11.238,11.238,0,0,0,.851-1.024c.139-.121.156-.278.26-.365a2.279,2.279,0,0,0,.278-.364c.052-.07.174-.07.226-.07.018,0,.1-.018.122,0s.1,0,.156.07c.07.052.087.086.07.26a4.071,4.071,0,0,1-.278.539,5.222,5.222,0,0,1-.573.745,4.119,4.119,0,0,1-.677.851,2.115,2.115,0,0,1-.4.382c-.052.122-.19.208-.242.278-.1.052-.174.086-.174.122a6.735,6.735,0,0,1-.537.417c-.156.1-.521.208-.642.278a1.061,1.061,0,0,1-.677.052c-.122-.052-.226-.138-.33-.191Zm3.141-7.269a.574.574,0,0,1-.312-.573.719.719,0,0,1,.018-.174.647.647,0,0,1,.52-.521.412.412,0,0,1,.486.139.808.808,0,0,1,.035.971c0,.018-.1.156-.156.156a.393.393,0,0,1-.312.087c-.052-.034-.26-.034-.278-.087Z" transform="translate(-699.922 -1650.155)" fill="#007064"/>
    <path id="Path_21569" data-name="Path 21569" d="M798.3,1680.363a3.368,3.368,0,0,1-.226.555,4.825,4.825,0,0,1-.5.763,4.524,4.524,0,0,1-.607.885,3.6,3.6,0,0,1-.347.382c-.087.122-.208.208-.26.278-.087.052-.156.086-.156.122a4.507,4.507,0,0,1-.5.417,2.353,2.353,0,0,1-.659.312,1.236,1.236,0,0,1-.5.018,2.792,2.792,0,0,1-.33-.139,2.2,2.2,0,0,1-.364-.329c-.07-.122-.122-.26-.191-.4-.018-.156-.018-.294-.034-.469a5.609,5.609,0,0,1,.121-.746l.087-.226a8.409,8.409,0,0,1,.659-1.7l.1-.243.382-.885H794.5c-.382,0-.5,0-.607-.122a.412.412,0,0,1,.052-.486.334.334,0,0,1,.278-.156l1.093.017c.1-.225.243-.434.364-.642-.607,1.111.208-.381.555-.971.174-.313.382-.607.573-.9.122-.19.278-.347.451-.347.278,0,.416.3.208.694-.138.312-.885,1.6-.885,1.579l-.295.554h.07c.4-.018.729.034,1.128.018a.285.285,0,0,1,.295.4c-.138.295-.295.364-.729.364h-1.2c-.294.537-.59,1.058-.625,1.128a3.566,3.566,0,0,0-.174.382l-.312.781c-.07.174-.1.364-.156.537-.07.191-.122.4-.174.591a1.423,1.423,0,0,0-.034.607.4.4,0,0,0,.156.329.43.43,0,0,0,.26.087.951.951,0,0,0,.417-.174,3.786,3.786,0,0,0,.625-.5c.052-.07.121-.122.174-.19a3.185,3.185,0,0,0,.33-.347c.052-.052.174-.226.208-.26a10.055,10.055,0,0,0,.763-1.042c.1-.12.139-.278.226-.382a3.232,3.232,0,0,0,.243-.364.239.239,0,0,1,.191-.087c.018,0,.087-.018.1,0,.034.018.1,0,.156.052.07.052.1.086.07.26Z" transform="translate(-731.361 -1650.281)" fill="#007064"/>
    <path id="Path_21570" data-name="Path 21570" d="M802.23,1713.183a.626.626,0,0,1-.278-.417l-.052-.468c.034-.138.052-.312.087-.486a2.008,2.008,0,0,0,.19-.33,4.179,4.179,0,0,1,.537-.781,2.045,2.045,0,0,1,.208-.19l.625-.573c.4-.3,1.405-.885,1.822-1.128.018-.018.034-.018.034-.035.33-.242.659-.486,1.023-.711a.617.617,0,0,0,.226-.242,14.058,14.058,0,0,0,.729-1.319c.018-.018,0-.035,0-.052-.018-.034-.052-.034-.087,0a.669.669,0,0,1-.191.19,3.325,3.325,0,0,0-.659.537c-.034.052-.122.087-.174.139a2.513,2.513,0,0,1-.885.347c-.156.034-.329.07-.469.088a1.239,1.239,0,0,1-.5-.156.5.5,0,0,1-.191-.19.262.262,0,0,1-.07-.156,4.226,4.226,0,0,1-.1-.5,2.73,2.73,0,0,1,.139-.711,3.852,3.852,0,0,1,.19-.643,2.015,2.015,0,0,1,.278-.625.625.625,0,0,0,.086-.19,5.581,5.581,0,0,1,.278-.555,10.856,10.856,0,0,1,.538-.989c.174-.295.347-.573.537-.85a5.178,5.178,0,0,1,.382-.486.2.2,0,0,1,.191-.1.5.5,0,0,1,.226.017.312.312,0,0,1,.191.174.382.382,0,0,1,.034.243,4.964,4.964,0,0,1-.382.606,3.138,3.138,0,0,0-.434.781,1.125,1.125,0,0,1-.087.208c-.052.086-.139.174-.19.26-.052.1-.07.226-.122.33-.1.19-.226.382-.347.573a1.1,1.1,0,0,0-.122.243,1.463,1.463,0,0,1-.121.382c-.122.208-.156.451-.278.677a.244.244,0,0,0-.052.156,1.063,1.063,0,0,0-.034.607.129.129,0,0,0,.1.12,1.113,1.113,0,0,0,.5-.225,2.634,2.634,0,0,1,.365-.243,3.126,3.126,0,0,0,.8-.625,6.872,6.872,0,0,1,.711-.729,10.254,10.254,0,0,0,1.163-1.284c.174-.242.382-.468.555-.711a2.709,2.709,0,0,0,.278-.486,4.559,4.559,0,0,1,.521-.8.432.432,0,0,1,.243-.138.265.265,0,0,1,.312.052.36.36,0,0,1,.1.4.612.612,0,0,1-.069.156c-.07.122-.139.26-.208.4a9.975,9.975,0,0,1-.521.937,4.5,4.5,0,0,0-.278.486,10.876,10.876,0,0,1-.555.971.576.576,0,0,0-.087.139c-.243.538-.59,1.006-.8,1.544a.078.078,0,0,0,.034.1h.052c.034-.018.07-.018.1-.035.087-.07.191-.122.278-.191.208-.156.4-.242.659-.451.156-.138.521-.469.677-.59a3.454,3.454,0,0,0,.416-.469,3.363,3.363,0,0,0,.364-.5,3.155,3.155,0,0,0,.26-.4c.07-.122.174-.243.243-.364.018-.07.07-.086.1-.139a.248.248,0,0,1,.191-.052.3.3,0,0,1,.174.018c.052,0,.208.121.174.226a.911.911,0,0,1-.122.416c-.07.156-.156.295-.208.4a1.546,1.546,0,0,1-.278.45c-.1.174-.191.243-.347.487a7.75,7.75,0,0,1-.711.746,3.792,3.792,0,0,1-.521.4,6.567,6.567,0,0,1-.745.521,2.294,2.294,0,0,1-.278.174c-.226.122-.434.26-.625.382a3.57,3.57,0,0,1-.468.312,1.294,1.294,0,0,0-.451.417c-.07.122-.122.242-.19.346l-.26.435a1.037,1.037,0,0,0-.1.191,3.435,3.435,0,0,1-.468.851c-.295.451-.573.919-.885,1.353a7.033,7.033,0,0,1-.729.867,1.688,1.688,0,0,1-.486.364,1.79,1.79,0,0,0-.347.208c-.191,0-.745.018-.954.034a.709.709,0,0,1-.416-.138Zm1.892-1.266c.087-.1.156-.226.243-.33a15.058,15.058,0,0,0,1.232-1.874c.087-.139.07-.208.07-.191a8.671,8.671,0,0,0-1.527.92,4.5,4.5,0,0,1-.417.4,4.2,4.2,0,0,0-.59.659,1.8,1.8,0,0,0-.295.607.72.72,0,0,0,.034.33c.018.07.469.1.521.07a1.851,1.851,0,0,0,.729-.59Z" transform="translate(-738.828 -1673.94)" fill="#007064"/>
    <path id="Path_21571" data-name="Path 21571" d="M925.554,1707.118l-.521-.156c-.208-.122-.33-.26-.5-.365a1.568,1.568,0,0,1-.329-.572c-.018-.1-.018-.208-.034-.33a2.184,2.184,0,0,1,.017-1.058,3.262,3.262,0,0,1,.087-.33l.07-.208a3.421,3.421,0,0,0,.26-.624,2.965,2.965,0,0,1,.208-.383.6.6,0,0,0,.122-.19,4.752,4.752,0,0,1,.745-.9,3.762,3.762,0,0,1,1.718-1.023,1.409,1.409,0,0,1,.226-.052l.451-.052a.668.668,0,0,1,.607.208.4.4,0,0,1,.1.209c0,.034.018.07.018.1a1,1,0,0,0,.052.5,4.987,4.987,0,0,1-.122.486,2.594,2.594,0,0,1-.416.919,1.5,1.5,0,0,1-.329.364.375.375,0,0,1-.382,0,.649.649,0,0,1-.156-.226.109.109,0,0,1,0-.1,5.349,5.349,0,0,1,.3-.538l.156-.313a1.223,1.223,0,0,0,.138-.746.207.207,0,0,0-.138-.174.72.72,0,0,0-.278,0,.476.476,0,0,0-.208.069,3.659,3.659,0,0,0-.937.625,1.113,1.113,0,0,1-.208.191,2.878,2.878,0,0,0-.573.677,3.466,3.466,0,0,0-.4.745c-.052.139-.122.278-.174.417a2.568,2.568,0,0,0-.208,1.093,1.2,1.2,0,0,0,.33.763.628.628,0,0,0,.174.121c.139.034.26.087.382.1a.391.391,0,0,0,.174.017c.19-.034.382-.052.555-.086a2.241,2.241,0,0,0,.486-.157,8.363,8.363,0,0,0,.971-.625c.052-.07.121-.121.174-.19a2.783,2.783,0,0,0,.33-.312c.052-.052.174-.208.208-.243a9.134,9.134,0,0,0,.763-.954c.1-.1.138-.26.226-.346.1-.122.174-.243.242-.33a.248.248,0,0,1,.191-.086c.018,0,.087-.018.1,0,.035.018.1,0,.156.052.086.035.1.087.07.226a3.121,3.121,0,0,1-.226.52,4.18,4.18,0,0,1-.5.695,3.7,3.7,0,0,1-.607.815,3.308,3.308,0,0,1-.346.364,2.753,2.753,0,0,1-.26.243c-.086.052-.156.087-.156.121-.19.156-.9.59-1.058.695-.19.034-.364.156-.573.19-.242.052-.468.121-.711.156a1.02,1.02,0,0,1-.451-.018Z" transform="translate(-849.035 -1673.288)" fill="#007064"/>
    <path id="Path_21572" data-name="Path 21572" d="M975.545,1707c-.156-.07-.312-.139-.468-.226a.514.514,0,0,1-.226-.243,1,1,0,0,0-.1-.191,1.016,1.016,0,0,1-.086-.382,3.867,3.867,0,0,1,.07-.9,1.256,1.256,0,0,1,.034-.226,1,1,0,0,1,.07-.382,5.4,5.4,0,0,1,.208-.695,4.069,4.069,0,0,0,.174-.417,2.689,2.689,0,0,1,.434-.71,4.287,4.287,0,0,1,.434-.521,2.284,2.284,0,0,0,.278-.3,1.311,1.311,0,0,1,.312-.312c.138-.087.226-.243.382-.329a2.628,2.628,0,0,0,.381-.295c.174-.052.312-.1.451-.156a1.492,1.492,0,0,1,.555-.035,2.271,2.271,0,0,1,1.318.555.066.066,0,0,0,.1,0c.1-.052.156-.156.243-.226a.283.283,0,0,1,.26-.086.624.624,0,0,1,.417.156.334.334,0,0,1,.069.313,1.715,1.715,0,0,0-.138.243,2.332,2.332,0,0,1-.294.537c-.1.156-.122.33-.295.469-.243.469-.365.729-.555,1.163a6.922,6.922,0,0,0-.382,1.249,2.734,2.734,0,0,0-.086.659.481.481,0,0,0,.138.364.95.95,0,0,0,.139.1.2.2,0,0,0,.138.018.522.522,0,0,0,.329-.138,3.8,3.8,0,0,0,.625-.5c.052-.07.122-.122.174-.191a3.186,3.186,0,0,0,.329-.346c.052-.052.174-.226.208-.26a9.918,9.918,0,0,0,.763-1.041c.1-.121.139-.278.226-.382a3.2,3.2,0,0,0,.242-.364.24.24,0,0,1,.191-.086c.018,0,.087-.018.1,0,.034.018.1,0,.156.052.07.052.1.086.07.26a3.378,3.378,0,0,1-.226.555,4.865,4.865,0,0,1-.5.764,4.562,4.562,0,0,1-.607.885,3.542,3.542,0,0,1-.347.382c-.086.122-.208.208-.26.278-.086.052-.156.086-.156.121a4.416,4.416,0,0,1-.5.417,6.31,6.31,0,0,1-.607.278.84.84,0,0,1-.677.017,1.493,1.493,0,0,1-.433-.294.743.743,0,0,1-.243-.347,1.158,1.158,0,0,1-.1-.487,1.315,1.315,0,0,0,0-.451c0-.018-.018-.018-.034-.034h-.052a.175.175,0,0,0-.087.069c-.139.138-.278.295-.417.451a4.728,4.728,0,0,1-.85.815,2.22,2.22,0,0,0-.208.191l-.59.208a.67.67,0,0,1-.486-.018Zm.538-.816a3.4,3.4,0,0,0,.833-.658c.243-.243.468-.521.729-.781a18.656,18.656,0,0,0,1.215-1.6,5.256,5.256,0,0,0,.573-1.024c-.086-.121-.138-.243-.226-.346a.762.762,0,0,0-.659-.364,1.856,1.856,0,0,0-.433.034,1.471,1.471,0,0,0-.4.208c-.278.208-.521.417-.781.642a5.842,5.842,0,0,0-.9,1.146,4.428,4.428,0,0,0-.4,1.041c-.052.19-.07.364-.1.554a3.364,3.364,0,0,0-.07.833l.018.174a.274.274,0,0,0,.33.226.526.526,0,0,0,.278-.086Z" transform="translate(-894.62 -1673.115)" fill="#007064"/>
    <path id="Path_21573" data-name="Path 21573" d="M1054.6,1692.637a3.991,3.991,0,0,1-.226.555,4.985,4.985,0,0,1-.538.763,3.8,3.8,0,0,1-.643.885,3.346,3.346,0,0,1-.364.383c-.087.122-.226.208-.278.278-.07.052-.156.086-.156.122a6.128,6.128,0,0,1-.555.417,2,2,0,0,1-.694.278.959.959,0,0,1-.174.052.919.919,0,0,1-.573-.034,1.488,1.488,0,0,1-.607-.539,1.29,1.29,0,0,1-.086-.694.8.8,0,0,0,0-.208,1.034,1.034,0,0,1,.069-.329,4.179,4.179,0,0,1,.209-.607c.086-.208.278-.591.312-.677.191-.33.486-.8,1.041-1.631.1-.156.174-.33.261-.486a.064.064,0,0,0,.017-.052.1.1,0,0,0-.052-.087h-.1a2.7,2.7,0,0,1-.486.174c-.19.018-.19.07-.4.1a4.253,4.253,0,0,0-.5.1l-.174-.018c-.052.087-.1.174-.173.3a5.406,5.406,0,0,1-.295.572,4.233,4.233,0,0,1-1.076,1.319.419.419,0,0,1-.242.052.347.347,0,0,1-.086-.417l.364-.624a9.142,9.142,0,0,0,.417-.833c.086-.156.156-.33.226-.468.034-.087.086-.174.122-.26-.122-.156-.156-.242-.156-.226l-.07-.242a1.844,1.844,0,0,1,.138-.99,1.019,1.019,0,0,1,.313-.416.845.845,0,0,1,.4-.191h.018a.236.236,0,0,1,.19.07c.07.034.174.07.191.138a.5.5,0,0,1,.156.208.958.958,0,0,1,.1.434,2,2,0,0,1,0,.33c-.052.174-.069.19-.121.382-.052.052.018.07.156.034.226-.07.3-.122.521-.19a.807.807,0,0,0,.278-.122.694.694,0,0,1,.26-.052l.435-.052a1.476,1.476,0,0,1,.329.121.45.45,0,0,1,.33.347.491.491,0,0,1,0,.226,3.644,3.644,0,0,1-.538,1.161c-.052.052-.087.122-.138.174-.1.174-.451.729-.642.989-.19.382-.434.9-.52,1.059a1.833,1.833,0,0,0-.226.833.623.623,0,0,0,.088.451.271.271,0,0,0,.138.1l.122.018a.906.906,0,0,0,.208-.034,1.573,1.573,0,0,0,.382-.208,1.789,1.789,0,0,0,.469-.382c.052-.07.138-.122.191-.191a3.387,3.387,0,0,0,.347-.347c.052-.052.191-.226.226-.26a10.4,10.4,0,0,0,.8-1.041c.1-.121.138-.278.242-.382a3.23,3.23,0,0,0,.243-.365.26.26,0,0,1,.208-.086c.018,0,.1-.018.121,0,.034.018.1,0,.174.052.086.07.1.121.086.26Z" transform="translate(-960.754 -1662.554)" fill="#007064"/>
    <path id="Path_21574" data-name="Path 21574" d="M1103.524,1707.372a.959.959,0,0,1-.329-.208c-.139-.138-.278-.294-.416-.451a.7.7,0,0,1-.157-.365.217.217,0,0,1-.018-.1,1.426,1.426,0,0,1-.086-.607,3.06,3.06,0,0,1,.034-.555,2.21,2.21,0,0,0,.052-.329,4.245,4.245,0,0,0,.174-.417,5.115,5.115,0,0,1,.5-1.023.646.646,0,0,0,.07-.156l.087-.156c.138-.191.294-.382.451-.573a2.061,2.061,0,0,1,.711-.624,4.362,4.362,0,0,1,.9-.451.5.5,0,0,1,.157-.034l.45-.086a.7.7,0,0,1,.486.1,2.738,2.738,0,0,1,.347.278.612.612,0,0,1,.242.434,2.081,2.081,0,0,1,.035.346,2.213,2.213,0,0,1-.122.451l-.1.26c-.034.087-.121.174-.156.26-.035.07-.174.242-.208.295l-.087.156c-.1.174-.26.312-.382.486a.4.4,0,0,1-.086.052c-.087.07-.19.138-.26.208a2.841,2.841,0,0,1-1.023.607l-.729.174c-.156.018-.573.052-.694.052,0,.018,0,.1-.018.122a1.323,1.323,0,0,0,.157.85.376.376,0,0,0,.156.174,1.811,1.811,0,0,0,.746.191.916.916,0,0,0,.434-.07,1.094,1.094,0,0,1,.226-.052c.052-.017.243-.122.295-.138a8.472,8.472,0,0,0,.971-.625c.052-.07.122-.122.174-.19a2.776,2.776,0,0,0,.329-.312c.052-.052.174-.209.208-.243a9.217,9.217,0,0,0,.763-.954c.1-.1.139-.26.225-.347.1-.122.174-.243.243-.33a.239.239,0,0,1,.19-.086c.018,0,.087-.018.1,0,.035.018.1,0,.156.052.07.034.1.07.07.226a3.122,3.122,0,0,1-.226.52,4.2,4.2,0,0,1-.5.695,3.709,3.709,0,0,1-.607.815,3.462,3.462,0,0,1-.347.365,3.012,3.012,0,0,1-.26.242c-.087.052-.537.4-.677.486a2.633,2.633,0,0,1-.365.242,3.381,3.381,0,0,1-1.544.451,2.145,2.145,0,0,1-.747-.1Zm1.128-3.019a5.86,5.86,0,0,0,1.111-.919,2.7,2.7,0,0,0,.435-.659.963.963,0,0,0,.1-.538.265.265,0,0,0-.312-.243,3.215,3.215,0,0,0-.381.122,1.583,1.583,0,0,0-.729.486,1.11,1.11,0,0,1-.174.138,2.94,2.94,0,0,0-.781.989,3.531,3.531,0,0,1-.191.347,1.4,1.4,0,0,0-.069.191.674.674,0,0,0-.052.278,2.376,2.376,0,0,0,1.041-.191Z" transform="translate(-1009.917 -1673.611)" fill="#007064"/>
    <path id="Path_21575" data-name="Path 21575" d="M1165.253,1688.732l-.26-.1a1.606,1.606,0,0,1-.4-.607.507.507,0,0,1-.034-.156c0-.087.018-.156.018-.226a1.564,1.564,0,0,1-.018-.278,1.057,1.057,0,0,0,.018-.226v-.226c.052-.226.07-.451.139-.659l.19-.711c.087-.33.226-.625.295-.955a1.4,1.4,0,0,1,.069-.156,2.47,2.47,0,0,0,.26-.677c.122-.26.243-.521.382-.763s.555-1.2.677-1.458c.034-.1-.208-.538-.242-.659a1.181,1.181,0,0,0-.122-.312.852.852,0,0,1-.122-.33c0-.138.278-.365.5-.469.087-.035.226,0,.4.208.052.052.138.208.174.121.295-.537.729-1.283.815-1.474a.971.971,0,0,1,.156-.3,3.318,3.318,0,0,0,.191-.346c.191-.364.4-.711.625-1.075.1-.19.226-.382.347-.573a5.094,5.094,0,0,0,.347-.5.414.414,0,0,1,.1-.138,2.106,2.106,0,0,0,.295-.4,2.067,2.067,0,0,1,.521-.5.238.238,0,0,1,.208-.052,1.287,1.287,0,0,1,.434.138.356.356,0,0,1,.156.278,3.289,3.289,0,0,1-.347,1.127,2.749,2.749,0,0,0-.26.555.309.309,0,0,1-.069.156c-.1.122-.208.26-.312.4a2.08,2.08,0,0,0-.226.312.445.445,0,0,1-.191.208l-.33.382a2.167,2.167,0,0,0-.33.451.17.17,0,0,1-.07.087,3.621,3.621,0,0,1-.537.486,1.723,1.723,0,0,0-.451.346c-.052.07-.087.156-.139.242-.086.174-.156.365-.26.555-.052.1-.086.208-.138.312a.767.767,0,0,0-.034.486,2.9,2.9,0,0,0,.695.642c.034.018.07.018.1.034a1.015,1.015,0,0,0,.729-.226,8.208,8.208,0,0,0,.711-.468c.034,0,.052-.034.086-.07a5.966,5.966,0,0,0,.781-.851c.122-.121.156-.278.26-.382a3.777,3.777,0,0,0,.26-.365.274.274,0,0,1,.208-.086c.018,0,.1-.018.122,0,.034.018.1,0,.174.052s.1.087.07.26a3.593,3.593,0,0,1-.243.555,5.2,5.2,0,0,1-.573.763c-.191.329-.086.174-.4.5a4.725,4.725,0,0,1-.729.591,4.637,4.637,0,0,1-.781.382.561.561,0,0,1-.278.07.8.8,0,0,0-.347.052.2.2,0,0,0-.086.122,4.425,4.425,0,0,0-.018.676,5.282,5.282,0,0,1-.07,1.058,7.281,7.281,0,0,1-.243,1.163,5.5,5.5,0,0,1-.26.677c-.086.174-.122.347-.208.521-.07.156-.156.294-.226.451a.7.7,0,0,1-.191.33l-.312.347a.641.641,0,0,0-.174.278.581.581,0,0,1-.294.243.574.574,0,0,1-.156.052c-.19.052-.364.1-.555.138a.678.678,0,0,1-.486-.034Zm.538-.78c.035-.018.07-.018.1-.052.122-.086.243-.174.347-.26a2.33,2.33,0,0,0,.26-.364.693.693,0,0,0,.086-.156,6.617,6.617,0,0,1,.382-.8,1.054,1.054,0,0,0,.087-.208.923.923,0,0,1,.19-.417.323.323,0,0,0,.052-.139c.1-.382.208-.763.294-1.145a6.5,6.5,0,0,0,.052-1.007,1.074,1.074,0,0,0-.034-.329.285.285,0,0,0-.086-.208c-.07-.1-.156-.209-.226-.295a.715.715,0,0,0-.226-.086.212.212,0,0,0-.139.069.389.389,0,0,0-.069.1c-.208.486-.435.989-.642,1.492-.122.313-.243.625-.347.937a1.848,1.848,0,0,0-.156.607,2.341,2.341,0,0,0-.174.59,3.559,3.559,0,0,0-.122,1.041.829.829,0,0,0,.07.451.342.342,0,0,0,.191.19.216.216,0,0,0,.1-.018Z" transform="translate(-1065.87 -1649.715)" fill="#007064"/>
    <path id="Path_21576" data-name="Path 21576" d="M1227.041,1707.02a.286.286,0,0,1-.156-.052,1.88,1.88,0,0,1-.451-.382.179.179,0,0,1-.07-.086.508.508,0,0,0-.069-.139,2.035,2.035,0,0,1-.191-1.111.9.9,0,0,1,.018-.208,2.415,2.415,0,0,1,.035-.486l.156-.659a2.944,2.944,0,0,1,.364-.746c.1-.156.19-.347.278-.5a3.86,3.86,0,0,1,.677-.9.667.667,0,0,1,.174-.139,5.942,5.942,0,0,0,.625-.521c.087-.052.174-.1.278-.156a2.488,2.488,0,0,1,.729-.19,2.222,2.222,0,0,1,.486.018,3.206,3.206,0,0,1,.451.138c.139.156.3.278.417.434a.318.318,0,0,1,.1.295.451.451,0,0,0,.035.26l.1.243a.991.991,0,0,1,.052.312v.383a.641.641,0,0,1-.035.174c-.086.208-.138.434-.226.659a2.988,2.988,0,0,1-.278.642c-.122.19-.191.416-.312.625a.18.18,0,0,0,.069.19.578.578,0,0,0,.382.07.651.651,0,0,0,.365-.1,3.377,3.377,0,0,0,.659-.486c.052-.07.138-.122.19-.191a3.8,3.8,0,0,0,.347-.4c.017-.052.121-.174.156-.26.225-.312.3-.451.4-.607a.334.334,0,0,1,.5-.138c.1.086.087.208-.018.5a2.789,2.789,0,0,1-.486.885c-.138.139-.434.555-.677.763a3.872,3.872,0,0,1-.555.435,5.727,5.727,0,0,1-.573.278,2,2,0,0,1-.607.07,2.891,2.891,0,0,1-.659-.26c-.034.018-.07.018-.1.052-.156.191-.347.347-.486.555a3.221,3.221,0,0,1-.555.434c-.034.018-.07.018-.1.052a1.771,1.771,0,0,1-1.232.278.777.777,0,0,1-.208-.017Zm.781-.781a.965.965,0,0,1,.295-.1.691.691,0,0,0,.226-.122,2.449,2.449,0,0,0,.711-.695,1.557,1.557,0,0,1,.226-.312l-.052-.607a1.6,1.6,0,0,1,.087-.711,2.451,2.451,0,0,1,.538-1.232,1.676,1.676,0,0,0,.156-.191.55.55,0,0,0,0-.607c0-.034-.034-.052-.069-.052a.372.372,0,0,0-.208-.07,1.826,1.826,0,0,1-.312,0,1.018,1.018,0,0,0-.486.139,3.3,3.3,0,0,0-.468.278.368.368,0,0,0-.086.052,6.016,6.016,0,0,0-.555.607c-.173.243-.295.539-.5.8a4.214,4.214,0,0,0-.208.4,3.977,3.977,0,0,0-.208.919l-.052.295a1.72,1.72,0,0,0,.087.781c.018.035.018.1.034.156a.569.569,0,0,0,.365.33.685.685,0,0,0,.486-.052Z" transform="translate(-1121.359 -1673.172)" fill="#007064"/>
    <path id="Path_21577" data-name="Path 21577" d="M1296.082,1692.637a4.013,4.013,0,0,1-.226.555,4.988,4.988,0,0,1-.539.763,3.8,3.8,0,0,1-.641.885,3.313,3.313,0,0,1-.364.383c-.087.122-.226.208-.278.278-.07.052-.156.086-.156.122a6.29,6.29,0,0,1-.555.417,2.013,2.013,0,0,1-.694.278.957.957,0,0,1-.174.052.92.92,0,0,1-.573-.034,1.489,1.489,0,0,1-.607-.539,1.286,1.286,0,0,1-.086-.694.831.831,0,0,0,0-.208,1,1,0,0,1,.069-.329,4.146,4.146,0,0,1,.208-.607c.087-.208.278-.591.312-.677.191-.33.486-.8,1.041-1.631.1-.156.174-.33.26-.486a.062.062,0,0,0,.018-.052.1.1,0,0,0-.052-.087h-.1a2.7,2.7,0,0,1-.486.174c-.191.018-.191.07-.4.1a4.228,4.228,0,0,0-.5.1l-.174-.018c-.052.087-.1.174-.174.3a5.3,5.3,0,0,1-.3.572,4.229,4.229,0,0,1-1.075,1.319.421.421,0,0,1-.243.052.348.348,0,0,1-.087-.417l.365-.624a9.073,9.073,0,0,0,.417-.833c.087-.156.156-.33.226-.468.034-.087.086-.174.121-.26-.121-.156-.156-.242-.156-.226l-.07-.242a1.845,1.845,0,0,1,.139-.99,1.02,1.02,0,0,1,.312-.416.845.845,0,0,1,.4-.191h.018a.236.236,0,0,1,.191.07c.07.034.174.07.19.138a.5.5,0,0,1,.156.208.972.972,0,0,1,.1.434,2.069,2.069,0,0,1,0,.33c-.052.174-.07.19-.121.382-.052.052.018.07.156.034.226-.07.295-.122.52-.19a.8.8,0,0,0,.278-.122.7.7,0,0,1,.26-.052l.434-.052a1.5,1.5,0,0,1,.33.121.448.448,0,0,1,.329.347.5.5,0,0,1,0,.226,3.661,3.661,0,0,1-.538,1.161c-.052.052-.087.122-.138.174-.1.174-.451.729-.643.989-.19.382-.434.9-.52,1.059a1.822,1.822,0,0,0-.226.833.629.629,0,0,0,.086.451.275.275,0,0,0,.139.1l.122.018a.909.909,0,0,0,.208-.034,1.582,1.582,0,0,0,.382-.208,1.787,1.787,0,0,0,.469-.382c.052-.07.138-.122.19-.191a3.275,3.275,0,0,0,.347-.347c.052-.052.191-.226.226-.26a10.532,10.532,0,0,0,.8-1.041c.1-.121.138-.278.242-.382a3.257,3.257,0,0,0,.242-.365.26.26,0,0,1,.208-.086c.018,0,.1-.018.122,0,.034.018.1,0,.174.052.086.07.1.121.086.26Z" transform="translate(-1178.517 -1662.554)" fill="#007064"/>
    <path id="Path_21578" data-name="Path 21578" d="M1377.576,1707c-.156-.07-.312-.139-.469-.226a.518.518,0,0,1-.226-.243.987.987,0,0,0-.1-.191,1.013,1.013,0,0,1-.087-.382,3.861,3.861,0,0,1,.07-.9,1.273,1.273,0,0,1,.034-.226,1,1,0,0,1,.07-.382,5.367,5.367,0,0,1,.208-.695,4.237,4.237,0,0,0,.174-.417,2.688,2.688,0,0,1,.434-.71,4.266,4.266,0,0,1,.434-.521,2.308,2.308,0,0,0,.278-.3,1.308,1.308,0,0,1,.312-.312c.138-.087.226-.243.382-.329a2.613,2.613,0,0,0,.382-.295c.174-.052.312-.1.45-.156a1.492,1.492,0,0,1,.555-.035,2.275,2.275,0,0,1,1.319.555.066.066,0,0,0,.1,0c.1-.052.156-.156.243-.226a.283.283,0,0,1,.26-.086.626.626,0,0,1,.417.156.334.334,0,0,1,.069.313,1.742,1.742,0,0,0-.139.243,2.3,2.3,0,0,1-.294.537c-.1.156-.121.33-.295.469-.243.469-.365.729-.555,1.163a6.864,6.864,0,0,0-.382,1.249,2.753,2.753,0,0,0-.087.659.482.482,0,0,0,.138.364.938.938,0,0,0,.138.1.205.205,0,0,0,.138.018.528.528,0,0,0,.33-.138,3.794,3.794,0,0,0,.625-.5c.052-.07.122-.122.174-.191a3.194,3.194,0,0,0,.33-.346c.052-.052.174-.226.208-.26a10.028,10.028,0,0,0,.763-1.041c.1-.121.138-.278.226-.382a3.148,3.148,0,0,0,.242-.364.24.24,0,0,1,.191-.086c.018,0,.087-.018.1,0,.034.018.1,0,.156.052.069.052.1.086.069.26a3.4,3.4,0,0,1-.226.555,4.9,4.9,0,0,1-.5.764,4.514,4.514,0,0,1-.607.885,3.5,3.5,0,0,1-.347.382c-.086.122-.208.208-.26.278-.086.052-.156.086-.156.121a4.47,4.47,0,0,1-.5.417,6.287,6.287,0,0,1-.607.278.84.84,0,0,1-.677.017,1.524,1.524,0,0,1-.434-.294.744.744,0,0,1-.242-.347,1.16,1.16,0,0,1-.1-.487,1.306,1.306,0,0,0,0-.451c0-.018-.018-.018-.034-.034h-.052a.17.17,0,0,0-.086.069c-.139.138-.278.295-.417.451a4.722,4.722,0,0,1-.85.815,2.131,2.131,0,0,0-.208.191l-.59.208a.67.67,0,0,1-.486-.018Zm.538-.816a3.411,3.411,0,0,0,.833-.658c.242-.243.468-.521.729-.781a18.4,18.4,0,0,0,1.214-1.6,5.238,5.238,0,0,0,.573-1.024c-.087-.121-.139-.243-.226-.346a.763.763,0,0,0-.659-.364,1.864,1.864,0,0,0-.434.034,1.469,1.469,0,0,0-.4.208c-.278.208-.521.417-.781.642a5.849,5.849,0,0,0-.9,1.146,4.418,4.418,0,0,0-.4,1.041c-.052.19-.07.364-.1.554a3.353,3.353,0,0,0-.07.833l.018.174a.275.275,0,0,0,.33.226.525.525,0,0,0,.278-.086Z" transform="translate(-1257.165 -1673.115)" fill="#007064"/>
    <path id="Path_21579" data-name="Path 21579" d="M1445.931,1676.688a2.1,2.1,0,0,1-.33-.208.217.217,0,0,1-.07-.138,3.271,3.271,0,0,1-.121-.382.223.223,0,0,1,.017-.1,5.9,5.9,0,0,1,.19-1.232c.034-.086.034-.174.07-.278a.971.971,0,0,1,.07-.208c.121-.294.208-.607.347-.9.174-.382.33-.815.5-1.232l.086-.294a10.829,10.829,0,0,1,.624-1.284c.1-.242.278-.521.4-.745.138-.243.312-.469.4-.607a4.166,4.166,0,0,1,.347-.5l.434-.643a2.574,2.574,0,0,1,.191-.208,1.554,1.554,0,0,1,.242-.226c.243-.226.382-.312.607-.226a.349.349,0,0,1,.26.226,1.531,1.531,0,0,1-.052.954,3.256,3.256,0,0,1-.226.5,4.129,4.129,0,0,1-.538,1.007,6.18,6.18,0,0,1-.487.711,1.127,1.127,0,0,0-.122.174,3.606,3.606,0,0,0-.312.416c-.174.174-.312.33-.555.555-.312.346-.591.677-.781.885-.052.1-.226.469-.26.573-.138.33-.26.677-.364,1.007a5.837,5.837,0,0,0-.278,1.041,2.132,2.132,0,0,0-.034.573.328.328,0,0,0,.4.278c.034-.018.122-.034.156-.052a8.92,8.92,0,0,0,.971-.711c.052-.07.139-.122.191-.19a1.94,1.94,0,0,0,.312-.347c.052-.052.174-.226.208-.26a9.212,9.212,0,0,0,.711-1.041c.1-.121.156-.278.26-.382a3.2,3.2,0,0,0,.243-.365.3.3,0,0,1,.208-.086c.017,0,.087-.017.1,0,.035.018.1,0,.156.052s.086.086.052.261c-.018.052-.208.469-.261.555a3.754,3.754,0,0,1-.485.763,4.147,4.147,0,0,1-.555.885c-.1.122-.242.26-.364.382-.087.121-.209.208-.261.278-.07.052-.138.086-.138.122a4.592,4.592,0,0,1-.52.417c-.139.1-.538.26-.659.33a1.22,1.22,0,0,1-.989-.087Z" transform="translate(-1319.136 -1642.962)" fill="#007064"/>
    <path id="Path_21580" data-name="Path 21580" d="M1478.432,1676.688a2.1,2.1,0,0,1-.33-.208.216.216,0,0,1-.07-.138,3.341,3.341,0,0,1-.121-.382.223.223,0,0,1,.017-.1,5.862,5.862,0,0,1,.191-1.232c.034-.086.034-.174.069-.278a.946.946,0,0,1,.07-.208c.122-.294.208-.607.347-.9.173-.382.33-.815.5-1.232l.087-.294a10.667,10.667,0,0,1,.625-1.284c.1-.242.278-.521.4-.745.139-.243.312-.469.4-.607a4.2,4.2,0,0,1,.347-.5l.434-.643a2.572,2.572,0,0,1,.19-.208,1.581,1.581,0,0,1,.242-.226c.243-.226.382-.312.607-.226a.349.349,0,0,1,.26.226,1.526,1.526,0,0,1-.052.954,3.247,3.247,0,0,1-.226.5,4.15,4.15,0,0,1-.538,1.007,6.274,6.274,0,0,1-.486.711,1.026,1.026,0,0,0-.121.174,3.555,3.555,0,0,0-.313.416c-.173.174-.312.33-.555.555-.312.346-.59.677-.781.885-.052.1-.226.469-.26.573-.139.33-.261.677-.364,1.007a5.806,5.806,0,0,0-.278,1.041,2.112,2.112,0,0,0-.035.573.327.327,0,0,0,.4.278c.035-.018.121-.034.156-.052a8.85,8.85,0,0,0,.971-.711c.052-.07.138-.122.191-.19a1.967,1.967,0,0,0,.312-.347c.052-.052.174-.226.209-.26a9.276,9.276,0,0,0,.711-1.041c.1-.121.156-.278.26-.382a3.183,3.183,0,0,0,.242-.365.3.3,0,0,1,.208-.086c.018,0,.087-.017.1,0,.034.018.1,0,.156.052s.087.086.052.261c-.018.052-.208.469-.26.555a3.756,3.756,0,0,1-.486.763,4.122,4.122,0,0,1-.555.885c-.1.122-.242.26-.365.382-.086.121-.208.208-.26.278-.07.052-.139.086-.139.122a4.561,4.561,0,0,1-.521.417c-.138.1-.537.26-.659.33a1.222,1.222,0,0,1-.989-.087Z" transform="translate(-1348.444 -1642.962)" fill="#007064"/>
    <rect id="Rectangle_1899" data-name="Rectangle 1899" width="26.259" height="1.157" transform="translate(0 29.588)" fill="#007064"/>
    <rect id="Rectangle_1900" data-name="Rectangle 1900" width="26.259" height="1.157" transform="translate(138.798 29.588)" fill="#007064"/>
    <path id="Path_21581" data-name="Path 21581" d="M170.517,1429.4h-4.484v12.446H164.2V1429.4H159.73v-1.5h10.788v1.5Z" transform="translate(-159.729 -1427.134)" fill="#007064"/>
    <path id="Path_21582" data-name="Path 21582" d="M289.573,1425.715a3.768,3.768,0,0,1,3.066-1.447q3.285,0,3.315,3.708v6.85h-1.773v-6.859a2.39,2.39,0,0,0-.513-1.658,2.054,2.054,0,0,0-1.567-.536,2.558,2.558,0,0,0-1.513.46,3.127,3.127,0,0,0-1.016,1.207v7.387H287.8V1420.11h1.773v5.605Z" transform="translate(-275.221 -1420.109)" fill="#007064"/>
    <path id="Path_21583" data-name="Path 21583" d="M402.841,1464.221a5.289,5.289,0,0,0-.872-.067,2.334,2.334,0,0,0-2.366,1.485V1473H397.83v-10.367h1.725l.028,1.2a2.761,2.761,0,0,1,2.472-1.389,1.811,1.811,0,0,1,.786.135v1.648Z" transform="translate(-374.444 -1458.281)" fill="#007064"/>
    <path id="Path_21584" data-name="Path 21584" d="M465.53,1426.984a1.058,1.058,0,0,1,.263-.728.988.988,0,0,1,.781-.3,1.006,1.006,0,0,1,.786.3,1.047,1.047,0,0,1,.268.728,1.049,1.049,0,1,1-2.1,0Zm1.916,13.117h-1.772v-10.367h1.772Z" transform="translate(-435.495 -1425.385)" fill="#007064"/>
    <path id="Path_21585" data-name="Path 21585" d="M507.916,1472.351l2.567-7.961h1.81l-3.718,10.366h-1.35l-3.756-10.366h1.81l2.635,7.961Z" transform="translate(-469.708 -1460.04)" fill="#007064"/>
    <path id="Path_21586" data-name="Path 21586" d="M610.852,1473.19a4.526,4.526,0,0,1-3.43-1.385,5.139,5.139,0,0,1-1.322-3.7v-.326a6.225,6.225,0,0,1,.589-2.755,4.6,4.6,0,0,1,1.648-1.9,4.141,4.141,0,0,1,2.294-.685,3.883,3.883,0,0,1,3.143,1.332,5.764,5.764,0,0,1,1.122,3.813v.738h-7.022a3.685,3.685,0,0,0,.9,2.476,2.814,2.814,0,0,0,2.179.944,3.088,3.088,0,0,0,1.59-.383,4.008,4.008,0,0,0,1.14-1.015l1.082.843a4.355,4.355,0,0,1-3.909,2Zm-.22-9.293a2.365,2.365,0,0,0-1.8.781,3.8,3.8,0,0,0-.9,2.189h5.193v-.134a3.38,3.38,0,0,0-.728-2.094,2.226,2.226,0,0,0-1.763-.743Z" transform="translate(-562.259 -1458.281)" fill="#007064"/>
    <path id="Path_21587" data-name="Path 21587" d="M779.54,1441.86h-1.848v-6.448h-7.033v6.448H768.82v-13.95h1.839v6h7.033v-6h1.848Z" transform="translate(-708.997 -1427.143)" fill="#007064"/>
    <path id="Path_21588" data-name="Path 21588" d="M908.571,1473.19a4.525,4.525,0,0,1-3.429-1.385,5.138,5.138,0,0,1-1.322-3.7v-.326a6.226,6.226,0,0,1,.589-2.755,4.6,4.6,0,0,1,1.648-1.9,4.141,4.141,0,0,1,2.294-.685,3.883,3.883,0,0,1,3.143,1.332,5.766,5.766,0,0,1,1.122,3.813v.738h-7.022a3.685,3.685,0,0,0,.9,2.476,2.814,2.814,0,0,0,2.18.944,3.087,3.087,0,0,0,1.59-.383,4,4,0,0,0,1.14-1.015l1.082.843a4.355,4.355,0,0,1-3.909,2Zm-.22-9.293a2.365,2.365,0,0,0-1.8.781,3.8,3.8,0,0,0-.9,2.189h5.193v-.134a3.38,3.38,0,0,0-.728-2.094,2.227,2.227,0,0,0-1.763-.743Z" transform="translate(-830.738 -1458.281)" fill="#007064"/>
    <path id="Path_21589" data-name="Path 21589" d="M1017.907,1472.989a3.727,3.727,0,0,1-.249-1.092,3.957,3.957,0,0,1-2.95,1.284,3.658,3.658,0,0,1-2.516-.867,2.8,2.8,0,0,1-.982-2.2,2.932,2.932,0,0,1,1.232-2.515,5.8,5.8,0,0,1,3.463-.9h1.725v-.814a1.991,1.991,0,0,0-.556-1.48,2.233,2.233,0,0,0-1.638-.551,2.586,2.586,0,0,0-1.59.479,1.411,1.411,0,0,0-.642,1.159h-1.782a2.447,2.447,0,0,1,.551-1.5,3.771,3.771,0,0,1,1.495-1.145,5.034,5.034,0,0,1,2.074-.421,4.1,4.1,0,0,1,2.807.9,3.232,3.232,0,0,1,1.054,2.467v4.771a5.813,5.813,0,0,0,.364,2.271v.153h-1.858Zm-2.941-1.351a3.115,3.115,0,0,0,1.581-.431,2.612,2.612,0,0,0,1.082-1.12v-2.128h-1.389q-3.257,0-3.258,1.906a1.611,1.611,0,0,0,.556,1.3A2.13,2.13,0,0,0,1014.967,1471.638Z" transform="translate(-927.581 -1458.272)" fill="#007064"/>
    <path id="Path_21590" data-name="Path 21590" d="M1126.252,1434.826h-1.772V1420.11h1.772Z" transform="translate(-1029.726 -1420.109)" fill="#007064"/>
    <path id="Path_21591" data-name="Path 21591" d="M1162.262,1438.83v2.51h1.935v1.37h-1.935v6.437a1.443,1.443,0,0,0,.258.936,1.089,1.089,0,0,0,.881.311,4.28,4.28,0,0,0,.843-.115v1.429a5.191,5.191,0,0,1-1.361.19,2.207,2.207,0,0,1-1.791-.719,3.088,3.088,0,0,1-.6-2.041v-6.428H1158.6v-1.37h1.888v-2.51h1.773Z" transform="translate(-1060.495 -1436.991)" fill="#007064"/>
    <path id="Path_21592" data-name="Path 21592" d="M1238.441,1425.715a3.768,3.768,0,0,1,3.066-1.447q3.287,0,3.315,3.708v6.85h-1.772v-6.859a2.392,2.392,0,0,0-.513-1.658,2.054,2.054,0,0,0-1.566-.536,2.559,2.559,0,0,0-1.514.46,3.129,3.129,0,0,0-1.016,1.207v7.387h-1.772V1420.11h1.772v5.605Z" transform="translate(-1130.897 -1420.109)" fill="#007064"/>
    <path id="Path_21593" data-name="Path 21593" d="M1409.7,1441.86h-1.848v-6.448h-7.032v6.448h-1.839v-13.95h1.839v6h7.032v-6h1.848Z" transform="translate(-1277.266 -1427.143)" fill="#007064"/>
    <path id="Path_21594" data-name="Path 21594" d="M1544.608,1473.741a3.765,3.765,0,0,1-3.037,1.217,3.223,3.223,0,0,1-2.524-.963,4.172,4.172,0,0,1-.877-2.85V1464.4h1.773v6.7q0,2.357,1.916,2.357a2.655,2.655,0,0,0,2.7-1.514v-7.54h1.772v10.366h-1.686l-.038-1.025Z" transform="translate(-1402.785 -1460.049)" fill="#007064"/>
    <path id="Path_21595" data-name="Path 21595" d="M1657.476,1429.748a6.162,6.162,0,0,1-1.092,3.818,3.488,3.488,0,0,1-2.932,1.442,3.613,3.613,0,0,1-3.037-1.389l-.086,1.2H1648.7V1420.1h1.772v5.49a3.592,3.592,0,0,1,2.96-1.332,3.511,3.511,0,0,1,2.965,1.427,6.345,6.345,0,0,1,1.079,3.909Zm-1.773-.2a4.787,4.787,0,0,0-.7-2.8,2.317,2.317,0,0,0-2.013-.987,2.6,2.6,0,0,0-2.521,1.629v4.483a2.676,2.676,0,0,0,2.54,1.628,2.3,2.3,0,0,0,1.983-.987,5.1,5.1,0,0,0,.709-2.97Z" transform="translate(-1502.459 -1420.1)" fill="#007064"/>
    <path id="Path_21596" data-name="Path 21596" d="M1762.865,1470.257a1.308,1.308,0,0,0-.541-1.116,5.188,5.188,0,0,0-1.887-.685,8.946,8.946,0,0,1-2.137-.689,3.043,3.043,0,0,1-1.169-.957,2.29,2.29,0,0,1-.378-1.322,2.687,2.687,0,0,1,1.078-2.156,4.212,4.212,0,0,1,2.754-.881,4.332,4.332,0,0,1,2.86.91,2.892,2.892,0,0,1,1.1,2.328h-1.781a1.6,1.6,0,0,0-.618-1.255,2.312,2.312,0,0,0-1.557-.528,2.463,2.463,0,0,0-1.513.421,1.325,1.325,0,0,0-.546,1.1,1.074,1.074,0,0,0,.507.967,6.261,6.261,0,0,0,1.835.623,9.542,9.542,0,0,1,2.151.709,3.147,3.147,0,0,1,1.222.991,2.44,2.44,0,0,1,.4,1.414,2.652,2.652,0,0,1-1.112,2.228,4.665,4.665,0,0,1-2.884.839,5.227,5.227,0,0,1-2.2-.441,3.582,3.582,0,0,1-1.5-1.231,2.969,2.969,0,0,1-.541-1.71h1.772a1.837,1.837,0,0,0,.714,1.414,2.769,2.769,0,0,0,1.758.522,2.852,2.852,0,0,0,1.615-.408,1.249,1.249,0,0,0,.608-1.087Z" transform="translate(-1599.582 -1458.291)" fill="#007064"/>
  </g>
</svg>
