<svg id="thrive-logo-emblem-primary-teal-RGB" xmlns="http://www.w3.org/2000/svg" width="85.385" height="85.385" viewBox="0 0 85.385 85.385">
  <path id="Path_21525" data-name="Path 21525" d="M217.722,255.807V268.5h-2.6V219.07A38.545,38.545,0,0,0,230.291,294.4V255.807ZM211.1,244.026l-7.5.047V268.5H201V244.074l-7.5-.047v-1.4H211.1Z" transform="translate(-183.111 -213.422)" fill="#007064"/>
  <path id="Path_21526" data-name="Path 21526" d="M837.712,187.25a38.679,38.679,0,0,0-8.082.855v36.057H842.2V212.316h2.6V263.7a38.551,38.551,0,0,0-7.083-76.446Zm27.734,50.939V225.5H852.876v12.693h-2.6V212.316h2.6v11.846h12.569V212.316h2.6v25.873Z" transform="translate(-795.019 -183.111)" fill="#007064"/>
  <path id="Path_21527" data-name="Path 21527" d="M142.692,185.385a42.692,42.692,0,1,1,42.692-42.692A42.74,42.74,0,0,1,142.692,185.385Zm0-83.323a40.631,40.631,0,1,0,40.631,40.631A40.677,40.677,0,0,0,142.692,102.062Z" transform="translate(-100 -100)" fill="#007064"/>
</svg>
